<svg width="458" height="80" viewBox="0 0 458 80" fill="none" xmlns="http://www.w3.org/2000/svg">
<g clip-path="url(#clip0_4_41)">
<mask id="mask0_4_41" style="mask-type:luminance" maskUnits="userSpaceOnUse" x="0" y="0" width="500" height="80">
<path d="M500 0H0V80H500V0Z" fill="white"/>
</mask>
<g mask="url(#mask0_4_41)">
<mask id="mask1_4_41" style="mask-type:luminance" maskUnits="userSpaceOnUse" x="0" y="0" width="500" height="80">
<path d="M500 0H0V80H500V0Z" fill="white"/>
</mask>
<g mask="url(#mask1_4_41)">
<path fill-rule="evenodd" clip-rule="evenodd" d="M45.2583 79.9999L80.7417 45.5748H80.7333C94.7167 32.0165 100.392 29.9581 127.058 29.9581H233.408L264.008 -0.000244141H123.025C87.3333 -0.000244141 77.2417 3.39977 56.3083 24.1165L0 79.9999H45.2583ZM127.7 34.7415H228.842L200.792 62.7915H128.225C114.925 62.7915 111.983 63.4165 105.383 70.0166L95.4 79.9999H53.4333L84.4583 48.9748C96.6417 36.7998 100.842 34.7415 127.7 34.7415ZM320 -0.000244141L240.067 80.0002L190.175 79.9999L270.175 -0.000244141H320ZM261.183 77.4666C262.85 79.1582 264.95 79.9999 267.475 79.9999C270 79.9999 272.075 79.1582 273.717 77.4832C275.358 75.8082 276.175 73.7332 276.175 71.2666C276.175 68.7999 275.35 66.7248 273.7 65.0331C272.05 63.3415 269.967 62.4998 267.442 62.4998C264.917 62.4998 262.825 63.3415 261.167 65.0165C259.508 66.6915 258.675 68.7666 258.675 71.2332C258.675 73.6999 259.508 75.7749 261.183 77.4666Z" fill="white"/>
<path d="M240.067 80.0002L320 -0.000244141H270.175L190.175 79.9999L240.067 80.0002Z" fill="white"/>
<path d="M348.669 60.0004L358.591 50H313.562L335.781 25.0001L346.891 12.5002C353.75 3.46776 361.295 0.561057 369 0.000157475L383 0.000220954L408 0.000157475L458 3.05176e-05L448.111 10.0002C440.92 17.6709 436.657 20.3353 428.334 20.0004H413.223H388.223L378.355 30H428.334L403.613 55.0001L391.252 67.5002C383.533 77.0805 378.78 80.3935 369 80.0002L353.919 80.0002L328.946 80.0002L279 80.0001L288.875 70.0002C296.615 61.8835 301.032 60.4164 309 60.0004H323.709H348.669Z" fill="white"/>
</g>
</g>
</g>
<defs>
<clipPath id="clip0_4_41">
<rect width="458" height="80" fill="white"/>
</clipPath>
</defs>
</svg>
