<svg width="230" height="40" viewBox="0 0 230 40" fill="none" xmlns="http://www.w3.org/2000/svg">
<g clip-path="url(#clip0_46_2)">
<path fill-rule="evenodd" clip-rule="evenodd" d="M22.728 39.9844L40.5471 22.7786H40.5429C47.5652 16.0021 50.4152 14.9733 63.8064 14.9733H117.214L132.58 0H61.7811C43.8573 0 38.7895 1.69934 28.2771 12.0536L0 39.9844H22.728ZM64.1288 17.3641H114.921L100.834 31.3836H64.3925C57.7134 31.3836 56.236 31.696 52.9216 34.9947L47.9083 39.9844H26.8333L42.4136 24.4779C48.5319 18.3928 50.6412 17.3641 64.1288 17.3641ZM160.699 0L120.558 39.9846L95.5027 39.9844L135.677 0H160.699ZM131.162 38.7182C131.999 39.5637 133.053 39.9844 134.322 39.9844C135.59 39.9844 136.632 39.5637 137.456 38.7265C138.28 37.8894 138.69 36.8523 138.69 35.6194C138.69 34.3866 138.276 33.3495 137.448 32.504C136.619 31.6585 135.573 31.2378 134.305 31.2378C133.037 31.2378 131.986 31.6585 131.154 32.4957C130.321 33.3328 129.902 34.3699 129.902 35.6028C129.902 36.8356 130.321 37.8727 131.162 38.7182Z" fill="white"/>
<path d="M120.558 39.9846L160.699 0H135.677L95.5027 39.9844L120.558 39.9846Z" fill="white"/>
<path d="M175.096 29.9886L180.079 24.9903H157.466L168.624 12.4953L174.203 6.24778C177.647 1.73332 181.436 0.280541 185.306 0.000200729L192.336 0.000232456L204.891 0.000200729L230 0.000137275L225.034 4.99826C221.423 8.83213 219.282 10.1638 215.102 9.99639H207.514H194.959L190.004 14.9942H215.102L202.688 27.4894L196.48 33.737C192.604 38.5253 190.217 40.1811 185.306 39.9845L177.732 39.9846L165.191 39.9845L140.109 39.9845L145.068 34.9865C148.955 30.9297 151.174 30.1965 155.175 29.9886H162.561H175.096Z" fill="white"/>
</g>
<defs>
<clipPath id="clip0_46_2">
<rect width="230" height="40" fill="white"/>
</clipPath>
</defs>
</svg>
