<svg width="161" height="28" viewBox="0 0 161 28" fill="none" xmlns="http://www.w3.org/2000/svg">
<g clip-path="url(#clip0_55_2)">
<path fill-rule="evenodd" clip-rule="evenodd" d="M15.9096 27.9891L28.383 15.945H28.38C33.2956 11.2015 35.2906 10.4813 44.6645 10.4813H82.0495L92.8063 0H43.2468C30.7001 0 27.1526 1.18954 19.794 8.43755L0 27.9891H15.9096ZM44.8902 12.1548H80.4445L70.5841 21.9685H45.0747C40.3994 21.9685 39.3652 22.1872 37.0451 24.4963L33.5358 27.9891H18.7833L29.6895 17.1346C33.9723 12.875 35.4488 12.1548 44.8902 12.1548ZM112.489 0L84.3904 27.9892L66.8519 27.9891L94.9742 0H112.489ZM91.8132 27.1028C92.3992 27.6946 93.1374 27.9891 94.0251 27.9891C94.9127 27.9891 95.6421 27.6946 96.2193 27.1086C96.7962 26.5226 97.0833 25.7966 97.0833 24.9336C97.0833 24.0706 96.7933 23.3446 96.2133 22.7528C95.6333 22.1609 94.9011 21.8665 94.0134 21.8665C93.1258 21.8665 92.3904 22.1609 91.8076 22.747C91.2244 23.333 90.9316 24.059 90.9316 24.9219C90.9316 25.7849 91.2244 26.5109 91.8132 27.1028Z" fill="white"/>
<path d="M84.3904 27.9892L112.489 0H94.9742L66.8519 27.9891L84.3904 27.9892Z" fill="white"/>
<path d="M122.567 20.992L126.055 17.4932H110.226L118.037 8.74671L121.942 4.37345C124.353 1.21332 127.006 0.196378 129.714 0.000140511L134.635 0.00016272L143.424 0.000140511L161 9.60927e-05L157.524 3.49878C154.996 6.18249 153.497 7.11467 150.572 6.99747H145.259H136.471L133.002 10.496H150.572L141.881 19.2426L137.536 23.6159C134.823 26.9677 133.152 28.1268 129.714 27.9892L124.412 27.9892L115.634 27.9892L98.0764 27.9891L101.548 24.4906C104.269 21.6508 105.821 21.1375 108.622 20.992H113.793H122.567Z" fill="white"/>
</g>
<defs>
<clipPath id="clip0_55_2">
<rect width="161" height="28" fill="white"/>
</clipPath>
</defs>
</svg>
