<svg width="229" height="40" viewBox="0 0 229 40" fill="none" xmlns="http://www.w3.org/2000/svg">
<g clip-path="url(#clip0_14_2)">
<mask id="mask0_14_2" style="mask-type:luminance" maskUnits="userSpaceOnUse" x="0" y="0" width="229" height="40">
<path d="M229 0H0V40H229V0Z" fill="white"/>
</mask>
<g mask="url(#mask0_14_2)">
<mask id="mask1_14_2" style="mask-type:luminance" maskUnits="userSpaceOnUse" x="0" y="0" width="250" height="40">
<path d="M250 0H0V40H250V0Z" fill="white"/>
</mask>
<g mask="url(#mask1_14_2)">
<path fill-rule="evenodd" clip-rule="evenodd" d="M22.6292 39.9998L40.3708 22.7873H40.3666C47.3583 16.0081 50.196 14.9789 63.529 14.9789H116.704L132.004 -0.000244141H61.5125C43.6667 -0.000244141 38.6208 1.69976 28.1542 12.0581L0 39.9998H22.6292ZM63.85 17.3706H114.421L100.396 31.3956H64.1125C57.4625 31.3956 55.9915 31.7082 52.6915 35.0082L47.7 39.9998H26.7167L42.2291 24.4873C48.3208 18.3998 50.421 17.3706 63.85 17.3706ZM160 -0.000244141L120.034 40L95.0875 39.9998L135.087 -0.000244141H160ZM130.592 38.7332C131.425 39.579 132.475 39.9998 133.738 39.9998C135 39.9998 136.038 39.579 136.859 38.7415C137.679 37.904 138.087 36.8665 138.087 35.6332C138.087 34.3998 137.675 33.3623 136.85 32.5164C136.025 31.6706 134.983 31.2498 133.721 31.2498C132.458 31.2498 131.412 31.6706 130.583 32.5081C129.754 33.3456 129.337 34.3832 129.337 35.6165C129.337 36.8498 129.754 37.8873 130.592 38.7332Z" fill="white"/>
<path d="M120.034 40L160 -0.000244141H135.087L95.0875 39.9998L120.034 40Z" fill="white"/>
<path d="M174.334 30.0001L179.296 24.9999H156.781L167.891 12.5L173.445 6.24998C176.875 1.73376 180.648 0.280406 184.5 -4.33326e-05L191.5 -1.15931e-05L204 -4.33326e-05L229 -0.000106812L224.056 4.99998C220.46 8.83534 218.328 10.1675 214.167 10.0001H206.611H194.111L189.177 14.9999H214.167L201.806 27.4999L195.626 33.75C191.766 38.5401 189.39 40.1966 184.5 40L176.959 40L164.473 40L139.5 39.9999L144.437 35C148.308 30.9416 150.516 30.2081 154.5 30.0001H161.855H174.334Z" fill="white"/>
</g>
</g>
</g>
<defs>
<clipPath id="clip0_14_2">
<rect width="229" height="40" fill="white"/>
</clipPath>
</defs>
</svg>
