<svg width="184" height="32" viewBox="0 0 184 32" fill="none" xmlns="http://www.w3.org/2000/svg">
<g clip-path="url(#clip0_46_2)">
<path fill-rule="evenodd" clip-rule="evenodd" d="M18.1824 31.9875L32.4377 18.2229H32.4343C38.0521 12.8017 40.3322 11.9786 51.0451 11.9786H93.7709L106.064 0H49.4249C35.0859 0 31.0316 1.35947 22.6217 9.64292L0 31.9875H18.1824ZM51.3031 13.8913H91.9365L80.6675 25.1069H51.514C46.1707 25.1069 44.9888 25.3568 42.3373 27.9957L38.3266 31.9875H21.4667L33.9308 19.5824C38.8255 14.7143 40.5129 13.8913 51.3031 13.8913ZM128.559 0L96.4461 31.9876L76.4022 31.9875L108.542 0H128.559ZM104.929 30.9746C105.599 31.651 106.443 31.9875 107.457 31.9875C108.472 31.9875 109.305 31.651 109.965 30.9812C110.624 30.3115 110.952 29.4818 110.952 28.4956C110.952 27.5093 110.621 26.6796 109.958 26.0032C109.295 25.3268 108.458 24.9902 107.444 24.9902C106.43 24.9902 105.589 25.3268 104.923 25.9965C104.256 26.6663 103.922 27.4959 103.922 28.4822C103.922 29.4685 104.256 30.2982 104.929 30.9746Z" fill="white"/>
<path d="M96.4461 31.9876L128.559 0H108.542L76.4022 31.9875L96.4461 31.9876Z" fill="white"/>
<path d="M140.076 23.9909L144.063 19.9923H125.973L134.899 9.99624L139.362 4.99822C142.118 1.38666 145.149 0.224433 148.245 0.000160584L153.869 0.000185965L163.913 0.000160584L184 0.00010982L180.027 3.99861C177.138 7.0657 175.425 8.13105 172.082 7.99711H166.011H155.967L152.003 11.9954H172.082L162.15 21.9915L157.184 26.9896C154.083 30.8202 152.174 32.1449 148.245 31.9876L142.186 31.9877L132.153 31.9876L112.087 31.9876L116.055 27.9892C119.164 24.7438 120.939 24.1572 124.14 23.9909H130.049H140.076Z" fill="white"/>
</g>
<defs>
<clipPath id="clip0_46_2">
<rect width="184" height="32" fill="white"/>
</clipPath>
</defs>
</svg>
