<svg width="200" height="100" viewBox="0 0 200 100" fill="none" xmlns="http://www.w3.org/2000/svg">
<path d="M37.5581 58.7285L37.844 58.7379C38.0831 58.7473 38.3253 58.7567 38.569 58.7567C38.7596 58.7567 38.9503 58.7567 39.1393 58.7348C39.269 58.7254 39.3987 58.7098 39.53 58.6942C39.7144 58.669 39.9001 58.6534 40.0862 58.6473C40.505 58.6582 40.6596 58.6629 40.7378 58.577C40.7922 58.5372 40.8547 58.5098 40.9208 58.4968C40.987 58.4839 41.0552 58.4856 41.1206 58.502C41.2168 58.5332 41.3214 58.5266 41.4129 58.4833C41.5044 58.44 41.5759 58.3634 41.6128 58.2692L41.6675 58.1129C41.6937 58.0211 41.6941 57.9239 41.6688 57.8318C41.6434 57.7398 41.5932 57.6565 41.5237 57.591C41.3743 57.4028 41.2074 57.2291 41.0253 57.0723C40.9963 57.0459 40.9637 57.0238 40.9284 57.0067C40.2108 56.6451 39.5665 56.1534 39.0284 55.5567C38.9507 55.4783 38.845 55.4339 38.7346 55.4332C38.68 55.4342 38.6261 55.4466 38.5766 55.4698C38.527 55.4929 38.4829 55.5263 38.4471 55.5676C37.7801 56.3349 37.3406 57.2733 37.1784 58.277C37.1697 58.3318 37.1728 58.3879 37.1875 58.4415C37.2022 58.4951 37.2282 58.5449 37.2637 58.5876C37.2992 58.6304 37.3434 58.665 37.3933 58.6893C37.4433 58.7136 37.4979 58.727 37.5534 58.7285H37.5581Z" fill="black"/>
<path d="M30.9754 55.4191C29.1042 55.8427 27.2694 56.4132 25.4879 57.1254C24.9973 57.3285 24.4989 57.5051 24.002 57.6816C23.5332 57.8457 23.0739 58.0097 22.6161 58.1957C22.5311 58.23 22.4609 58.2931 22.4178 58.374C22.3747 58.4548 22.3613 58.5482 22.3801 58.6379C22.4043 58.7246 22.4553 58.8015 22.5257 58.8576C22.5961 58.9137 22.6824 58.9461 22.7723 58.9504C23.4567 58.9348 24.1416 58.9264 24.827 58.9254C25.1268 58.9121 25.422 59.0026 25.6629 59.1816C25.7313 59.2334 25.8147 59.2614 25.9004 59.2613H25.9036C26.6848 59.2426 27.4661 59.1832 28.2473 59.1254C29.1395 59.0598 29.9817 58.9957 30.8114 58.991C30.863 58.991 30.9141 58.9807 30.9617 58.9608C31.0093 58.9409 31.0525 58.9116 31.0887 58.8748C31.1249 58.8381 31.1534 58.7944 31.1726 58.7465C31.1918 58.6986 31.2013 58.6473 31.2004 58.5957C31.1893 57.9692 31.2211 57.3428 31.2957 56.7207C31.3332 56.4379 31.3801 56.1629 31.4426 55.8957C31.4587 55.831 31.4577 55.7633 31.4396 55.6992C31.4215 55.6351 31.387 55.5768 31.3395 55.5301C31.2929 55.4827 31.2351 55.4477 31.1716 55.4283C31.108 55.4089 31.0405 55.4058 30.9754 55.4191Z" fill="black"/>
<path d="M39.7034 61.641C40.1024 61.4067 40.4889 61.1517 40.8612 60.8769C41.1096 60.7019 41.3565 60.5253 41.6128 60.3613C41.6909 60.2994 41.7454 60.2126 41.7673 60.1154C41.7892 60.0181 41.7771 59.9163 41.7331 59.8269C41.7166 59.7729 41.6885 59.7231 41.6508 59.6811C41.613 59.6391 41.5665 59.6058 41.5146 59.5836C41.4627 59.5614 41.4065 59.5509 41.35 59.5527C41.2936 59.5545 41.2382 59.5686 41.1878 59.5941C40.8908 59.7153 40.5705 59.7686 40.2503 59.7504C40.0182 59.75 39.7863 59.7662 39.5565 59.7988C38.9659 59.8687 38.37 59.8824 37.7768 59.8394H37.6628C37.6032 59.8361 37.5437 59.8471 37.4894 59.8716C37.435 59.8961 37.3873 59.9332 37.3503 59.98C37.3116 60.0256 37.284 60.0795 37.2697 60.1375C37.2553 60.1955 37.2545 60.2561 37.2675 60.3144C37.3156 60.526 37.3755 60.7346 37.4471 60.9394C37.6113 61.3881 37.8245 61.8173 38.0831 62.2191C38.1135 62.2665 38.1538 62.3067 38.2013 62.3369C38.2488 62.3671 38.3023 62.3867 38.3581 62.3941H38.4096C38.506 62.3942 38.599 62.3586 38.6706 62.2941C38.9006 62.1067 39.1499 61.9443 39.4143 61.8097L39.7034 61.641Z" fill="black"/>
<path d="M21.4176 60.0613C21.1411 60.0785 20.9395 60.0925 20.8707 60.0925C20.6973 60.0925 20.5036 60.0847 20.2957 60.0753C19.1817 60.03 17.6598 59.966 16.9911 61.0285C16.953 61.0869 16.9067 61.1395 16.8536 61.1847C16.792 61.2524 16.7502 61.3357 16.7325 61.4255C16.7149 61.5152 16.7222 61.6081 16.7536 61.6941C16.8051 61.8503 16.8598 61.9972 16.9254 62.1503C16.9548 62.2265 17.0082 62.2909 17.0776 62.3338C17.147 62.3767 17.2286 62.3957 17.3098 62.3878C18.51 62.3395 19.6881 62.0499 20.7739 61.5363C20.8564 61.4904 20.9495 61.467 21.0439 61.4687C21.1383 61.4703 21.2305 61.4969 21.3114 61.5456C21.4034 61.602 21.4807 61.6794 21.5369 61.7715C21.5931 61.8636 21.6267 61.9677 21.6348 62.0753C21.6375 62.1511 21.662 62.2244 21.7054 62.2865C21.7489 62.3486 21.8094 62.3968 21.8796 62.4252C21.9499 62.4536 22.0269 62.4611 22.1013 62.4467C22.1757 62.4323 22.2443 62.3967 22.2989 62.3441C22.3821 62.2801 22.4851 62.2471 22.59 62.2508C22.695 62.2545 22.7953 62.2947 22.8739 62.3644C22.998 62.4437 23.0893 62.5651 23.1312 62.7062C23.1731 62.8474 23.1627 62.999 23.102 63.1331C22.825 63.7657 22.3882 64.3154 21.8346 64.7282C21.281 65.141 20.6295 65.4028 19.9442 65.4878C19.8747 65.5011 19.8101 65.5331 19.7574 65.5803C19.7047 65.6276 19.6659 65.6883 19.6452 65.756C19.6245 65.8237 19.6226 65.8957 19.6397 65.9644C19.6569 66.033 19.6925 66.0957 19.7426 66.1457C19.8567 66.2613 19.9739 66.3753 20.0817 66.4581C20.5329 66.7874 21.0875 66.9433 21.6442 66.8972C21.9348 66.8972 22.2239 66.8753 22.4926 66.855C22.8795 66.8287 23.2675 66.8219 23.6551 66.8347C23.9379 66.8347 24.2223 66.8488 24.5067 66.8347C24.5938 66.8337 24.678 66.8034 24.7457 66.7487C24.8135 66.694 24.8608 66.6181 24.8801 66.5331C24.9854 65.9345 25.0268 65.3264 25.0036 64.7191C25.0036 64.3863 25.0036 64.0831 25.027 63.866L25.0864 63.3628C25.2618 62.3746 25.2734 61.3642 25.1207 60.3722C25.0207 59.9441 24.6426 59.8628 21.4176 60.0613Z" fill="black"/>
<path d="M56.3816 49.5941C56.0004 49.3957 55.6176 49.6629 55.2879 49.8972C55.1904 49.9677 55.0892 50.0329 54.9848 50.0926C54.901 50.0559 54.807 50.0499 54.7193 50.0756C54.6316 50.1013 54.5557 50.1571 54.505 50.2332C54.4543 50.3092 54.432 50.4007 54.442 50.4916C54.452 50.5824 54.4937 50.6668 54.5598 50.73C54.8346 51.0001 55.09 51.2894 55.3238 51.5957C55.3616 51.6449 55.4105 51.6844 55.4666 51.7109C55.5226 51.7375 55.5842 51.7503 55.6462 51.7483C55.7082 51.7463 55.7688 51.7296 55.8231 51.6995C55.8773 51.6694 55.9237 51.6269 55.9582 51.5754C56.0066 51.5113 56.1988 51.2847 56.3769 51.0941C56.4582 51.0051 56.5332 50.9222 56.516 50.9191C56.5947 50.8935 56.6632 50.8435 56.7115 50.7764C56.7598 50.7092 56.7855 50.6284 56.7848 50.5457C56.7769 50.2254 56.7348 49.7769 56.3816 49.5941Z" fill="black"/>
<path d="M21.8221 62.5816C21.7663 62.5122 21.6886 62.464 21.6017 62.4446C21.5148 62.4253 21.4239 62.4362 21.344 62.4753C20.3539 62.9545 19.2818 63.2413 18.1846 63.3206C18.1176 63.3262 18.0531 63.3491 17.9975 63.3871C17.9419 63.4251 17.8971 63.4768 17.8675 63.5373C17.8379 63.5978 17.8245 63.6649 17.8286 63.7321C17.8327 63.7993 17.8542 63.8642 17.8909 63.9206C17.9846 64.0675 18.08 64.2144 18.1831 64.3535C18.2196 64.4019 18.2668 64.4412 18.321 64.4683C18.3752 64.4954 18.435 64.5096 18.4956 64.5097C18.5122 64.5113 18.529 64.5113 18.5456 64.5097C19.7818 64.4655 20.9548 63.9527 21.8268 63.0753C21.8833 63.0052 21.9137 62.9177 21.9129 62.8276C21.912 62.7376 21.8799 62.6506 21.8221 62.5816Z" fill="black"/>
<path d="M17.8426 65.8331C17.8056 65.7859 17.7581 65.748 17.7038 65.7225C17.6496 65.697 17.59 65.6846 17.5301 65.6863H15.1613C13.2449 65.737 11.3271 65.6765 9.41759 65.505C9.36687 65.498 9.31527 65.5014 9.26585 65.5148C9.21644 65.5281 9.17023 65.5514 9.12999 65.583C9.08974 65.6147 9.05628 65.6541 9.0316 65.6989C9.00692 65.7438 8.99153 65.7932 8.98634 65.8441C8.95464 66.1175 8.88849 66.3857 8.78947 66.6425C8.76817 66.6977 8.75964 66.757 8.76451 66.816C8.76939 66.8749 8.78753 66.932 8.81759 66.983C8.84765 67.0339 8.88884 67.0774 8.93809 67.1102C8.98734 67.143 9.04336 67.1642 9.10197 67.1722C9.56027 67.2339 10.0224 67.2631 10.4848 67.2597C11.3863 67.2597 12.3332 67.1738 13.2051 67.0956C13.6738 67.0519 14.1426 67.0113 14.5488 66.9878L15.5332 66.9363C16.3238 66.8941 17.0957 66.8535 17.8535 66.8253C17.9283 66.8226 18.0007 66.7984 18.0622 66.7557C18.1236 66.713 18.1715 66.6536 18.2001 66.5845C18.2288 66.5154 18.2369 66.4395 18.2237 66.3658C18.2104 66.2922 18.1763 66.2239 18.1254 66.1691C18.0285 66.0628 17.9348 65.9566 17.8426 65.8331Z" fill="black"/>
<path d="M42.0738 61.3831C41.855 61.5253 41.6409 61.68 41.4284 61.8331C41.1571 62.037 40.8755 62.2268 40.5847 62.4019C40.4847 62.4628 40.3628 62.5269 40.2347 62.5956C39.9557 62.7319 39.6904 62.8946 39.4425 63.0816C39.3961 63.119 39.3591 63.1667 39.3344 63.221C39.3097 63.2752 39.2981 63.3345 39.3003 63.3941C39.3019 63.4531 39.3167 63.511 39.3438 63.5635C39.3708 63.616 39.4094 63.6617 39.4566 63.6972C40.0638 64.1513 40.7537 64.4825 41.4878 64.6722C41.5204 64.681 41.5541 64.6852 41.5878 64.6847C41.6833 64.6846 41.7754 64.6496 41.8467 64.5863C41.9181 64.523 41.9639 64.4357 41.9753 64.3409C42.0249 64.0327 42.1098 63.7313 42.2285 63.4425C42.3275 63.1875 42.4105 62.9266 42.4769 62.6613L42.6644 61.8034C42.6812 61.7277 42.6752 61.6487 42.647 61.5764C42.6189 61.504 42.57 61.4417 42.5064 61.3972C42.4429 61.3527 42.3675 61.3281 42.29 61.3264C42.2124 61.3247 42.1361 61.3461 42.0706 61.3878L42.0738 61.3831Z" fill="black"/>
<path d="M51.7192 52.2879C49.0879 48.5895 45.7567 48.6363 42.2333 48.6817C41.8176 48.6817 41.3958 48.6926 40.9676 48.6926C37.1989 48.6926 32.6254 53.0457 32.3739 56.8629C31.9192 63.9895 35.6848 68.9676 42.2536 69.8567C42.3208 69.8567 42.3739 69.8457 42.3614 69.841C42.7223 69.841 43.0895 69.8488 43.4551 69.8567H44.0645C49.3129 69.0942 52.9911 65.6926 53.6645 60.9832C54.0873 57.945 53.3964 54.8563 51.7192 52.2879ZM45.7114 65.5395H45.6958C44.6159 65.9094 43.4686 66.0405 42.3332 65.9236C41.1977 65.8068 40.1011 65.4449 39.1192 64.8629C38.3576 64.4182 37.7081 63.8049 37.2206 63.07C36.733 62.3352 36.4204 61.4984 36.3067 60.6238C35.8379 57.1129 36.9879 53.1238 41.6317 52.4629C42.4219 52.3403 43.2196 52.2729 44.0192 52.2613C45.2638 52.1831 46.4954 52.5516 47.4926 53.3004C48.812 54.5866 49.6503 56.2864 49.8676 58.116L49.9426 58.4285C50.1567 59.9189 49.8535 61.4377 49.0836 62.7317C48.3136 64.0257 47.1234 65.0167 45.7114 65.5395Z" fill="black"/>
<path d="M48.569 57.4004L48.1815 57.4613L48.5596 57.3629C48.5339 57.2642 48.4701 57.1797 48.3823 57.1279C48.2945 57.0761 48.1897 57.0611 48.0909 57.0863C47.6718 57.2175 47.287 57.44 46.9643 57.7379C46.8081 57.8738 46.6659 58.0175 46.4784 58.1769C46.3488 58.2343 46.234 58.3203 46.1424 58.4285C46.062 58.5423 45.9501 58.6302 45.8206 58.6816C45.7441 58.7254 45.6807 58.7886 45.6368 58.865C45.5929 58.9413 45.57 59.0279 45.5706 59.116V59.2425C45.5706 59.3258 45.5973 59.4068 45.6468 59.4738C45.6963 59.5407 45.766 59.59 45.8456 59.6144C45.9721 59.6535 46.0956 59.6988 46.219 59.7425C46.4703 59.8375 46.7277 59.9158 46.9893 59.9769L47.2393 60.0269C47.5909 60.0957 47.944 60.166 48.2862 60.2644C48.3206 60.2751 48.3564 60.2803 48.3924 60.28C48.4709 60.2799 48.5476 60.2565 48.6128 60.2129C48.66 60.1807 48.6995 60.1385 48.7287 60.0894C48.7579 60.0403 48.7759 59.9853 48.7815 59.9285C48.8432 59.3431 48.8343 58.7524 48.7549 58.1691C48.708 57.9094 48.6459 57.6528 48.569 57.4004Z" fill="black"/>
<path d="M41.3582 56.0332C41.779 56.2398 42.1367 56.5555 42.3941 56.9472C42.4397 56.9925 42.4942 57.0275 42.5543 57.0502C42.6144 57.0728 42.6785 57.0824 42.7426 57.0785C42.8014 57.079 42.86 57.0701 42.916 57.0519C43.0067 57.0362 43.0889 56.989 43.1483 56.9188C43.2077 56.8485 43.2405 56.7596 43.241 56.6676C43.238 56.4586 43.2501 56.2498 43.2769 56.0426C43.2912 55.976 43.3121 55.9111 43.3394 55.8488C43.4077 55.6915 43.4469 55.5232 43.4551 55.3519C43.4705 54.8881 43.5228 54.4262 43.6113 53.9707L43.6207 53.9082C43.6297 53.8522 43.6265 53.795 43.6113 53.7404C43.5961 53.6858 43.5692 53.6351 43.5325 53.5919C43.4958 53.5487 43.4502 53.5139 43.3988 53.49C43.3474 53.4661 43.2914 53.4537 43.2348 53.4535C42.9848 53.4535 42.7348 53.4535 42.4676 53.4801C41.5947 53.5661 40.7503 53.8378 39.991 54.2769C39.9406 54.3064 39.8974 54.3469 39.8647 54.3953C39.832 54.4437 39.8105 54.4988 39.8019 54.5566C39.7929 54.6146 39.7973 54.6738 39.8146 54.7299C39.8319 54.7859 39.8618 54.8373 39.9019 54.88C40.3058 55.3575 40.8009 55.7495 41.3582 56.0332Z" fill="black"/>
<path d="M14.8941 64.516C15.2769 64.5566 15.7457 64.591 16.255 64.6082H16.2691C16.3367 64.6078 16.4031 64.5899 16.4618 64.5562C16.5204 64.5225 16.5693 64.4741 16.6036 64.4159C16.6379 64.3576 16.6566 64.2914 16.6576 64.2238C16.6587 64.1561 16.6422 64.0894 16.6097 64.0301C16.5238 63.8738 16.4441 63.7176 16.3644 63.5613C16.333 63.4996 16.2858 63.4472 16.2277 63.4096C16.1695 63.372 16.1024 63.3505 16.0332 63.3473C15.2425 63.3098 14.4472 63.2316 13.6488 63.1535C11.8717 62.9119 10.0725 62.8793 8.28786 63.0566C8.22701 63.0651 8.16902 63.0878 8.11853 63.1228C8.06805 63.1578 8.0265 63.2042 7.99723 63.2582C7.94366 63.3648 7.90024 63.4762 7.86755 63.591L7.83473 63.6879C7.81569 63.7418 7.80862 63.7992 7.81401 63.8562C7.81941 63.9131 7.83714 63.9682 7.86598 64.0176C7.89477 64.0668 7.93405 64.1092 7.98104 64.1416C8.02802 64.174 8.08156 64.1957 8.13786 64.2051C9.4153 64.3815 10.7049 64.4542 11.9941 64.4223C12.9488 64.4207 13.9332 64.4223 14.8941 64.516Z" fill="black"/>
<path d="M52.5128 50.4988C52.4318 50.4491 52.3355 50.4305 52.2418 50.4465C52.1481 50.4625 52.0634 50.5119 52.0035 50.5856C51.9435 50.6593 51.9123 50.7523 51.9158 50.8473C51.9192 50.9422 51.957 51.0327 52.0221 51.1019C53.1839 52.3048 54.0476 53.7631 54.5442 55.3599C55.0407 56.9567 55.1563 58.6477 54.8815 60.2972C54.6957 61.6098 54.3226 62.889 53.7737 64.0957C53.7344 64.1814 53.7275 64.2785 53.7542 64.369C53.7809 64.4594 53.8395 64.5372 53.919 64.5879L54.0159 64.641C54.0522 64.6773 54.0953 64.7061 54.1428 64.7257C54.1902 64.7452 54.2411 64.7552 54.2925 64.755H54.3409C54.3989 64.7487 54.4547 64.7294 54.5041 64.6985C54.5536 64.6677 54.5956 64.6261 54.6268 64.5769C55.3297 63.4963 55.8398 62.3021 56.1346 61.0472C56.9393 57.5191 55.8081 52.616 52.5128 50.4988Z" fill="black"/>
<path d="M48.0239 61.3363C47.6473 61.2253 47.2551 61.1472 46.8676 61.0722L46.5926 61.0175C46.3805 60.9771 46.1716 60.9212 45.9676 60.8503L45.8817 60.805C45.8082 60.7686 45.725 60.7562 45.6441 60.7697C45.5632 60.7832 45.4886 60.8218 45.4308 60.88C45.3731 60.9383 45.3351 61.0133 45.3224 61.0943C45.3096 61.1754 45.3227 61.2584 45.3598 61.3316C45.3762 61.3695 45.3989 61.4044 45.427 61.4347C45.552 61.6722 45.6957 61.8941 45.8395 62.1175C46.0162 62.3727 46.1729 62.6412 46.3082 62.9206C46.3567 63.0262 46.3777 63.1423 46.3692 63.2581C46.3707 63.3681 46.4123 63.4737 46.4864 63.555C46.5555 63.6311 46.6518 63.677 46.7545 63.6825C46.8572 63.6881 46.9579 63.6529 47.0348 63.5847C47.5659 63.1076 47.9875 62.5213 48.2707 61.8659C48.2933 61.8151 48.3047 61.7601 48.3044 61.7045C48.304 61.6489 48.2918 61.594 48.2686 61.5434C48.2454 61.4929 48.2117 61.4479 48.1698 61.4114C48.1279 61.3748 48.0787 61.3476 48.0254 61.3316L48.0239 61.3363Z" fill="black"/>
<path d="M43.2676 59.7926L43.4832 59.8379C43.5672 59.8478 43.6518 59.852 43.7363 59.8504C43.8086 59.8571 43.8812 59.8413 43.9441 59.8051C44.0285 59.7941 44.0598 59.7957 44.1191 59.7347C44.1485 59.7176 44.1788 59.7019 44.2098 59.6879C44.2488 59.6685 44.2847 59.6432 44.316 59.6129C44.3395 59.5879 44.4129 59.4394 44.4316 59.4082C44.4794 59.3208 44.4911 59.2182 44.4645 59.1222C44.466 59.1035 44.466 59.0847 44.4645 59.066C44.4643 59.0121 44.4526 58.9588 44.4301 58.9097C44.4082 58.8316 44.3832 58.7535 44.3582 58.6941C44.2907 58.4965 44.1607 58.3263 43.9879 58.209C43.8152 58.0918 43.6089 58.0339 43.4004 58.0441C43.2273 58.0441 43.0604 58.1081 42.9316 58.2238C42.8366 58.3052 42.7521 58.3981 42.6801 58.5004L42.6176 58.6254C42.5915 58.6772 42.5781 58.7345 42.5785 58.7926C42.5625 59.0221 42.629 59.2499 42.766 59.4347C42.7904 59.4711 42.8211 59.5029 42.8566 59.5285C42.8943 59.5905 42.9484 59.6407 43.0129 59.6738C43.0395 59.6879 43.0738 59.7051 43.0957 59.7191C43.1465 59.7567 43.2053 59.7819 43.2676 59.7926Z" fill="black"/>
<path d="M44.5629 57.2629C44.7016 57.3364 44.8285 57.4301 44.9395 57.541C45.0132 57.6142 45.1129 57.6553 45.2168 57.6553C45.3207 57.6553 45.4204 57.6142 45.4942 57.541C45.7451 57.2999 46.0101 57.074 46.2879 56.8644L46.377 56.7941C46.7343 56.5006 47.1349 56.2639 47.5645 56.0926C47.6201 56.0719 47.6703 56.0389 47.7114 55.9962C47.7525 55.9535 47.7835 55.902 47.802 55.8457C47.8202 55.7892 47.8253 55.7293 47.8169 55.6706C47.8085 55.6118 47.7869 55.5558 47.7536 55.5066C47.1541 54.6118 46.2502 53.965 45.2098 53.6863C45.1569 53.6715 45.1014 53.6681 45.047 53.6761C44.9926 53.6841 44.9405 53.7035 44.8941 53.733C44.8477 53.7624 44.808 53.8013 44.7776 53.8471C44.7472 53.8929 44.7268 53.9446 44.7176 53.9988C44.6786 54.2301 44.6598 54.4582 44.6395 54.6879C44.6215 54.993 44.5786 55.296 44.5114 55.5941C44.4215 56.0268 44.3692 56.4665 44.3551 56.9082C44.3532 56.9808 44.3716 57.0525 44.4084 57.1152C44.4451 57.1779 44.4986 57.2291 44.5629 57.2629Z" fill="black"/>
<path d="M45.3082 63.891C45.2817 63.8044 45.2817 63.7119 45.3082 63.6254C45.3359 63.5358 45.3303 63.4393 45.2925 63.3535C45.2144 63.1816 45.1269 63.0066 45.0238 62.8176C44.9597 62.713 44.8882 62.6133 44.8097 62.5191C44.7459 62.4522 44.6899 62.3783 44.6425 62.2988C44.5878 62.1816 44.5253 62.0644 44.4613 61.9566C44.4211 61.8893 44.3617 61.8356 44.2906 61.8026C44.2195 61.7695 44.1402 61.7586 44.0628 61.7712C43.9855 61.7839 43.9137 61.8195 43.8569 61.8734C43.8 61.9274 43.7607 61.9972 43.7441 62.0738L43.6988 62.2832C43.6519 62.5066 43.6066 62.7332 43.5425 62.9597C43.4919 63.1196 43.4314 63.2762 43.3613 63.4285C43.217 63.724 43.12 64.0404 43.0738 64.366C43.0657 64.3977 43.0615 64.4302 43.0613 64.4629C43.0617 64.5663 43.103 64.6655 43.1761 64.7386C43.2493 64.8118 43.3484 64.8531 43.4519 64.8535H43.4769C44.0411 64.8189 44.5993 64.7171 45.1394 64.5504C45.1934 64.5338 45.2431 64.5057 45.2852 64.468C45.3273 64.4303 45.3607 64.3839 45.3831 64.3321C45.4055 64.2803 45.4164 64.2242 45.4151 64.1677C45.4138 64.1113 45.4002 64.0558 45.3753 64.0051L45.3082 63.891Z" fill="black"/>
<path d="M30.0692 60.1176C29.4082 60.1426 28.741 60.1895 28.0645 60.2395C27.616 60.2707 27.1629 60.3036 26.7035 60.3301C26.6508 60.3336 26.5994 60.3477 26.5523 60.3716C26.5052 60.3954 26.4633 60.4286 26.4293 60.469C26.3953 60.5094 26.3699 60.5563 26.3544 60.6068C26.339 60.6573 26.3339 60.7104 26.3395 60.7629C26.4036 62.0095 26.325 63.2593 26.1051 64.4879C26.0395 64.9567 25.9817 65.3504 25.9614 65.6473L25.9364 66.1161C25.9323 66.2165 25.9667 66.3146 26.0327 66.3904C26.0986 66.4662 26.1911 66.514 26.291 66.5239C26.527 66.5457 26.7207 66.5536 26.8801 66.5536C27.1175 66.5705 27.3558 66.5358 27.5785 66.452C27.5942 66.452 27.6551 66.4098 27.6692 66.402C27.7024 66.3799 27.7375 66.3606 27.7739 66.3442C27.9301 66.2879 28.0364 66.0098 28.0364 65.8473C28.0364 65.3379 28.002 64.8332 27.9692 64.3301C27.9364 63.827 27.9051 63.3614 27.9051 62.8754C27.9051 62.4957 27.9051 61.3442 30.1395 61.0332C30.2328 61.0207 30.3184 60.9746 30.3802 60.9036C30.442 60.8326 30.4759 60.7415 30.4754 60.6473V60.5004C30.4755 60.4478 30.465 60.3956 30.4446 60.347C30.4242 60.2985 30.3943 60.2545 30.3567 60.2176C30.3202 60.1792 30.2751 60.15 30.2251 60.1326C30.1751 60.1152 30.1216 60.1101 30.0692 60.1176Z" fill="black"/>
<path d="M126.824 33.6598C130.95 34.9301 135.081 36.5535 138.628 37.9723C140.536 38.782 142.395 39.7034 144.194 40.7316C146.512 42.0914 148.954 43.2278 151.488 44.1254L152.758 44.5332C153.985 44.9301 155.224 45.3301 156.472 45.7066C156.509 45.7177 156.546 45.7235 156.585 45.7238C156.654 45.724 156.722 45.7056 156.782 45.6706C156.842 45.6357 156.892 45.5854 156.926 45.5249C156.96 45.4644 156.977 45.396 156.976 45.3266C156.975 45.2572 156.955 45.1894 156.919 45.1301C156.543 44.6123 156.062 44.1793 155.508 43.8591C154.953 43.5388 154.338 43.3383 153.702 43.2707C153.133 43.1223 152.491 42.9582 151.788 42.6973C149.041 41.6641 146.404 40.3614 143.914 38.8082C141.287 37.2799 138.564 35.9229 135.761 34.7457C134.547 34.2066 133.331 33.666 132.127 33.0941C132.078 33.0702 132.025 33.0574 131.971 33.0566C130.941 33.041 129.914 33.002 128.889 32.9613C128.244 32.9379 127.6 32.9113 126.956 32.8926C126.863 32.8952 126.774 32.9287 126.702 32.9878C126.63 33.047 126.58 33.1283 126.56 33.2191C126.543 33.3121 126.56 33.408 126.609 33.489C126.658 33.57 126.734 33.6307 126.824 33.6598Z" fill="black"/>
<path d="M122.835 38.7691C123.027 39.6868 123.274 40.5921 123.575 41.4801C125.45 46.6363 129.816 47.4363 134.433 48.291L135.214 48.4379C137.416 48.8535 139.658 49.141 141.828 49.4176C144.143 49.7145 146.536 50.0207 148.86 50.4832C150.023 50.7031 151.204 50.813 152.388 50.8113L152.878 50.802C152.96 50.7977 153.038 50.7699 153.104 50.7219C153.17 50.6739 153.221 50.6078 153.25 50.5316C153.516 49.9484 153.674 49.3224 153.719 48.6832C153.719 48.1663 153.684 47.6501 153.614 47.1379C153.577 46.8254 153.543 46.5129 153.524 46.2004C153.519 46.1209 153.49 46.0448 153.44 45.9822C153.391 45.9197 153.323 45.8737 153.247 45.8504L152.916 45.7457C148.817 44.6269 144.913 42.8881 141.339 40.5895C137.93 38.4621 134.2 36.8983 130.293 35.9582C129.125 35.6066 127.985 35.2613 126.913 34.9004C125.161 34.2714 123.36 33.7885 121.528 33.4566C121.453 33.4446 121.376 33.455 121.306 33.4866C121.236 33.5182 121.177 33.5695 121.137 33.6342C121.096 33.699 121.075 33.7742 121.077 33.8507C121.078 33.9272 121.102 34.0015 121.146 34.0645C121.986 35.519 122.558 37.1125 122.835 38.7691Z" fill="black"/>
<path d="M112.657 32.0394H112.946C113.041 32.041 113.136 32.0374 113.23 32.0285C114.011 31.9801 114.793 31.9691 115.574 31.9597C116.355 31.9504 117.16 31.9379 117.946 31.8894C118.009 31.8853 118.071 31.8656 118.126 31.8321C118.18 31.7986 118.226 31.7523 118.258 31.6972C118.344 31.5488 118.414 31.4004 118.5 31.2488C118.558 31.1379 118.618 31.0238 118.682 30.9129C118.711 30.8591 118.728 30.7992 118.73 30.7378C118.732 30.6764 118.72 30.6154 118.694 30.5597C118.669 30.5038 118.631 30.4547 118.583 30.4164C118.535 30.3781 118.479 30.3517 118.419 30.3394C117.757 30.2019 117.078 30.1144 116.424 30.0269L115.986 29.9707C115.803 29.9441 115.608 29.9004 115.41 29.8551C114.608 29.6769 113.616 29.4551 113.021 30.2801C112.75 30.6544 112.511 31.0505 112.307 31.4644C112.276 31.5239 112.261 31.5903 112.264 31.6571C112.267 31.724 112.287 31.7889 112.322 31.8457C112.356 31.9042 112.405 31.9528 112.464 31.9868C112.522 32.0208 112.589 32.0389 112.657 32.0394Z" fill="black"/>
<path d="M122.669 43.8253C122.657 43.7269 122.608 43.6366 122.533 43.5722C122.457 43.5078 122.36 43.4738 122.261 43.4769C121.678 43.5066 121.097 43.5644 120.514 43.6206C119.988 43.6722 119.461 43.7238 118.932 43.755C118.876 43.7584 118.821 43.7737 118.772 43.8C118.722 43.8262 118.679 43.8628 118.644 43.9072C118.61 43.9516 118.586 44.0029 118.573 44.0575C118.561 44.1121 118.56 44.1688 118.571 44.2238C118.602 44.38 118.649 44.58 118.696 44.7863C118.761 45.0722 118.827 45.3628 118.852 45.4941C118.903 46.0241 119.076 46.5351 119.357 46.9878C119.383 47.033 119.406 47.0806 119.424 47.13C119.449 47.1932 119.49 47.2487 119.543 47.2912C119.596 47.3337 119.66 47.3616 119.727 47.3722C120.878 47.5534 122.022 47.7659 123.127 48.0066C123.154 48.0123 123.182 48.0149 123.21 48.0144C123.275 48.0143 123.338 47.9982 123.395 47.9673C123.452 47.9365 123.501 47.8919 123.536 47.8376C123.572 47.7834 123.593 47.7211 123.599 47.6565C123.604 47.5919 123.593 47.5269 123.568 47.4675C123.092 46.3038 122.789 45.0767 122.669 43.8253Z" fill="black"/>
<path d="M165.535 44.9957C165.81 45.1738 166.086 45.3285 166.358 45.4785C166.878 45.726 167.352 46.0623 167.757 46.4723C167.793 46.5143 167.838 46.5481 167.889 46.5712C167.94 46.5944 167.995 46.6065 168.05 46.6066C168.12 46.606 168.188 46.5872 168.249 46.552C168.943 46.1433 169.667 45.7881 170.414 45.4895C170.494 45.4575 170.56 45.4005 170.604 45.3271C170.648 45.2538 170.666 45.1681 170.657 45.0832C170.5 43.677 170.444 42.2145 170.392 40.7973C170.353 39.7754 170.314 38.7535 170.236 37.7551C170.228 37.5863 170.21 37.4082 170.192 37.227C170.184 37.1468 170.152 37.071 170.099 37.0099C170.047 36.9487 169.977 36.905 169.899 36.8848C169.829 36.87 169.762 36.8458 169.699 36.8129C169.202 36.6492 168.671 36.6196 168.16 36.727C168.035 36.7379 167.925 36.7488 167.847 36.752C167.416 36.8391 166.968 36.7562 166.597 36.5207C166.458 36.3896 166.373 36.2113 166.358 36.0207C166.351 35.8196 166.297 35.6228 166.202 35.4457C166.167 35.3779 166.14 35.306 166.122 35.2316C166.122 35.1879 166.11 35.1082 166.103 35.0113C166.053 34.3098 165.997 33.8363 165.674 33.6691C165.614 33.6368 165.561 33.5933 165.517 33.541C165.482 33.4957 165.437 33.4589 165.385 33.4335C165.333 33.408 165.277 33.3946 165.219 33.3941C164.877 33.3941 164.617 33.3848 164.503 33.3738C164.463 33.3611 164.421 33.3543 164.378 33.3535C164.276 33.3535 164.177 33.3938 164.104 33.4657C164.031 33.5376 163.989 33.6354 163.988 33.7379C163.975 34.6348 163.897 35.5441 163.822 36.4238C163.739 37.3957 163.652 38.4004 163.652 39.4113V40.0848C163.616 41.9566 163.594 43.7238 165.535 44.9957Z" fill="black"/>
<path d="M173.927 33.5082C173.947 33.5936 173.996 33.6697 174.065 33.7241C174.134 33.7785 174.219 33.8082 174.307 33.8082H174.352C174.403 33.8024 174.453 33.7865 174.497 33.7612C174.542 33.736 174.582 33.702 174.613 33.6613C175.628 33.4777 176.657 33.3826 177.688 33.377C178.135 33.377 178.566 33.377 179.002 33.3895C179.361 33.3895 179.724 33.402 180.146 33.402C180.232 33.4203 180.322 33.4088 180.4 33.3693C180.479 33.3298 180.542 33.2648 180.579 33.1848C180.8 32.7153 181.061 32.2657 181.36 31.841C181.4 31.7818 181.423 31.7127 181.427 31.6412C181.431 31.5698 181.415 31.4986 181.381 31.4355C181.347 31.3724 181.297 31.3198 181.235 31.2833C181.174 31.2468 181.103 31.2279 181.032 31.2285L179.615 31.2567C178.566 31.2817 177.519 31.3067 176.468 31.2942C176.08 31.2942 175.686 31.2942 175.302 31.2817C174.918 31.2692 174.521 31.2692 174.125 31.2692C174.068 31.2695 174.01 31.2826 173.958 31.3075C173.906 31.3324 173.86 31.3685 173.823 31.4132C173.786 31.458 173.76 31.5103 173.746 31.5664C173.732 31.6225 173.73 31.6811 173.741 31.7379C173.78 31.9777 173.802 32.22 173.807 32.4629C173.812 32.8145 173.852 33.1647 173.927 33.5082Z" fill="black"/>
<path d="M171.216 34.5019C171.18 36.6092 171.333 38.7156 171.672 40.7957C171.77 41.5624 171.793 42.3369 171.741 43.1082C171.724 43.5863 171.708 44.066 171.724 44.5425C171.726 44.6008 171.741 44.6578 171.768 44.7095C171.795 44.7611 171.833 44.806 171.88 44.841C171.926 44.8759 171.98 44.9002 172.037 44.912C172.094 44.9239 172.153 44.9231 172.21 44.9097C174.218 44.394 176.325 44.4048 178.328 44.941C182.029 45.7627 185.395 47.6836 187.985 50.4519C188.021 50.4969 188.068 50.5331 188.12 50.558C188.172 50.5828 188.23 50.5957 188.288 50.5957C188.341 50.5958 188.395 50.5852 188.444 50.5644C188.522 50.531 188.587 50.4729 188.629 50.3989C188.671 50.325 188.688 50.2393 188.677 50.155C188.461 48.5081 188.346 47.2363 188.303 46.0331C188.249 44.3003 188.285 42.5347 188.319 40.8285C188.367 38.43 188.417 35.9503 188.221 33.4925C188.213 33.3947 188.168 33.3034 188.096 33.2368C188.024 33.1702 187.93 33.1332 187.831 33.1332C187.377 33.1332 186.922 33.1332 186.48 33.1332H185.828C185.34 33.1547 184.854 33.0425 184.425 32.8088C183.995 32.575 183.637 32.2285 183.389 31.8066C183.353 31.7582 183.306 31.7189 183.251 31.6917C183.197 31.6646 183.137 31.6505 183.077 31.6503C182.972 31.6097 182.835 31.7097 182.764 31.8066C182.43 32.2842 182.131 32.785 181.867 33.305C181.73 33.5613 181.592 33.8175 181.442 34.0753C181.347 34.2575 181.188 34.3978 180.996 34.4691C180.167 34.6339 179.318 34.6682 178.478 34.5707C177.844 34.5176 177.206 34.5129 176.571 34.5566C175.431 34.7708 174.257 34.7054 173.149 34.366C172.816 34.2191 172.797 33.7503 172.802 33.0519C172.849 32.5797 172.779 32.1032 172.599 31.6644C172.568 31.5719 172.514 31.4893 172.44 31.4254C172.367 31.3616 172.277 31.3189 172.182 31.3019C172.074 31.3011 171.967 31.3229 171.869 31.366C171.77 31.4091 171.682 31.4724 171.61 31.5519C171.177 32.3659 171.038 33.3036 171.214 34.2082C171.216 34.3363 171.216 34.4394 171.216 34.5019Z" fill="black"/>
<path d="M167.064 34.1503C167.109 34.5654 167.215 34.9718 167.377 35.3566V35.3675L167.418 35.4659C167.449 35.5332 167.499 35.5901 167.561 35.63C167.624 35.6699 167.696 35.691 167.771 35.6909C167.955 35.6909 168.146 35.68 168.327 35.6691C168.483 35.6597 168.619 35.6503 168.746 35.6503H168.924C169.157 35.6503 169.393 35.6503 169.605 35.6675C169.662 35.6745 169.72 35.668 169.775 35.6484C169.829 35.6289 169.878 35.5969 169.918 35.555C169.959 35.5149 169.991 35.466 170.011 35.4119C170.031 35.3578 170.038 35.2999 170.033 35.2425C170 34.7925 169.985 34.3441 169.985 33.8941C169.984 33.8043 169.953 33.7174 169.896 33.6479C169.839 33.5785 169.76 33.5308 169.672 33.5128C168.912 33.4274 168.148 33.3914 167.383 33.405C167.322 33.4117 167.264 33.4317 167.212 33.4635C167.16 33.4954 167.115 33.5384 167.082 33.5894C167.046 33.6442 167.022 33.7058 167.011 33.7704C167.001 33.835 167.004 33.9011 167.021 33.9644C167.041 34.0248 167.056 34.0871 167.064 34.1503Z" fill="black"/>
<path d="M110.633 35.6786C110.823 35.7076 111.016 35.7218 111.208 35.7207C111.758 35.7035 112.306 35.6413 112.846 35.5348C113.324 35.4389 113.809 35.3819 114.296 35.3645H116.825C117.125 35.3645 117.43 35.3645 117.733 35.3536C118.478 35.3269 119.224 35.341 119.968 35.3957C120.042 35.402 120.116 35.3873 120.182 35.3533C120.248 35.3194 120.303 35.2674 120.341 35.2036C120.378 35.1395 120.397 35.0661 120.394 34.9919C120.391 34.9177 120.367 34.8459 120.325 34.7848C120.036 34.3429 119.657 33.967 119.213 33.6817C119.128 33.6308 119.058 33.5586 119.01 33.4723C118.978 33.4056 118.927 33.3505 118.862 33.3146C118.798 33.2787 118.724 33.2639 118.65 33.2723C118.284 33.289 117.919 33.3261 117.557 33.3832C116.561 33.4949 115.558 33.508 114.56 33.4223C113.275 33.2902 111.978 33.3503 110.711 33.6004C110.644 33.6003 110.578 33.6177 110.519 33.6508C110.461 33.684 110.412 33.7317 110.377 33.7895C110.26 34.0387 110.194 34.3085 110.183 34.5834C110.171 34.8583 110.213 35.1328 110.308 35.3911C110.328 35.4659 110.369 35.5333 110.427 35.5846C110.485 35.6358 110.557 35.6685 110.633 35.6786Z" fill="black"/>
<path d="M95.5989 51.041C97.4848 51.5582 99.4208 52.0426 101.296 52.5082C103.308 53.0114 105.39 53.5301 107.418 54.0957C111.912 55.2769 116.549 55.8218 121.194 55.7145H121.396C125.199 55.7145 129.116 55.5582 132.49 55.4114C132.593 55.4184 132.695 55.384 132.774 55.3157C132.852 55.2475 132.9 55.1509 132.907 55.0473C132.914 54.9437 132.879 54.8415 132.811 54.7633C132.743 54.6851 132.646 54.6372 132.543 54.6301L130.916 54.327C127.824 53.7536 124.666 53.3223 121.604 52.9067C120.138 52.7082 118.672 52.5082 117.208 52.2942C116.427 52.1801 115.658 52.0739 114.89 51.9645C111.647 51.5114 108.585 51.0832 105.44 50.3348C104.632 50.1457 103.782 50.0223 102.96 49.9114C101.81 49.7874 100.674 49.5573 99.5661 49.2239L99.313 49.1348C98.188 48.7301 95.8505 47.8848 95.027 49.6145C94.9234 49.782 94.8631 49.9728 94.8516 50.1695C94.8402 50.3662 94.8779 50.5626 94.9614 50.7411C95.0333 50.8412 95.1296 50.9214 95.2412 50.9739C95.3527 51.0264 95.4759 51.0495 95.5989 51.041Z" fill="black"/>
<path d="M149.046 57.4613L149.975 57.6394C150.471 57.6488 150.971 57.6675 151.471 57.6847L152.274 57.7128H152.285C152.379 57.713 152.471 57.6788 152.542 57.6168C152.613 57.5547 152.659 57.4689 152.672 57.3753C152.729 56.9555 152.877 56.5532 153.107 56.1972C153.141 56.1604 153.171 56.1188 153.194 56.0738C153.223 56.0143 153.236 55.9485 153.232 55.8827C153.228 55.8168 153.208 55.753 153.173 55.6972C153.137 55.6413 153.089 55.5953 153.031 55.5633C152.973 55.5313 152.909 55.5145 152.843 55.5144C152.325 55.5144 151.799 55.5144 151.28 55.5238C150.3 55.5483 149.322 55.6386 148.354 55.7941L147.849 55.8628C147.716 55.88 147.505 55.8863 147.293 55.8925C146.572 55.9144 146.175 55.9253 146.125 56.3331C146.075 56.741 146.527 56.8706 146.922 56.9847C147.622 57.1795 148.33 57.3386 149.046 57.4613Z" fill="black"/>
<path d="M144.855 56.38C144.846 56.2824 144.802 56.1914 144.729 56.1252C144.657 56.059 144.562 56.0222 144.464 56.0222H144.455C143.216 56.055 141.98 56.0956 140.744 56.1347C137.236 56.2488 133.616 56.3613 130.021 56.3331C127.897 56.3222 125.694 56.4816 123.582 56.6457C120.556 56.9665 117.508 57.0251 114.472 56.8207C111.386 56.426 108.338 55.7763 105.36 54.8785C103.578 54.3956 101.738 53.8957 99.93 53.5175C99.5238 53.4332 99.0894 53.3613 98.6472 53.2847C97.0981 53.1873 95.6059 52.6645 94.3347 51.7738C94.2717 51.7137 94.1904 51.6764 94.1038 51.6678C94.0172 51.6592 93.9302 51.6798 93.8566 51.7263C93.783 51.7728 93.727 51.8425 93.6976 51.9244C93.6681 52.0064 93.6669 52.0958 93.6941 52.1785C94.3108 53.9914 95.0575 55.7574 95.9285 57.4628C96.3785 58.3753 99.0222 58.9613 102.43 59.6316C103.385 59.8191 104.208 59.9816 104.527 60.1003C108.46 61.6015 112.586 62.5374 116.782 62.88C126.596 61.955 136.65 61.5769 146.371 61.2113L148.993 61.1128C149.044 61.1105 149.095 61.098 149.142 61.076C149.189 61.054 149.231 61.023 149.266 60.9847C149.301 60.9465 149.329 60.9014 149.346 60.8522C149.364 60.8031 149.371 60.7508 149.368 60.6988L149.341 60.1753C149.324 59.7503 149.305 59.3222 149.247 58.8941C149.235 58.8112 149.197 58.7342 149.138 58.6744C149.08 58.6146 149.003 58.575 148.921 58.5613L148.593 58.5097C147.312 58.4862 146.081 58.0089 145.119 57.1628C144.96 56.9316 144.868 56.6605 144.855 56.38Z" fill="black"/>
<path d="M53.8987 46.6316C53.9654 46.6802 54.0458 46.7064 54.1284 46.7066C54.1687 46.7067 54.2088 46.7003 54.2471 46.6879C55.5168 46.2559 56.8248 45.9462 58.1534 45.7629H58.2581C58.3617 45.7691 58.4635 45.7339 58.5411 45.665C58.6188 45.5962 58.6659 45.4993 58.6721 45.3957C58.6783 45.2921 58.6431 45.1903 58.5743 45.1126C58.5054 45.035 58.4085 44.9879 58.3049 44.9816C56.7845 44.8694 55.2643 45.2022 53.9299 45.9395C53.8662 45.9722 53.8129 46.022 53.7756 46.0832C53.7384 46.1444 53.7188 46.2147 53.719 46.2863C53.7218 46.3615 53.7427 46.435 53.7799 46.5004C53.8093 46.5524 53.8498 46.5973 53.8987 46.6316Z" fill="black"/>
<path d="M97.3674 47.5192C97.4549 47.527 97.5424 47.541 97.6174 47.5535L99.3206 47.8957C101.002 48.2317 102.741 48.5785 104.46 48.9895C105.419 49.1935 106.388 49.3463 107.363 49.4473C108.689 49.5536 109.999 49.8073 111.269 50.2035C114.308 51.1765 117.472 51.7029 120.663 51.766C123.096 51.8629 125.516 52.1682 127.897 52.6785C132.171 53.7449 136.527 54.4499 140.919 54.7863H140.946C141.032 54.7863 141.115 54.7578 141.184 54.7053C141.252 54.6528 141.301 54.5792 141.323 54.496C141.345 54.4127 141.339 54.3246 141.306 54.2451C141.273 54.1657 141.214 54.0994 141.139 54.0566C140.966 53.9582 140.812 53.829 140.685 53.6754C140.627 53.6043 140.546 53.5556 140.457 53.5379C138.899 53.2017 137.361 52.7786 135.85 52.2707C133.788 51.5409 131.655 51.0277 129.486 50.7395C125.882 50.2802 122.318 49.5484 118.825 48.5504C116.684 48.0698 114.494 47.8448 112.3 47.8801C110.601 47.8843 108.904 47.761 107.224 47.5113L107.067 47.4832C103.879 46.8051 100.615 46.555 97.3612 46.7395C97.2576 46.7413 97.159 46.7843 97.087 46.8589C97.0151 46.9334 96.9757 47.0335 96.9776 47.1371C96.9795 47.2407 97.0224 47.3393 97.097 47.4113C97.1716 47.4832 97.2717 47.5226 97.3753 47.5207L97.3674 47.5192Z" fill="black"/>
<path d="M108.913 43.2081C111.325 43.3816 113.913 43.6769 117.049 44.1456H117.105C117.193 44.1453 117.279 44.1156 117.349 44.0613C117.391 44.0277 117.425 43.9858 117.45 43.9382C117.475 43.8906 117.49 43.8383 117.494 43.7847C117.51 43.5925 117.524 43.4019 117.554 43.2253C117.671 42.5753 118.722 42.5363 119.921 42.5597C120.203 42.5709 120.485 42.5662 120.766 42.5456C120.896 42.5284 121.043 42.5034 121.204 42.4769C121.502 42.4269 121.849 42.3691 122.194 42.3441C122.255 42.3308 122.312 42.3044 122.361 42.2666C122.41 42.2287 122.45 42.1805 122.479 42.1253C122.509 42.0664 122.527 42.0017 122.531 41.9355C122.535 41.8692 122.524 41.8029 122.5 41.7409C122.368 41.2722 122.241 40.6909 122.102 40.055C121.885 38.9712 121.612 37.8995 121.283 36.8441C121.251 36.7477 121.183 36.6676 121.093 36.6204C121.003 36.5733 120.898 36.5627 120.8 36.5909C120.717 36.6169 120.629 36.6169 120.546 36.5909C119.216 36.3698 117.864 36.3173 116.521 36.4347C115.28 36.4894 114.11 36.5003 112.979 36.6378C112.368 36.7238 111.753 36.7734 111.136 36.7863C111.103 36.7909 111.069 36.7909 111.036 36.7863C110.98 36.786 110.924 36.798 110.873 36.8214C110.822 36.8447 110.777 36.8789 110.74 36.9215C110.703 36.9642 110.676 37.0142 110.661 37.0683C110.645 37.1223 110.642 37.1791 110.65 37.2347C110.729 37.7613 110.785 38.1409 111.13 38.1847C111.631 38.266 112.137 38.3046 112.644 38.3003C113.407 38.2479 114.169 38.396 114.857 38.73C114.921 38.7615 114.978 38.8074 115.022 38.8643C115.066 38.9212 115.097 38.9875 115.111 39.0581C115.123 39.1468 115.115 39.237 115.088 39.3222C115.061 39.4075 115.015 39.4859 114.955 39.5519C114.894 39.6225 114.86 39.713 114.86 39.8066V40.7722C114.877 40.8896 114.852 41.0093 114.788 41.1095C114.724 41.2096 114.627 41.2835 114.513 41.3175C113.715 41.558 112.876 41.632 112.049 41.5347C111.188 41.4503 110.319 41.5121 109.479 41.7175C109.392 41.743 109.316 41.7983 109.266 41.8738L109.182 42.005C109.136 42.082 109.086 42.1566 109.033 42.2284C108.93 42.3206 108.807 42.4206 108.691 42.5144C108.63 42.5637 108.585 42.6303 108.562 42.7055C108.54 42.7807 108.54 42.861 108.564 42.9359C108.587 43.0108 108.633 43.0768 108.695 43.1254C108.756 43.174 108.831 43.2028 108.91 43.2081H108.913Z" fill="black"/>
<path d="M11.5957 62.027C11.9941 62.0645 12.3926 62.1067 12.7926 62.1488C13.6129 62.2363 14.4332 62.3223 15.2457 62.3707H15.2785C15.3384 62.3708 15.3975 62.3571 15.4512 62.3307C15.5049 62.3044 15.5519 62.266 15.5884 62.2186C15.625 62.1711 15.6501 62.116 15.662 62.0573C15.6738 61.9986 15.672 61.938 15.6566 61.8801L15.5723 61.5989C15.5723 61.5832 15.5629 61.5317 15.5566 61.516C15.539 61.4316 15.4941 61.3553 15.4289 61.2989C15.3637 61.2424 15.2818 61.2089 15.1957 61.2035C14.541 61.1614 13.8848 61.1207 13.2223 61.1207C13.066 61.1207 12.3176 61.1707 11.5957 61.2535C11.4921 61.2535 11.3927 61.2947 11.3195 61.368C11.2462 61.4412 11.2051 61.5406 11.2051 61.6442C11.2051 61.7478 11.2462 61.8471 11.3195 61.9204C11.3927 61.9936 11.4921 62.0348 11.5957 62.0348V62.027Z" fill="black"/>
<path d="M97.6878 45.6738C98.7464 45.6679 99.8046 45.7169 100.858 45.8207C101.238 45.8504 101.605 45.8801 101.952 45.902C103.638 46.016 105.321 46.1566 107.003 46.2957C109.541 46.5082 112.16 46.7254 114.76 46.8441C115.583 46.8832 116.478 46.9566 117.503 47.0723H117.547C117.61 47.0722 117.672 47.0571 117.727 47.0282C117.783 46.9992 117.831 46.9573 117.867 46.906C117.903 46.8546 117.926 46.7954 117.934 46.7332C117.942 46.671 117.936 46.6078 117.914 46.5488C117.803 46.2352 117.715 45.9141 117.65 45.5879C117.635 45.5086 117.596 45.436 117.537 45.38C117.479 45.3241 117.405 45.2875 117.325 45.2754C114.132 44.8066 110.628 44.4426 106.613 44.1816C105.688 44.1238 104.738 44.116 103.836 44.1098C102.683 44.1004 101.492 44.091 100.344 43.977L99.8253 43.9254C98.4925 43.7832 98.0346 43.7988 97.3346 45.0895C97.3019 45.1497 97.2856 45.2175 97.2872 45.286C97.2889 45.3546 97.3084 45.4215 97.344 45.4801C97.383 45.5362 97.4342 45.5828 97.4937 45.6163C97.5532 45.6499 97.6196 45.6695 97.6878 45.6738Z" fill="black"/>
<path d="M137.744 49.8097C136.775 49.6988 135.808 49.5879 134.764 49.4472C131.758 49.0472 127.214 48.4394 125.094 46.2019C125.033 46.1372 124.951 46.0956 124.862 46.084C124.774 46.0724 124.684 46.0915 124.607 46.1381C124.531 46.1847 124.473 46.256 124.443 46.3401C124.413 46.4242 124.413 46.5161 124.443 46.6004C124.62 47.2015 124.925 47.7573 125.336 48.23C125.388 48.2851 125.43 48.3485 125.461 48.4175C125.487 48.4673 125.522 48.511 125.566 48.5458C125.61 48.5805 125.66 48.6055 125.714 48.6191C126.432 48.7972 127.139 48.9769 127.814 49.1722C128.68 49.4191 129.557 49.6785 130.443 49.9394C133.931 51.0699 137.501 51.9318 141.121 52.5175H141.172C141.221 52.5173 141.269 52.5083 141.314 52.491C142.518 52.0112 143.8 51.7564 145.096 51.7394C145.191 51.7388 145.283 51.7032 145.354 51.6395C145.425 51.5759 145.47 51.4884 145.481 51.3937C145.492 51.2989 145.468 51.2035 145.413 51.1253C145.359 51.047 145.277 50.9915 145.185 50.9691C142.73 50.4345 140.245 50.0474 137.744 49.8097Z" fill="black"/>
<path d="M177.818 57.1379C177.989 57.4061 178.119 57.6984 178.203 58.0051C178.226 58.0879 178.275 58.1611 178.343 58.2134C178.411 58.2656 178.494 58.294 178.58 58.2942H179.949L179.991 58.3082C180.046 58.3364 180.107 58.3514 180.169 58.352C180.247 58.3523 180.323 58.3289 180.388 58.2848C180.445 58.246 180.492 58.1925 180.522 58.1299C180.551 58.0672 180.564 57.9977 180.558 57.9285C180.452 56.7928 179.993 55.7187 179.246 54.8567C179.202 54.8054 179.145 54.7665 179.081 54.7437C179.017 54.721 178.949 54.7151 178.882 54.7268C178.816 54.7384 178.753 54.7672 178.701 54.8102C178.649 54.8533 178.609 54.9091 178.585 54.9723C178.498 55.2008 178.397 55.4236 178.283 55.6395C178.255 55.691 178.219 55.7457 178.182 55.8035C178.035 55.9908 177.939 56.2133 177.905 56.4489C177.898 56.549 177.866 56.6457 177.811 56.7301C177.774 56.7919 177.755 56.8629 177.756 56.9349C177.757 57.0069 177.779 57.0772 177.818 57.1379Z" fill="black"/>
<path d="M179.949 59.1503H178.543C178.465 59.1506 178.389 59.1739 178.325 59.2172C178.261 59.2605 178.211 59.3219 178.181 59.3937C178.152 59.4654 178.144 59.5442 178.16 59.6202C178.175 59.6962 178.213 59.766 178.268 59.8206L178.557 60.0894C178.628 60.1691 178.697 60.2535 178.766 60.3363C178.896 60.5083 179.045 60.6655 179.21 60.805C179.247 60.859 179.297 60.9032 179.355 60.9342C179.413 60.9652 179.477 60.982 179.543 60.9831C179.608 60.9832 179.672 60.9667 179.73 60.9353C179.787 60.9039 179.835 60.8586 179.871 60.8034C180.103 60.4397 180.282 60.0445 180.402 59.63C180.412 59.5701 180.408 59.5087 180.391 59.4505C180.373 59.3923 180.343 59.3388 180.302 59.2941C180.257 59.2462 180.202 59.2085 180.141 59.1837C180.08 59.1589 180.015 59.1475 179.949 59.1503Z" fill="black"/>
<path d="M176.141 55.5348C176.168 55.608 176.21 55.6749 176.263 55.7316C176.317 55.7883 176.382 55.8335 176.453 55.8645C176.514 55.9001 176.583 55.919 176.653 55.9192C176.729 55.9188 176.803 55.8968 176.866 55.8559C176.93 55.8149 176.98 55.7566 177.011 55.6879C177.067 55.5534 177.134 55.4238 177.211 55.3004C177.401 55.0014 177.545 54.676 177.639 54.3348C177.656 54.2638 177.687 54.1969 177.73 54.1379C177.763 54.0921 177.787 54.0395 177.798 53.9838C177.809 53.9281 177.808 53.8706 177.794 53.8155C177.781 53.7603 177.755 53.7087 177.72 53.6642C177.685 53.6198 177.64 53.5836 177.589 53.5582C177.169 53.3456 176.719 53.2001 176.253 53.127C176.198 53.1201 176.141 53.1248 176.087 53.141C176.033 53.1571 175.984 53.1843 175.941 53.2207C175.898 53.2584 175.864 53.3051 175.841 53.3575C175.818 53.4099 175.807 53.4667 175.808 53.5239C175.799 54.2022 175.911 54.8767 176.138 55.516L176.141 55.5348Z" fill="black"/>
<path d="M165.518 59.3551C165.44 53.6582 168.863 48.4035 173.655 46.8551C173.748 46.8251 173.827 46.7614 173.876 46.6763C173.924 46.5913 173.939 46.4912 173.918 46.3957C173.895 46.3009 173.837 46.2178 173.757 46.1625C173.677 46.1071 173.579 46.0834 173.482 46.0957C170.586 46.4454 167.875 47.7035 165.738 49.6895C162.072 53.2832 161.979 58.8504 163.113 62.8504C163.464 63.8266 164.022 64.7158 164.747 65.4577C165.472 66.1996 166.348 66.7769 167.316 67.1504C167.369 67.1748 167.427 67.1876 167.485 67.1879C167.567 67.188 167.648 67.1618 167.715 67.1129L167.838 67.0192C167.887 66.9782 167.939 66.9416 167.994 66.9098C168.045 66.8825 168.089 66.844 168.124 66.7972C168.158 66.7504 168.181 66.6965 168.191 66.6395C168.202 66.5826 168.199 66.5241 168.184 66.4681C168.169 66.4122 168.142 66.3603 168.105 66.316C166.459 64.3676 165.544 61.9059 165.518 59.3551Z" fill="black"/>
<path d="M162.735 51.1942C162.799 51.1943 162.861 51.1786 162.918 51.1487C162.974 51.1187 163.022 51.0753 163.058 51.0223C163.355 50.5707 163.699 50.1517 164.085 49.7723C164.25 49.616 164.414 49.4598 164.586 49.3035C164.641 49.2538 164.681 49.1893 164.701 49.1176C164.721 49.0459 164.72 48.97 164.698 48.899C164.676 48.828 164.634 48.7648 164.577 48.7168C164.52 48.6689 164.451 48.6383 164.377 48.6285C161.265 48.1573 158.196 47.433 155.202 46.4629C155.139 46.4436 155.073 46.4402 155.009 46.4531C154.945 46.466 154.885 46.4948 154.835 46.5367C154.785 46.5787 154.747 46.6326 154.723 46.6934C154.699 46.7542 154.691 46.82 154.699 46.8848L154.736 47.1629C154.838 47.7447 154.862 48.3372 154.81 48.9254C154.74 49.3792 154.632 49.8261 154.486 50.2614C154.469 50.3205 154.465 50.383 154.476 50.4438C154.487 50.5046 154.512 50.562 154.549 50.6114C154.585 50.6601 154.632 50.6996 154.686 50.7267C154.741 50.7538 154.801 50.7679 154.861 50.7676C157.324 50.7065 159.787 50.8408 162.228 51.1692L162.697 51.1942H162.735Z" fill="black"/>
<path d="M161.5 62.0003C160.161 62.0003 158.844 61.9597 157.553 61.9253C155.574 61.8738 153.705 61.8253 151.772 61.8691C151.684 61.8712 151.599 61.9033 151.531 61.96C151.463 62.0168 151.416 62.0949 151.399 62.1816C151.382 62.5512 151.393 62.9216 151.433 63.2894L151.497 63.9863C151.508 64.0821 151.553 64.1707 151.625 64.2351C151.697 64.2994 151.79 64.3349 151.886 64.3347C154.622 64.2816 158.219 64.1785 161.777 63.916C161.834 63.9119 161.889 63.8955 161.939 63.8679C161.988 63.8404 162.031 63.8022 162.065 63.7563C162.098 63.7103 162.121 63.6575 162.132 63.6017C162.143 63.5459 162.142 63.4884 162.128 63.4332C162.038 63.0691 161.95 62.6957 161.869 62.3082C161.85 62.2232 161.804 62.1469 161.737 62.0912C161.671 62.0355 161.587 62.0035 161.5 62.0003Z" fill="black"/>
<path d="M157.841 57.8629C158.88 57.8629 159.95 57.8395 161.013 57.7785C161.112 57.7722 161.206 57.7284 161.274 57.6559C161.343 57.5834 161.381 57.4876 161.381 57.3879C161.381 56.941 161.406 56.4504 161.461 55.8864C161.467 55.8311 161.461 55.7754 161.443 55.7228C161.425 55.6702 161.396 55.622 161.358 55.5815C161.32 55.5409 161.274 55.5089 161.223 55.4877C161.172 55.4664 161.117 55.4564 161.061 55.4582C159.125 55.5176 157.155 55.516 155.464 55.5067C155.377 55.5066 155.291 55.5359 155.222 55.59C155.153 55.6441 155.104 55.7199 155.083 55.8051C155.074 55.8879 155.035 55.9644 154.972 56.0192C154.821 56.1433 154.658 56.2517 154.485 56.3426C154.383 56.3924 154.294 56.4658 154.227 56.5567L154.164 56.6301C153.997 56.8206 153.874 57.0457 153.803 57.2895C153.787 57.3465 153.784 57.4064 153.795 57.4648C153.805 57.5231 153.829 57.5783 153.864 57.6262C153.899 57.674 153.944 57.7134 153.996 57.7411C154.049 57.7689 154.107 57.7843 154.166 57.7863C155.299 57.8317 156.547 57.8629 157.841 57.8629Z" fill="black"/>
<path d="M161.811 52.2566C160.458 52.1941 159.105 52.166 157.749 52.1394C155.924 52.1019 154.038 52.0644 152.164 51.9363L151.557 51.9456C151.139 51.9456 150.722 51.9597 150.307 51.9597C148.103 52.0407 145.912 52.3412 143.768 52.8566C143.679 52.8784 143.6 52.9307 143.546 53.0044C143.492 53.0781 143.465 53.1684 143.471 53.2597C143.477 53.351 143.514 53.4375 143.577 53.504C143.64 53.5705 143.724 53.6129 143.814 53.6238C146.213 53.9191 150.074 54.0769 151.129 54.0769H151.263C154.2 54.0285 157.144 53.941 160.083 53.8566L161.546 53.8144C161.629 53.8116 161.709 53.7824 161.775 53.731C161.841 53.6796 161.889 53.6087 161.911 53.5285C161.98 53.28 162.06 53.0285 162.154 52.7863C162.175 52.7285 162.183 52.6664 162.176 52.605C162.169 52.5437 162.148 52.4848 162.114 52.4332C162.082 52.3817 162.037 52.3388 161.984 52.3081C161.932 52.2774 161.872 52.2597 161.811 52.2566Z" fill="black"/>
<path d="M171.825 58.966H171.875C171.977 58.9535 172.075 58.9347 172.174 58.9175C172.309 58.8886 172.446 58.8698 172.583 58.8613C172.638 58.8599 172.693 58.8466 172.742 58.8223C172.792 58.7981 172.836 58.7634 172.871 58.7207C172.906 58.6776 172.932 58.6275 172.947 58.5737C172.962 58.5198 172.965 58.4634 172.957 58.4082C172.929 58.2338 172.929 58.056 172.957 57.8816C172.983 57.716 172.746 57.4878 172.591 57.4128C172.541 57.3798 172.484 57.3584 172.424 57.3503C172.293 57.3332 172.153 57.316 172.013 57.3066C171.919 57.301 171.826 57.3296 171.752 57.387C171.678 57.4445 171.627 57.5269 171.608 57.6191C171.541 57.9316 171.488 58.23 171.452 58.5363C171.445 58.5914 171.45 58.6475 171.466 58.7006C171.482 58.7538 171.509 58.8029 171.546 58.8448C171.583 58.8866 171.628 58.9201 171.678 58.9432C171.729 58.9662 171.784 58.9783 171.839 58.9785L171.825 58.966Z" fill="black"/>
<path d="M177.183 58.5223C177.209 58.3098 177.178 58.0943 177.093 57.8978C177.008 57.7012 176.873 57.5307 176.7 57.4035C176.551 57.2267 176.363 57.0872 176.15 56.9963C175.937 56.9054 175.706 56.8655 175.475 56.88C175.245 56.8944 175.02 56.9627 174.821 57.0794C174.621 57.1961 174.451 57.3579 174.325 57.552C174.199 57.6807 174.114 57.8448 174.084 58.0226C174.053 58.2004 174.076 58.3834 174.152 58.5473C174.26 58.7872 174.432 58.9933 174.648 59.1435C174.864 59.2937 175.117 59.3825 175.38 59.4004C175.5 59.3998 175.616 59.447 175.702 59.5317C175.774 59.5947 175.866 59.6297 175.961 59.6301C176.012 59.6296 176.063 59.6195 176.11 59.6004C176.365 59.5252 176.597 59.387 176.784 59.1986C176.972 59.0102 177.109 58.7776 177.183 58.5223Z" fill="black"/>
<path d="M178.074 47.4879C177.917 47.4879 177.761 47.4879 177.605 47.4973C174.75 47.5825 172.037 48.7616 170.027 50.7906C168.017 52.8197 166.864 55.5436 166.805 58.3991C166.747 61.2546 167.788 64.0233 169.713 66.1329C171.639 68.2424 174.301 69.5313 177.15 69.7332C179.063 69.639 180.933 69.1404 182.639 68.2705C184.345 67.4006 185.846 66.179 187.046 64.6863C187.949 63.5404 188.583 62.2063 188.902 60.7824C189.22 59.3586 189.215 57.8813 188.886 56.4598C188.4 53.9445 187.056 51.6757 185.085 50.0398C183.113 48.4038 180.636 47.502 178.074 47.4879ZM182.605 63.8848C182.571 63.9065 182.539 63.9311 182.51 63.9582C182.483 63.9816 182.454 64.003 182.424 64.0223C180.883 65.0285 177.98 66.5863 175.771 65.6832C174.375 65.196 173.083 64.4543 171.958 63.4957C171.896 63.4587 171.847 63.4044 171.816 63.3395C171.801 63.3066 171.782 63.2761 171.758 63.2488C171.538 63.0037 171.353 62.7286 171.21 62.4317C169.722 59.1863 170.082 54.6613 173.255 52.7067C174.775 51.8314 176.501 51.3768 178.255 51.3895C179.322 51.3179 180.389 51.5129 181.362 51.957C182.334 52.4011 183.181 53.0802 183.825 53.9332C184.929 55.4345 185.418 57.3006 185.192 59.1502C184.966 60.9998 184.042 62.6933 182.61 63.8848H182.605Z" fill="black"/>
<path d="M183.199 54.952C182.347 53.8093 181.114 53.009 179.724 52.6957C179.638 52.6715 179.547 52.6777 179.465 52.7133C179.383 52.7489 179.316 52.8117 179.275 52.891C179.234 52.9701 179.221 53.0609 179.238 53.1485C179.255 53.236 179.302 53.315 179.371 53.3723C180.428 54.2831 181.165 55.5086 181.474 56.8691C181.783 58.2296 181.649 59.6534 181.089 60.9316C180.342 62.2808 179.12 63.3047 177.661 63.8051C177.577 63.8388 177.508 63.9008 177.464 63.9802C177.421 64.0597 177.406 64.1518 177.423 64.2408C177.44 64.3298 177.488 64.4101 177.557 64.468C177.627 64.5259 177.715 64.5578 177.805 64.5582H177.832C179.28 64.4185 180.668 63.9066 181.86 63.0723C183.044 62.1215 183.836 60.7669 184.083 59.2683C184.33 57.7697 184.015 56.2327 183.199 54.952Z" fill="black"/>
<path d="M191.968 47.2519C191.62 45.3021 191.539 43.3142 191.725 41.3426C191.766 40.4863 191.807 39.6363 191.807 38.8004V34.2941C191.807 33.7691 191.772 33.1894 191.349 32.9269C190.925 32.6644 190.411 32.8629 189.896 33.1144C189.846 33.1144 189.794 33.1144 189.739 33.1144C189.679 33.1106 189.619 33.1198 189.563 33.1414C189.506 33.1629 189.455 33.1964 189.413 33.2394C189.376 33.2793 189.348 33.3265 189.331 33.3779C189.313 33.4293 189.307 33.4838 189.311 33.5379C189.501 36.403 189.546 39.276 189.446 42.1457C189.421 43.4457 189.396 44.7457 189.399 46.0426C189.455 48.1628 189.673 50.2757 190.05 52.3629C190.207 53.3472 190.363 54.3316 190.475 55.3316C190.485 55.4137 190.52 55.4906 190.576 55.5511C190.633 55.6115 190.707 55.6524 190.788 55.6676C190.812 55.6725 190.836 55.6751 190.86 55.6754C190.93 55.6754 191 55.6563 191.06 55.6199C191.121 55.5836 191.17 55.5315 191.204 55.4691C192.415 52.9046 192.685 49.9958 191.968 47.2519Z" fill="black"/>
<path d="M52.5332 49.2097C52.73 49.3206 52.9097 49.4425 53.1175 49.58C53.1854 49.6254 53.2658 49.6484 53.3474 49.6456C53.429 49.6428 53.5077 49.6144 53.5722 49.5644C54.1486 49.016 54.8764 48.6535 55.6613 48.5238C55.9939 48.5857 56.3053 48.7314 56.566 48.9472C56.6675 49.0175 56.7675 49.0863 56.8582 49.1425C57.0035 49.2363 57.1566 49.3159 57.3082 49.3956C57.4626 49.4721 57.6123 49.5577 57.7566 49.6519C57.8657 49.7104 57.962 49.7902 58.0399 49.8865C58.1177 49.9829 58.1754 50.0938 58.2097 50.2128C58.215 50.3409 58.1948 50.4687 58.1503 50.5888C58.1058 50.709 58.0378 50.8191 57.9503 50.9128C57.9068 50.9709 57.8803 51.0399 57.8738 51.1121C57.8673 51.1844 57.881 51.257 57.9135 51.3219C57.9459 51.3868 57.9958 51.4413 58.0575 51.4795C58.1192 51.5176 58.1903 51.5378 58.2628 51.5378C58.2982 51.5376 58.3334 51.5329 58.3675 51.5238C61.85 50.6 65.4452 50.1718 69.0472 50.2519C70.6722 50.2519 72.291 50.2191 73.9113 50.1862C75.5316 50.1534 77.1425 50.1206 78.755 50.1206C79.291 50.1206 79.891 50.1566 80.516 50.1941C82.1271 50.3883 83.7596 50.3048 85.3425 49.9472C85.4226 49.9219 85.4923 49.8714 85.5413 49.8033C85.5903 49.7351 85.6159 49.653 85.6144 49.5691C85.5959 49.2927 85.6362 49.0156 85.7326 48.756C85.829 48.4963 85.9794 48.2601 86.1738 48.0628C87.3285 46.9175 89.9988 46.9878 91.7722 47.0363L92.4535 47.0503C92.5412 47.0484 92.6279 47.0694 92.705 47.1113C92.7761 47.1481 92.8567 47.1626 92.9362 47.1529C93.0156 47.1431 93.0903 47.1095 93.1503 47.0566C93.446 46.7878 93.7786 46.5626 94.1378 46.3878C94.2165 46.3499 94.2801 46.2867 94.3186 46.2083C94.3571 46.13 94.3683 46.041 94.3503 45.9555C94.3323 45.8701 94.2862 45.7932 94.2194 45.737C94.1526 45.6808 94.0688 45.6487 93.9816 45.6456L92.7613 45.6097C89.9647 45.4683 87.1621 45.4975 84.3691 45.6972C84.261 45.714 84.1505 45.6924 84.0566 45.6363C83.9939 45.5917 83.9194 45.5667 83.8425 45.5644C83.5363 45.5576 83.2311 45.5257 82.93 45.4691C82.8679 45.4522 82.8097 45.423 82.759 45.3833C82.7083 45.3436 82.666 45.2941 82.6347 45.2378C82.5936 45.1713 82.5661 45.0972 82.5541 45.0199C82.542 44.9426 82.5455 44.8637 82.5644 44.7878C82.5855 44.7167 82.6205 44.6505 82.6673 44.5931C82.7142 44.5356 82.7721 44.4881 82.8375 44.4532C82.9029 44.4183 82.9746 44.3967 83.0485 44.3898C83.1223 44.3829 83.1968 44.3907 83.2675 44.4128C83.4809 44.4529 83.6973 44.4749 83.9144 44.4784H83.9269C84.0367 44.4704 84.1397 44.4221 84.2162 44.3428C84.2926 44.2635 84.337 44.1588 84.341 44.0488C84.347 43.9843 84.347 43.9194 84.341 43.855L84.2832 43.5269C84.2718 43.431 84.2238 43.3432 84.1493 43.2818C84.0748 43.2204 83.9795 43.1901 83.8832 43.1972L83.5207 43.2128C82.4863 43.255 81.4644 43.2394 80.2128 43.3691C80.1131 43.3793 80.0212 43.4276 79.956 43.5038C79.8909 43.58 79.8575 43.6783 79.8628 43.7784C79.8667 43.8617 79.8981 43.9414 79.9519 44.005C79.9519 44.0394 79.9628 44.08 79.9691 44.1237C79.9837 44.3294 80.0468 44.5286 80.1535 44.705C80.3185 44.9034 80.5117 45.0766 80.7269 45.2191C80.7704 45.2515 80.8206 45.2739 80.8738 45.2847C80.9269 45.2972 80.9707 45.3456 81.0472 45.5034C81.0807 45.5455 81.1027 45.5955 81.1112 45.6486C81.1197 45.7017 81.1143 45.7561 81.0957 45.8066C81.0843 45.8388 81.0774 45.8724 81.0753 45.9066C81.0566 46.1675 80.9644 46.3753 80.8675 46.3753C80.2516 46.4029 79.6345 46.3641 79.0269 46.2597C78.7898 46.2223 78.5494 46.2103 78.3097 46.2237C78.1071 46.233 77.9042 46.223 77.7035 46.1941C77.5207 46.1273 77.3531 46.0248 77.2104 45.8925C77.0677 45.7602 76.9527 45.6009 76.8722 45.4237C76.8374 45.3637 76.7872 45.3139 76.7268 45.2796C76.6664 45.2453 76.5979 45.2276 76.5285 45.2284H73.3582C73.2972 45.2284 73.1066 45.1988 72.8894 45.1691C71.7238 45.0128 71.6269 45.0003 71.4722 45.3253C71.4175 45.4668 71.3495 45.6029 71.2691 45.7316C71.2097 45.8331 71.1488 45.9378 71.0863 46.0659C71.0541 46.1253 71.0175 46.1823 70.9769 46.2362C70.9339 46.319 70.8698 46.3889 70.791 46.4389C70.7123 46.4888 70.6217 46.517 70.5285 46.5206C68.8155 46.6292 67.0982 46.6496 65.3832 46.5816C63.3666 46.4888 61.346 46.5374 59.3363 46.7269C57.1698 47.0363 55.0413 47.5693 52.9847 48.3175L52.5394 48.4628C52.4693 48.4855 52.407 48.5276 52.3598 48.5841C52.3126 48.6407 52.2823 48.7095 52.2725 48.7825C52.2627 48.8555 52.2738 48.9299 52.3044 48.9969C52.335 49.0639 52.384 49.1209 52.4457 49.1613L52.5332 49.2097Z" fill="black"/>
<path d="M161.168 60.8739H161.18C161.236 60.8735 161.291 60.8612 161.342 60.8378C161.393 60.8144 161.438 60.7803 161.474 60.738C161.511 60.6957 161.538 60.646 161.554 60.5924C161.57 60.5387 161.574 60.4823 161.566 60.427C161.513 60.0567 161.482 59.6785 161.446 59.2317C161.444 59.1803 161.431 59.1299 161.409 59.0836C161.387 59.0373 161.356 58.9961 161.317 58.9625C161.278 58.9289 161.232 58.9037 161.183 58.8884C161.134 58.8732 161.083 58.8682 161.032 58.8738C158.258 59.0488 155.369 58.9379 152.574 58.8317L150.783 58.7692C150.675 58.7734 150.572 58.8148 150.491 58.8863C150.453 58.925 150.423 58.9713 150.404 59.0222C150.385 59.0731 150.377 59.1274 150.38 59.1817L150.4 59.5707C150.416 59.8614 150.432 60.1535 150.455 60.4442C150.463 60.5419 150.508 60.6329 150.58 60.6994C150.652 60.766 150.746 60.8031 150.844 60.8035H150.86C153.091 60.7129 156.757 60.741 161.168 60.8739Z" fill="black"/>
<path d="M173.207 56.5004L173.316 56.5644C173.371 56.5934 173.433 56.6084 173.496 56.6082C173.59 56.6079 173.681 56.5735 173.752 56.5113C174.044 56.2612 174.377 56.063 174.736 55.9254C174.828 55.8895 174.903 55.8203 174.946 55.7317C174.989 55.643 174.996 55.5414 174.967 55.4473C174.807 54.8765 174.721 54.2871 174.713 53.6941C174.71 53.6239 174.688 53.5558 174.65 53.497C174.612 53.4381 174.558 53.3907 174.495 53.3596C174.432 53.3286 174.362 53.3151 174.292 53.3207C174.222 53.3262 174.155 53.3505 174.097 53.391C173.8 53.5908 173.529 53.827 173.291 54.0941C172.883 54.5871 172.539 55.13 172.268 55.7098C172.242 55.7619 172.229 55.8191 172.228 55.8771C172.228 55.9352 172.24 55.9926 172.265 56.0452C172.289 56.0978 172.325 56.1442 172.37 56.181C172.415 56.2179 172.467 56.2443 172.524 56.2582C172.758 56.3174 172.987 56.3985 173.207 56.5004Z" fill="black"/>
<path d="M175.519 62.2347L175.489 62.0785C175.458 61.9035 175.425 61.7269 175.408 61.5472V61.5316C175.408 61.5316 175.392 61.4082 175.389 61.3754C175.391 61.3338 175.384 61.2922 175.369 61.2535C175.351 61.1836 175.316 61.1189 175.269 61.0644C175.23 61.0234 175.182 60.9909 175.13 60.9689C175.078 60.9469 175.021 60.9358 174.964 60.9363C174.88 60.9472 174.801 60.9802 174.733 61.0317C174.666 61.0833 174.614 61.1517 174.582 61.2301C174.488 61.3597 174.385 61.4847 174.283 61.6097L174.117 61.8129C174.022 61.9347 173.916 62.0519 173.813 62.1676L173.638 62.3644C173.594 62.4151 173.564 62.4762 173.55 62.5419C173.536 62.6076 173.54 62.6756 173.561 62.7395C173.581 62.8034 173.617 62.861 173.667 62.9067C173.716 62.9523 173.776 62.9846 173.841 63.0004C174.313 63.1145 174.797 63.1727 175.283 63.1738C175.347 63.1739 175.411 63.1581 175.467 63.1278C175.524 63.0976 175.572 63.0538 175.608 63.0004C175.643 62.947 175.665 62.8859 175.672 62.8222C175.678 62.7585 175.669 62.6942 175.646 62.6347C175.586 62.5074 175.544 62.373 175.519 62.2347Z" fill="black"/>
<path d="M173.608 60.4285C173.595 60.3823 173.589 60.3343 173.591 60.2863C173.591 60.2257 173.577 60.1659 173.55 60.1117C173.522 60.0575 173.483 60.0103 173.435 59.9738C173.386 59.9368 173.328 59.912 173.268 59.9017C173.207 59.8914 173.145 59.8957 173.086 59.9144C173.035 59.9309 172.983 59.9424 172.93 59.9488H172.849C172.752 59.9436 172.654 59.9483 172.558 59.9629C172.33 60.015 172.099 60.0505 171.866 60.0691C171.811 60.0746 171.759 60.0914 171.711 60.1186C171.663 60.1457 171.622 60.1826 171.59 60.2268C171.557 60.2711 171.534 60.3216 171.523 60.3752C171.511 60.4288 171.511 60.4842 171.522 60.5379C171.613 60.9842 171.778 61.412 172.011 61.8035C172.045 61.8572 172.09 61.9022 172.145 61.9345C172.199 61.9669 172.261 61.9857 172.324 61.9894H172.353C172.411 61.9896 172.467 61.9772 172.519 61.9532C172.571 61.9292 172.617 61.8941 172.653 61.8504L172.924 61.5379C173.058 61.3816 173.194 61.2254 173.328 61.0691C173.403 60.9754 173.485 60.8816 173.558 60.7801C173.594 60.7295 173.617 60.6714 173.625 60.6103C173.634 60.5492 173.628 60.4869 173.608 60.4285Z" fill="black"/>
<path d="M178.404 62.241C178.454 62.2072 178.496 62.1621 178.526 62.1093C178.556 62.0565 178.573 61.9974 178.577 61.9367C178.58 61.876 178.569 61.8155 178.544 61.7598C178.52 61.7041 178.483 61.6549 178.436 61.616C178.235 61.4368 178.049 61.2419 177.879 61.0332C177.731 60.8538 177.575 60.6822 177.41 60.5191C177.353 60.4654 177.282 60.4298 177.205 60.4167C177.129 60.4036 177.05 60.4137 176.979 60.4457L176.649 60.5894C176.564 60.6263 176.495 60.6924 176.454 60.7758C176.413 60.8592 176.404 60.9543 176.427 61.0441C176.468 61.209 176.496 61.3766 176.511 61.5457C176.514 61.5884 176.521 61.6308 176.532 61.6722C176.543 61.7441 176.555 61.8285 176.575 61.9113C176.585 61.9643 176.599 62.0165 176.616 62.0676C176.641 62.1453 176.691 62.2131 176.757 62.2613C176.844 62.3141 176.908 62.397 176.938 62.4941C176.953 62.5464 176.979 62.5948 177.015 62.6362C177.05 62.6777 177.094 62.7113 177.143 62.7347C177.195 62.7614 177.254 62.7753 177.313 62.7754C177.362 62.7753 177.411 62.7657 177.457 62.7473C177.79 62.614 178.108 62.4442 178.404 62.241Z" fill="black"/>
<path d="M65.5988 57.3035C65.5637 57.2563 65.5182 57.2178 65.466 57.1907C65.4138 57.1636 65.3561 57.1488 65.2973 57.1472L63.6957 57.1144C63.127 57.1019 62.5582 57.0894 61.9879 57.0816C61.8897 57.0723 61.7916 57.1001 61.7129 57.1597C61.6767 57.1894 61.6477 57.2269 61.628 57.2694C61.6082 57.3119 61.5983 57.3582 61.5988 57.405L61.5895 57.4535C61.5572 57.5684 61.5148 57.6803 61.4629 57.7878C61.4271 57.8635 61.3853 57.9361 61.3379 58.005C61.2863 58.091 61.2332 58.1753 61.191 58.2628C60.9959 58.7067 60.7033 59.1008 60.3348 59.416C59.5633 59.9686 58.6592 60.3071 57.7145 60.3972C57.6193 60.3973 57.5274 60.432 57.456 60.4951C57.3847 60.5581 57.3388 60.6449 57.327 60.7394C57.2337 61.4379 57.065 62.1242 56.8238 62.7863C56.8035 62.8424 56.7963 62.9025 56.8029 62.9619C56.8095 63.0212 56.8297 63.0783 56.8619 63.1286C56.894 63.1789 56.9374 63.2211 56.9885 63.252C57.0396 63.2829 57.0972 63.3015 57.1567 63.3066C57.7176 63.3582 58.2613 63.3972 58.791 63.3972C59.9554 63.4408 61.1069 63.1409 62.102 62.5347C62.9949 61.9971 63.7709 61.2857 64.3839 60.4426C64.9969 59.5996 65.4345 58.6421 65.6707 57.6269C65.6833 57.571 65.6834 57.5131 65.6709 57.4572C65.6585 57.4012 65.6339 57.3488 65.5988 57.3035Z" fill="black"/>
<path d="M79.8752 57.7519C78.8996 57.5413 77.9046 57.4334 76.9065 57.4301C76.5112 57.4301 76.1143 57.4394 75.719 57.4472C75.3237 57.4551 74.9377 57.4629 74.5487 57.4629C74.4671 57.4627 74.3875 57.4882 74.3211 57.5356C74.2547 57.583 74.2048 57.65 74.1784 57.7272C74.1521 57.8045 74.1505 57.888 74.1741 57.9661C74.1976 58.0443 74.245 58.1131 74.3096 58.1629C74.812 58.5331 75.2528 58.9803 75.6159 59.4879C75.9818 60.0543 76.1469 60.7273 76.0846 61.3988C76.0785 61.4505 76.083 61.503 76.0977 61.5529C76.1125 61.6029 76.1373 61.6493 76.1705 61.6894C76.2035 61.7294 76.2441 61.7624 76.29 61.7866C76.3359 61.8107 76.3861 61.8255 76.4377 61.8301C76.983 61.8785 77.5315 61.9332 78.0487 61.9863C78.7924 62.0629 79.4971 62.1347 80.1159 62.1738H80.1409C80.1977 62.174 80.254 62.1617 80.3056 62.1378C80.3572 62.1138 80.4029 62.0789 80.4396 62.0354C80.4762 61.9919 80.5029 61.9409 80.5177 61.886C80.5325 61.8311 80.5351 61.7736 80.5252 61.7175L80.4471 61.2769C80.2094 60.265 80.1173 59.2243 80.1737 58.1863C80.1875 58.0897 80.1645 57.9913 80.1092 57.9109C80.0539 57.8304 79.9704 57.7737 79.8752 57.7519Z" fill="black"/>
<path d="M150.325 63.0863C150.325 62.9394 150.325 62.791 150.313 62.6378L149.919 62.5644L150.31 62.5472C150.308 62.4959 150.297 62.4454 150.276 62.3987C150.254 62.3519 150.224 62.3099 150.186 62.2751C150.149 62.2403 150.104 62.2134 150.056 62.196C150.008 62.1786 149.956 62.171 149.905 62.1738C147.954 62.2446 145.999 62.3118 144.041 62.3753C136.502 62.6253 128.707 62.8847 121.108 63.5503C121.048 63.5576 120.99 63.5786 120.939 63.6116C120.888 63.6447 120.846 63.6889 120.815 63.741C120.783 63.7944 120.764 63.8541 120.759 63.9157C120.754 63.9774 120.763 64.0394 120.785 64.0972L120.825 64.2035C120.927 64.4357 121.004 64.6782 121.054 64.9269C121.072 65.015 121.12 65.0941 121.19 65.151C121.259 65.2079 121.346 65.2391 121.436 65.2394C124.972 65.2394 128.54 65.0394 131.991 64.8519C134.899 64.6956 137.908 64.5269 140.875 64.4785C142.594 64.4503 144.333 64.4331 146.069 64.416C147.383 64.4035 148.697 64.3889 150.013 64.3722C150.067 64.3719 150.121 64.36 150.171 64.3374C150.22 64.3147 150.265 64.2819 150.3 64.241C150.337 64.2001 150.364 64.1522 150.38 64.1003C150.397 64.0484 150.403 63.9936 150.397 63.9394L150.379 63.7597C150.348 63.5365 150.33 63.3116 150.325 63.0863Z" fill="black"/>
<path d="M86.6362 63.3644L86.3065 63.3144C86.1315 63.2879 85.9706 63.2629 85.8222 63.2472C85.5659 63.2238 85.3175 63.1988 85.0737 63.1738C83.9867 63.0129 82.883 62.9998 81.7925 63.1348C81.7675 63.1363 81.7424 63.1363 81.7175 63.1348C81.6427 63.1328 81.5685 63.1478 81.5003 63.1785C81.3986 63.237 81.2811 63.2621 81.1643 63.2504C81.129 63.2465 81.0934 63.2465 81.0581 63.2504L80.9518 63.2754C80.9191 63.2846 80.8857 63.2909 80.8518 63.2941C80.1221 63.2941 79.1331 63.191 78.1956 63.091C78.1354 63.0845 78.0746 63.0922 78.0179 63.1133C77.9612 63.1345 77.9102 63.1686 77.869 63.2129C77.828 63.2572 77.7977 63.3105 77.7806 63.3685C77.7635 63.4265 77.7601 63.4877 77.7706 63.5473C77.8644 64.1219 77.8979 64.7047 77.8706 65.2863C77.8698 65.3384 77.8792 65.3901 77.8984 65.4384C77.9176 65.4868 77.9462 65.5309 77.9825 65.5682C78.0188 65.6055 78.0621 65.6353 78.1099 65.6558C78.1577 65.6764 78.2092 65.6873 78.2612 65.6879C79.9331 65.6785 81.6097 65.7332 83.2409 65.7816C84.2972 65.8129 85.3409 65.8441 86.3659 65.8597C86.4173 65.86 86.4681 65.85 86.5156 65.8304C86.5631 65.8109 86.6063 65.7821 86.6426 65.7458C86.6789 65.7095 86.7077 65.6663 86.7272 65.6189C86.7468 65.5714 86.7567 65.5205 86.7565 65.4691C86.7559 65.223 86.7715 64.9772 86.8034 64.7332C86.833 64.4318 86.8852 64.133 86.9596 63.8394C86.9725 63.7865 86.9744 63.7315 86.9652 63.6777C86.9561 63.624 86.9361 63.5727 86.9065 63.5269C86.8753 63.4825 86.8351 63.4451 86.7886 63.4171C86.742 63.3891 86.6901 63.3711 86.6362 63.3644Z" fill="black"/>
<path d="M65.488 56.0363C66.777 56.0801 68.0598 56.1238 69.3286 56.1238C69.9148 56.1423 70.4945 56.2514 71.0473 56.4473C71.087 56.461 71.1288 56.4678 71.1708 56.4676C71.2424 56.4681 71.3127 56.4486 71.3739 56.4113C72.1887 55.9086 73.0456 55.4773 73.9348 55.1223C74.0199 55.0892 74.0907 55.0273 74.135 54.9475C74.1792 54.8676 74.1941 54.7748 74.177 54.6851C74.1599 54.5954 74.112 54.5146 74.0415 54.4566C73.971 54.3986 73.8824 54.3671 73.7911 54.3676L72.9223 54.3598C71.7239 54.3598 70.513 54.3363 69.3005 54.3129C65.2724 54.0932 61.2325 54.2979 57.2473 54.9238C57.1479 54.9429 57.0597 54.9998 57.0014 55.0826C56.9431 55.1654 56.9193 55.2675 56.9348 55.3676L57.0176 55.8363C57.0339 55.9358 57.0876 56.0253 57.1678 56.0864C57.2481 56.1474 57.3487 56.1754 57.4489 56.1645C60.1217 55.9227 62.8088 55.8799 65.488 56.0363Z" fill="black"/>
<path d="M81.6581 61.6504C81.6659 61.7015 81.6837 61.7506 81.7106 61.7949C81.7374 61.8391 81.7726 61.8776 81.8143 61.9082C81.8548 61.9399 81.9014 61.9628 81.9511 61.9757C82.0008 61.9886 82.0526 61.9912 82.1034 61.9832C82.8154 61.86 83.5409 61.8353 84.2596 61.9098C84.5065 61.9457 84.7503 61.9832 84.9925 62.0239C85.4878 62.1035 85.9831 62.1801 86.48 62.2317H86.5206C86.5777 62.2316 86.6341 62.2191 86.6858 62.1949C86.7376 62.1707 86.7834 62.1355 86.82 62.0917C86.8567 62.0479 86.8833 61.9966 86.8979 61.9414C86.9126 61.8862 86.915 61.8285 86.905 61.7723L86.8409 61.4254C86.7565 60.9457 86.669 60.452 86.5409 59.9973C86.4914 59.7751 86.4213 59.558 86.3315 59.3488C86.3131 59.3012 86.2855 59.2577 86.2503 59.2207C86.2409 59.2113 86.2143 59.1879 86.194 59.1723C86.1484 59.1223 86.0909 59.0846 86.0268 59.0629C85.9208 59.0299 85.812 59.0064 85.7018 58.9926C85.3893 58.902 85.0768 58.8192 84.7643 58.7348L84.2534 58.5989C83.4364 58.3453 82.5895 58.2003 81.7346 58.1676C81.6293 58.177 81.5313 58.2259 81.4603 58.3044C81.3894 58.3829 81.3506 58.4852 81.3518 58.591C81.3518 58.8817 81.3768 59.1629 81.4003 59.427C81.4268 60.0098 81.5112 60.5801 81.5909 61.1301L81.6581 61.6504Z" fill="black"/>
<path d="M57.6223 57.2363C57.5196 57.247 57.4254 57.2978 57.3601 57.3777C57.2948 57.4577 57.2638 57.5602 57.2738 57.6629C57.3145 58.0754 57.3473 58.4894 57.3707 58.9129C57.3746 58.9669 57.3895 59.0196 57.4145 59.0677C57.4395 59.1158 57.4741 59.1583 57.516 59.1926C57.5857 59.2481 57.6722 59.2784 57.7613 59.2785C57.7806 59.2801 57.7999 59.2801 57.8191 59.2785C58.5113 59.2413 59.1712 58.9741 59.6941 58.5191C59.9328 58.2652 60.1229 57.9697 60.2551 57.6472C60.2821 57.5868 60.2935 57.5204 60.2883 57.4544C60.2831 57.3884 60.2615 57.3247 60.2254 57.2691C60.1865 57.2162 60.136 57.1729 60.0778 57.1426C60.0195 57.1123 59.9551 57.0957 59.8895 57.0941C59.1629 57.1113 58.4035 57.1597 57.6223 57.2363Z" fill="black"/>
<path d="M86.0598 53.3879C86.1233 53.388 86.186 53.3728 86.2423 53.3434C86.2987 53.314 86.347 53.2713 86.3832 53.2191C86.4186 53.1664 86.4409 53.106 86.4483 53.043C86.4556 52.9799 86.4478 52.916 86.4254 52.8566C86.2281 52.3629 86.0606 51.8578 85.9238 51.3441C85.8965 51.2474 85.8334 51.1647 85.7473 51.1129C85.7029 51.0869 85.6538 51.0701 85.6028 51.0634C85.5518 51.0566 85.5 51.0602 85.4504 51.0738C84.1757 51.3313 82.8699 51.3987 81.5754 51.2738C81.0707 51.2519 80.5801 51.2316 80.1145 51.2316C78.641 51.2316 77.166 51.2644 75.6942 51.2972C69.5442 51.4347 63.5067 51.016 57.4129 52.9863C57.3242 53.0148 57.2486 53.0741 57.1998 53.1535C57.151 53.2328 57.1321 53.327 57.1466 53.419C57.1611 53.5111 57.2081 53.5949 57.279 53.6554C57.3499 53.7158 57.44 53.749 57.5332 53.7488C57.5566 53.7511 57.5802 53.7511 57.6035 53.7488C64.0707 52.5628 71.0567 52.8644 77.8082 53.1504C80.5348 53.2535 83.3629 53.3738 86.0598 53.3879Z" fill="black"/>
<path d="M76.5003 63.8942C76.4132 63.7181 76.3572 63.5284 76.3347 63.3332C76.3347 63.0411 76.0987 62.8926 75.5659 62.8911C75.2912 62.8795 75.0161 62.8873 74.7425 62.9145C73.7634 63.1379 72.7722 63.3038 71.7737 63.4114C69.3657 63.4878 67.0268 64.2351 65.0206 65.5692C64.9585 65.6202 64.9138 65.6892 64.8925 65.7667C64.8713 65.8442 64.8745 65.9264 64.9019 66.002C64.9424 66.0894 65.0096 66.1617 65.0938 66.2086C65.178 66.2555 65.2749 66.2745 65.3706 66.2629C66.2932 66.2417 67.2133 66.1603 68.1253 66.0192C68.8159 65.9286 69.4675 65.8426 70.0815 65.8114C71.4878 65.7473 72.894 65.7395 74.2644 65.7317C74.9612 65.7317 75.6612 65.7317 76.369 65.7145C76.4648 65.7127 76.5565 65.676 76.627 65.6112C76.6976 65.5465 76.742 65.4581 76.7519 65.3629C76.792 64.9953 76.758 64.6234 76.6519 64.2692C76.6083 64.1415 76.5577 64.0163 76.5003 63.8942Z" fill="black"/>
<path d="M107.238 62.2253L107.185 62.2066H107.172C105.625 61.7566 104.103 61.2691 102.633 60.8003C101.588 60.4644 100.572 60.1378 99.5957 59.8425C98.8957 59.63 98.2972 59.4785 97.7722 59.3472C95.6363 58.8113 94.9894 58.6503 94.1019 55.991C93.8816 55.3285 93.6035 54.6503 93.305 53.9316C92.4491 52.2615 91.9803 50.4201 91.9332 48.5441C91.9378 48.4916 91.9316 48.4387 91.9149 48.3887C91.8983 48.3387 91.8715 48.2927 91.8363 48.2535C91.8012 48.214 91.7584 48.182 91.7106 48.1594C91.6628 48.1369 91.611 48.1242 91.5582 48.1222C89.8629 48.066 88.0113 48.1222 87.2144 49.1019C87.0349 49.3332 86.9139 49.6044 86.8617 49.8925C86.8095 50.1806 86.8276 50.477 86.9144 50.7566C87.1838 51.7566 87.5588 52.7251 88.0332 53.6457L88.3457 54.3175C88.7769 55.2722 89.2832 56.2207 89.7832 57.13C90.5736 58.5017 91.2448 59.9388 91.7894 61.4253C91.8011 61.5053 91.8375 61.5797 91.8935 61.638C91.9496 61.6963 92.0224 61.7355 92.1019 61.7503C92.3394 61.7925 92.5707 61.8472 92.8113 61.9066C93.1238 61.9769 93.4363 62.0472 93.7488 62.0941C94.3285 62.1832 94.9097 62.28 95.491 62.3769C97.6462 62.7956 99.8322 63.0365 102.027 63.0972C103.721 63.1066 105.407 63.13 107.093 63.155C107.2 63.1397 107.297 63.0837 107.364 62.9988C107.388 62.9712 107.407 62.9394 107.419 62.905C107.445 62.8826 107.469 62.8581 107.491 62.8316C107.523 62.778 107.543 62.7175 107.547 62.6551C107.552 62.5926 107.542 62.53 107.518 62.4722C107.492 62.4129 107.454 62.3599 107.406 62.3172C107.357 62.2745 107.3 62.2431 107.238 62.2253Z" fill="black"/>
<path d="M119.678 64.2645C119.657 64.1973 119.628 64.1328 119.592 64.0723C119.553 64.0104 119.498 63.9605 119.432 63.9277C119.367 63.8949 119.294 63.8806 119.221 63.8864C118.446 63.9578 117.668 63.9845 116.891 63.9661C116.891 63.9661 116.78 63.9661 116.76 63.9754L116.644 63.9848C114.03 64.2634 111.404 64.4021 108.775 64.4004C108.724 64.4004 108.673 64.4105 108.626 64.4302C108.579 64.4498 108.536 64.4786 108.5 64.5149C108.463 64.5512 108.435 64.5943 108.415 64.6417C108.396 64.6891 108.386 64.7398 108.386 64.7911L108.394 65.0114C108.394 65.0628 108.403 65.1138 108.423 65.1613C108.442 65.2089 108.471 65.2522 108.508 65.2885C108.544 65.3249 108.587 65.3536 108.635 65.3731C108.682 65.3926 108.733 65.4024 108.785 65.402C112.296 65.3145 115.933 65.2192 119.486 65.2379C119.551 65.2382 119.614 65.2225 119.671 65.1921C119.728 65.1617 119.777 65.1176 119.812 65.0638C119.848 65.01 119.87 64.9483 119.875 64.884C119.881 64.8197 119.871 64.7551 119.846 64.6957C119.791 64.5504 119.728 64.3942 119.678 64.2645Z" fill="black"/>
<path d="M106.9 64.3941C105.257 64.3613 103.619 64.2956 102.057 64.1988C100.402 64.0956 98.8535 63.8863 97.2129 63.6597C96.316 63.5378 95.4114 63.4144 94.4926 63.3097C94.316 63.2863 94.0098 63.2144 93.6473 63.1316C93.3864 63.0722 93.0989 63.0066 92.8082 62.9456C92.7446 62.9313 92.6783 62.9331 92.6155 62.9509C92.5527 62.9687 92.4954 63.002 92.4488 63.0477C92.4021 63.0934 92.3677 63.15 92.3486 63.2124C92.3295 63.2748 92.3264 63.3411 92.3395 63.405C92.4036 63.7749 92.4433 64.1486 92.4582 64.5238C92.4723 64.7347 92.4864 64.9441 92.5067 65.1488C92.527 65.3535 92.8192 65.4972 92.9895 65.5003C94.5364 65.4769 96.077 65.5003 97.6145 65.5238C98.7192 65.5394 99.8223 65.555 100.925 65.555C101.289 65.555 101.65 65.555 102.019 65.555C103.649 65.5394 105.28 65.5066 106.921 65.4659C106.974 65.4647 107.027 65.4524 107.076 65.4299C107.124 65.4074 107.168 65.3752 107.203 65.3351C107.239 65.2951 107.266 65.2482 107.283 65.1974C107.299 65.1465 107.305 65.0927 107.3 65.0394C107.3 64.9535 107.286 64.8753 107.286 64.7956C107.288 64.7439 107.279 64.6924 107.26 64.6441C107.241 64.5959 107.213 64.5518 107.177 64.5145C107.141 64.4771 107.098 64.4473 107.051 64.4266C107.003 64.4059 106.952 64.3949 106.9 64.3941Z" fill="black"/>
<path d="M91.2644 63.9254C91.2597 63.8651 91.2518 63.8052 91.241 63.7457L90.8488 63.7785L91.2347 63.7176C91.2281 63.6666 91.2112 63.6174 91.1851 63.5731C91.1589 63.5289 91.124 63.4903 91.0825 63.46C91.041 63.4296 90.9938 63.4079 90.9437 63.3963C90.8935 63.3848 90.8416 63.3835 90.791 63.3926C90.666 63.4113 90.5378 63.4145 90.4113 63.4207C90.2545 63.425 90.098 63.4375 89.9425 63.4582C89.8253 63.4785 89.7019 63.5051 89.5753 63.5332C89.3146 63.5965 89.0482 63.6332 88.78 63.6426L88.4675 63.6332C88.3845 63.6329 88.3035 63.6591 88.2363 63.708C88.1692 63.7569 88.1193 63.8259 88.0941 63.9051C88.0704 63.9441 88.0535 63.9869 88.0441 64.0316C87.9533 64.4793 87.9042 64.9343 87.8972 65.391C87.8972 65.5176 87.8972 65.591 87.8972 65.6457C87.8972 65.7471 87.9364 65.8445 88.0066 65.9176C88.032 65.9449 88.0615 65.9681 88.0941 65.9863C88.1297 66.0232 88.1725 66.0524 88.2198 66.0723C88.267 66.0922 88.3178 66.1022 88.3691 66.102H88.4097C89.0003 66.041 89.5988 65.9457 90.2035 65.8348C90.4925 65.7863 90.7816 65.7363 91.0738 65.691C91.1728 65.6755 91.2622 65.6227 91.3235 65.5434C91.3849 65.464 91.4135 65.3642 91.4035 65.2645C91.3816 65.0738 91.366 64.8832 91.3488 64.6926C91.3175 64.416 91.2941 64.1441 91.2644 63.9254Z" fill="black"/>
<path d="M88.0457 61.5191L88.066 61.6441L88.466 61.6628L88.0785 61.7082C88.0841 61.7599 88.1002 61.81 88.1257 61.8554C88.1512 61.9007 88.1857 61.9405 88.2269 61.9722C88.2954 62.025 88.3795 62.0536 88.466 62.0535H88.5222L89.1472 61.9519C89.3925 61.9208 89.6357 61.8749 89.8754 61.8144C89.9254 61.8006 89.9721 61.7769 90.0129 61.7448C90.0537 61.7127 90.0876 61.6727 90.1128 61.6274C90.138 61.582 90.1538 61.532 90.1595 61.4804C90.1651 61.4289 90.1604 61.3767 90.1457 61.3269C90.0745 61.1123 89.9872 60.9034 89.8847 60.7019C89.8238 60.5738 89.766 60.455 89.7363 60.3988C89.7404 60.3502 89.7344 60.3013 89.7186 60.2551C89.7028 60.209 89.6775 60.1666 89.6445 60.1308C89.6114 60.0949 89.5712 60.0663 89.5265 60.0468C89.4818 60.0273 89.4335 60.0174 89.3847 60.0175C89.2582 59.9785 89.1347 59.9472 89.0144 59.916L88.8301 59.8628C88.6566 59.8144 88.4816 59.7597 88.3066 59.7066C88.2416 59.6858 88.1722 59.6824 88.1055 59.6967C88.0387 59.711 87.9769 59.7426 87.9261 59.7883C87.8754 59.834 87.8375 59.8922 87.8163 59.9571C87.795 60.022 87.7912 60.0913 87.8051 60.1582C87.8801 60.5144 87.9363 60.866 87.9863 61.1722L88.0457 61.5191Z" fill="black"/>
<path d="M88.7442 58.6456C88.802 58.6455 88.8591 58.6326 88.9115 58.6081C88.9638 58.5835 89.0102 58.5478 89.0473 58.5034C89.0962 58.4435 89.1264 58.3704 89.1339 58.2934C89.1414 58.2164 89.1259 58.1389 89.0895 58.0706C88.8707 57.6644 88.6483 57.2587 88.4223 56.8534C88.0426 56.1675 87.6629 55.4785 87.3067 54.78C87.2748 54.7156 87.2256 54.6613 87.1646 54.6232C87.1036 54.5851 87.0332 54.5648 86.9613 54.5644C83.1961 54.3747 79.4234 54.7433 75.766 55.6581C75.6768 55.6855 75.6003 55.744 75.5504 55.8229C75.5005 55.9019 75.4806 55.9961 75.4942 56.0885C75.5078 56.1809 75.554 56.2653 75.6245 56.3266C75.695 56.3878 75.7852 56.4217 75.8785 56.4222H76.2535C77.8975 56.2812 79.553 56.4763 81.1192 56.9956C81.1814 57.0234 81.2501 57.0331 81.3176 57.0238C82.3978 56.9897 83.4747 57.1609 84.491 57.5284L84.8879 57.641C85.102 57.705 85.3457 57.7534 85.5957 57.7972C86.0554 57.8572 86.5006 57.9996 86.9098 58.2175C86.9631 58.2513 87.0235 58.2722 87.0863 58.2784C87.6093 58.3435 88.1248 58.4592 88.6254 58.6238C88.6635 58.6376 88.7036 58.6449 88.7442 58.6456Z" fill="black"/>
</svg>
