<svg width="400" height="200" viewBox="0 0 400 200" fill="none" xmlns="http://www.w3.org/2000/svg">
<path d="M75.1166 117.457L75.6885 117.476C76.1666 117.494 76.651 117.513 77.1385 117.513C77.5198 117.513 77.901 117.513 78.2791 117.469C78.5385 117.451 78.7979 117.419 79.0604 117.388C79.4294 117.338 79.8007 117.307 80.1729 117.294C81.0104 117.316 81.3198 117.326 81.476 117.154C81.5848 117.074 81.7098 117.019 81.8421 116.994C81.9744 116.968 82.1108 116.971 82.2416 117.004C82.4342 117.066 82.6433 117.053 82.8263 116.966C83.0092 116.88 83.1522 116.727 83.226 116.538L83.3354 116.226C83.3878 116.042 83.3888 115.848 83.3381 115.664C83.2874 115.479 83.187 115.313 83.0479 115.182C82.7491 114.805 82.4153 114.458 82.051 114.144C81.9931 114.092 81.9278 114.047 81.8573 114.013C80.422 113.29 79.1335 112.307 78.0573 111.113C77.9018 110.956 77.6906 110.868 77.4698 110.866C77.3604 110.868 77.2527 110.893 77.1536 110.939C77.0545 110.986 76.9663 111.052 76.8948 111.135C75.5606 112.67 74.6817 114.546 74.3573 116.554C74.3399 116.664 74.3461 116.776 74.3755 116.883C74.405 116.99 74.4569 117.09 74.5279 117.175C74.5989 117.261 74.6873 117.33 74.7872 117.379C74.8871 117.427 74.9962 117.454 75.1073 117.457H75.1166Z" fill="black"/>
<path d="M61.9509 110.838C58.2085 111.685 54.5387 112.826 50.9759 114.251C49.9946 114.657 48.9977 115.01 48.004 115.363C47.0665 115.691 46.1477 116.019 45.2321 116.391C45.0622 116.46 44.9219 116.586 44.8356 116.748C44.7494 116.91 44.7227 117.096 44.7602 117.276C44.8087 117.449 44.9105 117.603 45.0513 117.715C45.1921 117.827 45.3647 117.892 45.5446 117.901C46.9134 117.87 48.2831 117.853 49.654 117.851C50.2536 117.824 50.8441 118.005 51.3258 118.363C51.4625 118.467 51.6294 118.523 51.8009 118.523H51.8071C53.3696 118.485 54.9321 118.366 56.4946 118.251C58.279 118.12 59.9633 117.991 61.6227 117.982C61.726 117.982 61.8282 117.961 61.9234 117.922C62.0186 117.882 62.105 117.823 62.1774 117.75C62.2498 117.676 62.3069 117.589 62.3452 117.493C62.3836 117.397 62.4025 117.295 62.4009 117.191C62.3785 115.938 62.4422 114.686 62.5915 113.441C62.6665 112.876 62.7602 112.326 62.8852 111.791C62.9175 111.662 62.9154 111.527 62.8792 111.398C62.843 111.27 62.774 111.154 62.679 111.06C62.5858 110.965 62.4703 110.895 62.3431 110.857C62.2159 110.818 62.0811 110.812 61.9509 110.838Z" fill="black"/>
<path d="M79.4073 123.282C80.2053 122.813 80.9783 122.303 81.7229 121.754C82.2198 121.404 82.7135 121.051 83.226 120.723C83.3823 120.599 83.4914 120.425 83.5352 120.231C83.5789 120.036 83.5548 119.833 83.4667 119.654C83.4337 119.546 83.3775 119.446 83.302 119.362C83.2265 119.278 83.1336 119.212 83.0297 119.167C82.9258 119.123 82.8135 119.102 82.7005 119.105C82.5876 119.109 82.4769 119.137 82.376 119.188C81.7821 119.431 81.1415 119.537 80.501 119.501C80.0368 119.5 79.5731 119.532 79.1135 119.598C77.9323 119.737 76.7405 119.765 75.5542 119.679H75.326C75.2069 119.672 75.088 119.694 74.9792 119.743C74.8704 119.792 74.775 119.866 74.701 119.96C74.6237 120.051 74.5686 120.159 74.5398 120.275C74.5111 120.391 74.5096 120.512 74.5354 120.629C74.6316 121.052 74.7516 121.469 74.8948 121.879C75.223 122.776 75.6495 123.635 76.1667 124.438C76.2274 124.533 76.3081 124.613 76.4031 124.674C76.498 124.734 76.6051 124.773 76.7167 124.788H76.8198C77.0125 124.788 77.1985 124.717 77.3417 124.588C77.8017 124.213 78.3003 123.889 78.8292 123.619L79.4073 123.282Z" fill="black"/>
<path d="M42.8352 120.123C42.2821 120.157 41.879 120.185 41.7415 120.185C41.3946 120.185 41.0071 120.17 40.5915 120.151C38.3634 120.06 35.3196 119.932 33.9821 122.057C33.906 122.174 33.8134 122.279 33.7071 122.37C33.584 122.505 33.5003 122.671 33.4651 122.851C33.4298 123.031 33.4444 123.216 33.5071 123.388C33.6102 123.701 33.7196 123.995 33.8509 124.301C33.9095 124.453 34.0164 124.582 34.1553 124.668C34.2941 124.754 34.4572 124.791 34.6196 124.776C37.0199 124.679 39.3762 124.1 41.5477 123.073C41.7127 122.981 41.899 122.934 42.0878 122.937C42.2765 122.941 42.4611 122.994 42.6227 123.091C42.8068 123.204 42.9614 123.359 43.0738 123.543C43.1863 123.727 43.2534 123.936 43.2696 124.151C43.2749 124.302 43.324 124.449 43.4109 124.573C43.4978 124.697 43.6188 124.794 43.7593 124.851C43.8998 124.907 44.0537 124.922 44.2025 124.894C44.3513 124.865 44.4886 124.793 44.5977 124.688C44.7643 124.56 44.9702 124.494 45.1801 124.502C45.3899 124.509 45.5907 124.589 45.7477 124.729C45.9959 124.888 46.1787 125.13 46.2624 125.413C46.3462 125.695 46.3255 125.998 46.204 126.266C45.6499 127.532 44.7764 128.631 43.6691 129.457C42.5619 130.282 41.259 130.806 39.8884 130.976C39.7493 131.002 39.6202 131.066 39.5148 131.161C39.4094 131.255 39.3318 131.377 39.2904 131.512C39.2489 131.647 39.2451 131.792 39.2795 131.929C39.3138 132.066 39.385 132.192 39.4852 132.291C39.7134 132.523 39.9477 132.751 40.1634 132.916C41.0657 133.575 42.175 133.887 43.2884 133.795C43.8696 133.795 44.4477 133.751 44.9852 133.71C45.7591 133.657 46.5351 133.644 47.3102 133.67C47.8759 133.67 48.4446 133.698 49.0134 133.67C49.1875 133.668 49.3559 133.607 49.4914 133.498C49.6269 133.388 49.7216 133.236 49.7602 133.066C49.9708 131.869 50.0535 130.653 50.0071 129.438C50.0071 128.773 50.0071 128.166 50.054 127.732L50.1727 126.726C50.5235 124.749 50.5467 122.729 50.2415 120.745C50.0415 119.888 49.2852 119.726 42.8352 120.123Z" fill="black"/>
<path d="M112.764 99.1882C112.001 98.7914 111.235 99.3257 110.576 99.7945C110.381 99.9353 110.179 100.066 109.97 100.185C109.802 100.112 109.614 100.1 109.439 100.151C109.263 100.203 109.112 100.314 109.01 100.466C108.909 100.618 108.864 100.801 108.884 100.983C108.904 101.165 108.988 101.334 109.12 101.46C109.669 102 110.18 102.579 110.648 103.191C110.723 103.29 110.821 103.369 110.933 103.422C111.046 103.475 111.169 103.501 111.293 103.497C111.417 103.493 111.538 103.459 111.646 103.399C111.755 103.339 111.848 103.254 111.917 103.151C112.014 103.023 112.398 102.569 112.754 102.188C112.917 102.01 113.067 101.844 113.032 101.838C113.19 101.787 113.327 101.687 113.423 101.553C113.52 101.418 113.571 101.257 113.57 101.091C113.554 100.451 113.47 99.5539 112.764 99.1882Z" fill="black"/>
<path d="M43.6448 125.163C43.5332 125.025 43.3777 124.928 43.2039 124.889C43.0301 124.851 42.8484 124.872 42.6885 124.951C40.7082 125.909 38.564 126.483 36.3698 126.641C36.2356 126.653 36.1066 126.698 35.9955 126.774C35.8843 126.85 35.7947 126.954 35.7355 127.075C35.6763 127.196 35.6495 127.33 35.6577 127.464C35.6659 127.599 35.7088 127.729 35.7823 127.841C35.9698 128.135 36.1604 128.429 36.3667 128.707C36.4396 128.804 36.534 128.883 36.6424 128.937C36.7509 128.991 36.8704 129.019 36.9917 129.02C37.0249 129.023 37.0584 129.023 37.0917 129.02C39.564 128.931 41.9102 127.905 43.6542 126.151C43.7671 126.011 43.8279 125.835 43.8262 125.655C43.8245 125.475 43.7604 125.301 43.6448 125.163Z" fill="black"/>
<path d="M35.6854 131.666C35.6115 131.572 35.5165 131.496 35.4079 131.445C35.2994 131.394 35.1803 131.369 35.0604 131.373H30.3229C26.49 131.474 22.6544 131.353 18.8354 131.01C18.734 130.996 18.6308 131.003 18.532 131.03C18.4331 131.056 18.3407 131.103 18.2602 131.166C18.1797 131.229 18.1128 131.308 18.0634 131.398C18.0141 131.488 17.9833 131.586 17.9729 131.688C17.9095 132.235 17.7772 132.772 17.5792 133.285C17.5366 133.396 17.5195 133.514 17.5293 133.632C17.539 133.75 17.5753 133.864 17.6354 133.966C17.6955 134.068 17.7779 134.155 17.8764 134.22C17.9749 134.286 18.087 134.328 18.2042 134.345C19.1208 134.468 20.045 134.526 20.9698 134.52C22.7729 134.52 24.6667 134.348 26.4104 134.191C27.3479 134.104 28.2854 134.023 29.0979 133.976L31.0667 133.873C32.6479 133.788 34.1917 133.707 35.7073 133.651C35.8568 133.645 36.0017 133.597 36.1245 133.512C36.2474 133.426 36.3432 133.307 36.4005 133.169C36.4577 133.031 36.4741 132.879 36.4476 132.732C36.4211 132.584 36.3529 132.448 36.251 132.338C36.0573 132.126 35.8698 131.913 35.6854 131.666Z" fill="black"/>
<path d="M84.1478 122.766C83.7103 123.051 83.2821 123.36 82.8571 123.666C82.3144 124.074 81.7512 124.454 81.1696 124.804C80.9696 124.926 80.7259 125.054 80.4696 125.191C79.9116 125.464 79.3811 125.789 78.8853 126.163C78.7925 126.238 78.7185 126.334 78.6691 126.442C78.6197 126.551 78.5964 126.669 78.6009 126.788C78.604 126.906 78.6337 127.022 78.6878 127.127C78.7419 127.232 78.819 127.324 78.9134 127.395C80.1277 128.303 81.5077 128.965 82.9759 129.345C83.0411 129.362 83.1084 129.37 83.1759 129.37C83.3668 129.369 83.551 129.299 83.6937 129.173C83.8365 129.046 83.928 128.871 83.9509 128.682C84.05 128.066 84.2199 127.463 84.4571 126.885C84.6553 126.375 84.8212 125.853 84.954 125.323L85.329 123.607C85.3626 123.456 85.3506 123.297 85.2943 123.153C85.2381 123.008 85.1402 122.884 85.0131 122.795C84.886 122.706 84.7353 122.656 84.5801 122.653C84.425 122.65 84.2724 122.692 84.1415 122.776L84.1478 122.766Z" fill="black"/>
<path d="M103.438 104.576C98.1759 97.1789 91.5134 97.2727 84.4665 97.3633C83.6353 97.3633 82.7915 97.3852 81.9353 97.3852C74.3978 97.3852 65.2509 106.091 64.7478 113.726C63.8384 127.979 71.3696 137.935 84.5071 139.713C84.6415 139.713 84.7478 139.691 84.7228 139.682C85.4446 139.682 86.179 139.698 86.9103 139.713H88.129C98.6259 138.188 105.982 131.385 107.329 121.966C108.175 115.89 106.793 109.713 103.438 104.576ZM91.4228 131.079H91.3915C89.2318 131.819 86.9372 132.081 84.6663 131.847C82.3954 131.614 80.2022 130.89 78.2384 129.726C76.7153 128.836 75.4163 127.61 74.4412 126.14C73.4661 124.67 72.8408 122.997 72.6134 121.248C71.6759 114.226 73.9759 106.248 83.2634 104.926C84.8437 104.681 86.4393 104.546 88.0384 104.523C90.5276 104.366 92.9909 105.103 94.9853 106.601C97.624 109.173 99.3006 112.573 99.7353 116.232L99.8853 116.857C100.313 119.838 99.707 122.875 98.1671 125.463C96.6272 128.051 94.2468 130.033 91.4228 131.079Z" fill="black"/>
<path d="M97.1385 114.801L96.3635 114.923L97.1197 114.726C97.0683 114.528 96.9408 114.359 96.7651 114.256C96.5894 114.152 96.3799 114.122 96.1822 114.173C95.3441 114.435 94.5745 114.88 93.9291 115.476C93.6166 115.748 93.3322 116.035 92.9572 116.354C92.6981 116.469 92.4684 116.641 92.2854 116.857C92.1244 117.085 91.9008 117.26 91.6416 117.363C91.4888 117.451 91.3619 117.577 91.2741 117.73C91.1862 117.883 91.1405 118.056 91.1416 118.232V118.485C91.1417 118.652 91.1951 118.814 91.2941 118.948C91.3931 119.081 91.5324 119.18 91.6916 119.229C91.9447 119.307 92.1916 119.398 92.4385 119.485C92.9412 119.675 93.4558 119.832 93.9791 119.954L94.4791 120.054C95.1822 120.191 95.8885 120.332 96.5729 120.529C96.6417 120.55 96.7134 120.561 96.7854 120.56C96.9423 120.56 97.0956 120.513 97.226 120.426C97.3204 120.361 97.3996 120.277 97.4579 120.179C97.5162 120.081 97.5523 119.971 97.5635 119.857C97.6869 118.686 97.669 117.505 97.5104 116.338C97.4166 115.819 97.2924 115.306 97.1385 114.801Z" fill="black"/>
<path d="M82.7166 112.066C83.5582 112.48 84.2736 113.111 84.7885 113.894C84.8796 113.985 84.9887 114.055 85.1088 114.1C85.2289 114.146 85.3573 114.165 85.4854 114.157C85.6031 114.158 85.7202 114.14 85.8323 114.104C86.0136 114.072 86.178 113.978 86.2969 113.838C86.4157 113.697 86.4813 113.519 86.4822 113.335C86.4763 112.917 86.5003 112.5 86.5541 112.085C86.5826 111.952 86.6244 111.822 86.6791 111.698C86.8156 111.383 86.894 111.046 86.9104 110.704C86.9413 109.776 87.0458 108.852 87.2229 107.941L87.2416 107.816C87.2597 107.704 87.2533 107.59 87.2228 107.481C87.1924 107.372 87.1386 107.27 87.0653 107.184C86.9919 107.097 86.9007 107.028 86.7979 106.98C86.6951 106.932 86.5831 106.907 86.4697 106.907C85.9697 106.907 85.4698 106.907 84.9354 106.96C83.1896 107.132 81.5008 107.676 79.9822 108.554C79.8814 108.613 79.7951 108.694 79.7296 108.791C79.6642 108.887 79.6213 108.998 79.6041 109.113C79.5861 109.229 79.5948 109.348 79.6294 109.46C79.6641 109.572 79.7238 109.675 79.8041 109.76C80.6118 110.715 81.602 111.499 82.7166 112.066Z" fill="black"/>
<path d="M29.7885 129.032C30.5541 129.113 31.4916 129.182 32.5103 129.216H32.5385C32.6737 129.216 32.8065 129.18 32.9238 129.112C33.041 129.045 33.1388 128.948 33.2075 128.832C33.2761 128.715 33.3134 128.583 33.3155 128.448C33.3176 128.312 33.2846 128.179 33.2197 128.06C33.0478 127.748 32.8885 127.435 32.7291 127.123C32.6663 126.999 32.5719 126.894 32.4556 126.819C32.3392 126.744 32.205 126.701 32.0666 126.695C30.4853 126.62 28.8947 126.463 27.2978 126.307C23.7437 125.824 20.1452 125.759 16.576 126.113C16.4543 126.13 16.3383 126.176 16.2373 126.246C16.1364 126.316 16.0533 126.408 15.9947 126.516C15.8876 126.73 15.8007 126.952 15.7353 127.182L15.6697 127.376C15.6316 127.484 15.6175 127.598 15.6283 127.712C15.6391 127.826 15.6745 127.936 15.7322 128.035C15.7898 128.134 15.8684 128.218 15.9623 128.283C16.0563 128.348 16.1634 128.391 16.276 128.41C18.8308 128.763 21.4101 128.908 23.9885 128.845C25.8978 128.841 27.8666 128.845 29.7885 129.032Z" fill="black"/>
<path d="M105.026 100.998C104.864 100.898 104.671 100.861 104.484 100.893C104.297 100.925 104.127 101.024 104.007 101.171C103.888 101.319 103.825 101.505 103.832 101.695C103.839 101.884 103.915 102.065 104.045 102.204C106.368 104.61 108.096 107.526 109.089 110.72C110.082 113.913 110.313 117.295 109.764 120.594C109.392 123.22 108.646 125.778 107.548 128.191C107.469 128.363 107.455 128.557 107.509 128.738C107.562 128.919 107.679 129.074 107.839 129.176L108.032 129.282C108.105 129.355 108.191 129.412 108.286 129.451C108.381 129.49 108.483 129.51 108.585 129.51H108.682C108.798 129.497 108.91 129.459 109.009 129.397C109.108 129.335 109.192 129.252 109.254 129.154C110.66 126.993 111.68 124.604 112.27 122.094C113.879 115.038 111.617 105.232 105.026 100.998Z" fill="black"/>
<path d="M96.0477 122.673C95.2946 122.451 94.5102 122.295 93.7352 122.145L93.1852 122.035C92.761 121.954 92.3432 121.843 91.9352 121.701L91.7633 121.61C91.6163 121.537 91.4501 121.513 91.2882 121.54C91.1264 121.566 90.9771 121.644 90.8616 121.76C90.7461 121.877 90.6702 122.027 90.6447 122.189C90.6192 122.351 90.6454 122.517 90.7196 122.663C90.7524 122.739 90.7978 122.809 90.854 122.87C91.104 123.345 91.3915 123.788 91.679 124.235C92.0324 124.746 92.3459 125.283 92.6165 125.841C92.7135 126.052 92.7554 126.285 92.7383 126.516C92.7413 126.736 92.8247 126.948 92.9727 127.11C93.1109 127.262 93.3036 127.354 93.509 127.365C93.7143 127.376 93.9158 127.306 94.0696 127.17C95.1317 126.215 95.975 125.043 96.5415 123.732C96.5865 123.63 96.6095 123.52 96.6087 123.409C96.608 123.298 96.5836 123.188 96.5372 123.087C96.4908 122.986 96.4235 122.896 96.3396 122.823C96.2557 122.75 96.1573 122.695 96.0508 122.663L96.0477 122.673Z" fill="black"/>
<path d="M86.5354 119.585L86.9667 119.676C87.1346 119.696 87.3038 119.704 87.4729 119.701C87.6175 119.714 87.7627 119.683 87.8885 119.61C88.0573 119.588 88.1198 119.591 88.2385 119.469C88.2973 119.435 88.3578 119.404 88.4198 119.376C88.4979 119.337 88.5696 119.286 88.6323 119.226C88.6792 119.176 88.826 118.879 88.8635 118.816C88.959 118.642 88.9825 118.436 88.9292 118.244C88.9322 118.207 88.9322 118.169 88.9292 118.132C88.9289 118.024 88.9054 117.918 88.8604 117.819C88.8167 117.663 88.7666 117.507 88.7166 117.388C88.5816 116.993 88.3216 116.653 87.9761 116.418C87.6306 116.184 87.2181 116.068 86.801 116.088C86.4549 116.088 86.121 116.216 85.8635 116.448C85.6735 116.61 85.5045 116.796 85.3604 117.001L85.2354 117.251C85.1832 117.354 85.1564 117.469 85.1573 117.585C85.1252 118.044 85.2582 118.5 85.5323 118.869C85.5811 118.942 85.6425 119.006 85.7135 119.057C85.7888 119.181 85.897 119.281 86.026 119.348C86.0791 119.376 86.1479 119.41 86.1917 119.438C86.2931 119.513 86.4109 119.564 86.5354 119.585Z" fill="black"/>
<path d="M89.1259 114.526C89.4031 114.673 89.6569 114.86 89.879 115.082C90.0265 115.228 90.2259 115.311 90.4337 115.311C90.6415 115.311 90.8409 115.228 90.9884 115.082C91.4901 114.6 92.0202 114.148 92.5759 113.729L92.754 113.588C93.4687 113.001 94.2698 112.528 95.129 112.185C95.2401 112.144 95.3405 112.078 95.4227 111.992C95.505 111.907 95.5669 111.804 95.604 111.691C95.6404 111.578 95.6506 111.459 95.6338 111.341C95.617 111.224 95.5737 111.112 95.5071 111.013C94.3081 109.224 92.5004 107.93 90.4196 107.373C90.3137 107.343 90.2028 107.336 90.094 107.352C89.9852 107.368 89.8811 107.407 89.7883 107.466C89.6954 107.525 89.616 107.603 89.5552 107.694C89.4944 107.786 89.4535 107.889 89.4352 107.998C89.3571 108.46 89.3196 108.916 89.279 109.376C89.2429 109.986 89.1572 110.592 89.0227 111.188C88.8429 112.054 88.7384 112.933 88.7102 113.816C88.7064 113.962 88.7433 114.105 88.8167 114.23C88.8902 114.356 88.9973 114.458 89.1259 114.526Z" fill="black"/>
<path d="M90.6166 127.782C90.5637 127.609 90.5637 127.424 90.6166 127.251C90.672 127.072 90.6609 126.879 90.5853 126.707C90.4291 126.363 90.2541 126.013 90.0478 125.635C89.9197 125.426 89.7766 125.227 89.6197 125.038C89.4921 124.904 89.38 124.757 89.2853 124.598C89.1759 124.363 89.0509 124.129 88.9228 123.913C88.8425 123.779 88.7236 123.671 88.5814 123.605C88.4393 123.539 88.2806 123.517 88.1259 123.542C87.9712 123.568 87.8277 123.639 87.714 123.747C87.6003 123.855 87.5217 123.994 87.4884 124.148L87.3978 124.566C87.3041 125.013 87.2134 125.466 87.0853 125.919C86.9841 126.239 86.863 126.552 86.7228 126.857C86.4343 127.448 86.2403 128.081 86.1478 128.732C86.1316 128.795 86.1232 128.86 86.1228 128.926C86.1236 129.133 86.2062 129.331 86.3525 129.477C86.4989 129.624 86.6971 129.706 86.9041 129.707H86.9541C88.0825 129.638 89.1987 129.434 90.2791 129.101C90.387 129.068 90.4865 129.011 90.5707 128.936C90.6548 128.861 90.7216 128.768 90.7664 128.664C90.8113 128.561 90.8331 128.448 90.8305 128.335C90.8278 128.223 90.8007 128.112 90.7509 128.01L90.6166 127.782Z" fill="black"/>
<path d="M60.1383 120.235C58.8165 120.285 57.4821 120.379 56.129 120.479C55.2321 120.541 54.3258 120.607 53.4071 120.66C53.3017 120.667 53.1988 120.695 53.1045 120.743C53.0103 120.791 52.9267 120.857 52.8587 120.938C52.7907 121.019 52.7397 121.112 52.7088 121.213C52.678 121.314 52.6678 121.421 52.679 121.526C52.8072 124.019 52.65 126.518 52.2102 128.976C52.079 129.913 51.9633 130.701 51.9227 131.295L51.8727 132.232C51.8646 132.433 51.9335 132.629 52.0654 132.781C52.1972 132.932 52.3821 133.028 52.5821 133.048C53.054 133.091 53.4415 133.107 53.7602 133.107C54.235 133.141 54.7116 133.072 55.1571 132.904C55.1883 132.904 55.3102 132.819 55.3383 132.804C55.4049 132.76 55.4749 132.721 55.5477 132.688C55.8602 132.576 56.0727 132.019 56.0727 131.694C56.0727 130.676 56.004 129.666 55.9383 128.66C55.8727 127.654 55.8102 126.723 55.8102 125.751C55.8102 124.991 55.8102 122.688 60.279 122.066C60.4656 122.041 60.6368 121.949 60.7604 121.807C60.8841 121.665 60.9518 121.483 60.9508 121.294V121.001C60.9509 120.895 60.93 120.791 60.8892 120.694C60.8484 120.597 60.7886 120.509 60.7133 120.435C60.6405 120.358 60.5502 120.3 60.4502 120.265C60.3501 120.23 60.2432 120.22 60.1383 120.235Z" fill="black"/>
<path d="M253.648 67.3195C261.901 69.8602 270.163 73.107 277.257 75.9445C281.073 77.5641 284.79 79.4068 288.388 81.4633C293.025 84.1829 297.909 86.4556 302.976 88.2508L305.517 89.0664C307.97 89.8602 310.448 90.6602 312.945 91.4133C313.018 91.4354 313.093 91.4469 313.17 91.4477C313.309 91.4479 313.445 91.4112 313.565 91.3413C313.685 91.2713 313.784 91.1707 313.852 91.0498C313.92 90.9288 313.955 90.7919 313.952 90.6531C313.95 90.5144 313.911 90.3787 313.838 90.2602C313.086 89.2247 312.124 88.3587 311.016 87.7181C309.907 87.0775 308.677 86.6767 307.404 86.5414C306.267 86.2445 304.982 85.9164 303.576 85.3945C298.083 83.3281 292.808 80.7227 287.829 77.6164C282.574 74.5598 277.128 71.8458 271.523 69.4914C269.095 68.4133 266.663 67.332 264.254 66.1883C264.157 66.1403 264.05 66.1147 263.942 66.1133C261.882 66.082 259.829 66.0039 257.779 65.9227C256.488 65.8758 255.201 65.8227 253.913 65.7852C253.727 65.7903 253.548 65.8574 253.405 65.9756C253.261 66.0939 253.161 66.2567 253.12 66.4383C253.086 66.6242 253.121 66.8159 253.219 66.9779C253.316 67.1399 253.468 67.2613 253.648 67.3195Z" fill="black"/>
<path d="M245.67 77.5383C246.054 79.3736 246.549 81.1842 247.151 82.9602C250.901 93.2727 259.632 94.8727 268.867 96.582L270.429 96.8758C274.832 97.707 279.317 98.282 283.657 98.8352C288.285 99.4289 293.073 100.041 297.72 100.966C300.046 101.406 302.408 101.626 304.776 101.623L305.757 101.604C305.92 101.595 306.077 101.54 306.209 101.444C306.341 101.348 306.443 101.216 306.501 101.063C307.032 99.8969 307.349 98.6448 307.438 97.3664C307.438 96.3327 307.368 95.3001 307.229 94.2758C307.154 93.6508 307.085 93.0258 307.048 92.4008C307.038 92.2417 306.979 92.0895 306.88 91.9645C306.782 91.8394 306.647 91.7475 306.495 91.7008L305.832 91.4914C297.634 89.2538 289.826 85.7761 282.679 81.1789C275.86 76.9242 268.4 73.7965 260.585 71.9164C258.251 71.2133 255.97 70.5227 253.826 69.8008C250.322 68.5428 246.72 67.577 243.057 66.9133C242.906 66.8892 242.751 66.9101 242.612 66.9732C242.473 67.0363 242.355 67.139 242.273 67.2685C242.192 67.3979 242.15 67.5485 242.153 67.7014C242.157 67.8544 242.205 68.003 242.292 68.1289C243.972 71.038 245.116 74.225 245.67 77.5383Z" fill="black"/>
<path d="M225.313 64.0789H225.892C226.081 64.0821 226.271 64.0748 226.46 64.057C228.023 63.9601 229.585 63.9382 231.148 63.9195C232.71 63.9007 234.32 63.8757 235.892 63.7789C236.019 63.7706 236.143 63.7313 236.252 63.6643C236.361 63.5973 236.452 63.5047 236.517 63.3945C236.688 63.0976 236.829 62.8007 237.001 62.4976C237.117 62.2757 237.235 62.0476 237.363 61.8257C237.423 61.7183 237.456 61.5983 237.46 61.4756C237.465 61.3529 237.44 61.2309 237.388 61.1195C237.338 61.0077 237.262 60.9094 237.167 60.8327C237.071 60.7561 236.959 60.7034 236.838 60.6789C235.513 60.4039 234.157 60.2289 232.848 60.0539L231.973 59.9414C231.607 59.8882 231.217 59.8007 230.82 59.7101C229.217 59.3539 227.232 58.9101 226.042 60.5601C225.501 61.3088 225.023 62.1011 224.613 62.9289C224.552 63.0478 224.523 63.1806 224.528 63.3143C224.534 63.4479 224.574 63.5779 224.645 63.6914C224.713 63.8084 224.811 63.9057 224.928 63.9736C225.045 64.0416 225.178 64.0778 225.313 64.0789Z" fill="black"/>
<path d="M245.338 87.6508C245.314 87.4539 245.216 87.2734 245.065 87.1445C244.915 87.0156 244.721 86.9477 244.523 86.9539C243.357 87.0133 242.195 87.1289 241.029 87.2414C239.976 87.3445 238.923 87.4476 237.863 87.5101C237.752 87.5169 237.642 87.5475 237.543 87.6C237.444 87.6526 237.358 87.7257 237.289 87.8146C237.221 87.9034 237.172 88.0059 237.147 88.1151C237.121 88.2243 237.119 88.3377 237.142 88.4476C237.204 88.7601 237.298 89.1601 237.392 89.5726C237.523 90.1445 237.654 90.7258 237.704 90.9883C237.807 92.0483 238.153 93.0704 238.713 93.9758C238.767 94.0661 238.812 94.1613 238.848 94.2601C238.898 94.3865 238.981 94.4976 239.087 94.5825C239.193 94.6675 239.32 94.7233 239.454 94.7445C241.757 95.107 244.045 95.532 246.254 96.0133C246.309 96.0246 246.364 96.0299 246.42 96.0289C246.549 96.0288 246.677 95.9965 246.791 95.9348C246.905 95.873 247.002 95.7839 247.073 95.6754C247.144 95.5668 247.187 95.4424 247.198 95.3131C247.209 95.1839 247.187 95.054 247.135 94.9351C246.184 92.6077 245.579 90.1536 245.338 87.6508Z" fill="black"/>
<path d="M331.07 89.9914C331.62 90.3477 332.173 90.657 332.717 90.957C333.757 91.4521 334.704 92.1246 335.514 92.9445C335.587 93.0286 335.677 93.0961 335.778 93.1425C335.88 93.1888 335.99 93.213 336.101 93.2133C336.241 93.2121 336.377 93.1744 336.498 93.1039C337.886 92.2866 339.334 91.5762 340.829 90.9789C340.988 90.9151 341.121 90.801 341.208 90.6543C341.296 90.5075 341.333 90.3362 341.314 90.1664C341.001 87.3539 340.889 84.4289 340.785 81.5945C340.707 79.5508 340.629 77.507 340.473 75.5102C340.457 75.1727 340.42 74.8164 340.385 74.4539C340.369 74.2935 340.304 74.142 340.199 74.0197C340.094 73.8974 339.954 73.8101 339.798 73.7695C339.659 73.7401 339.524 73.6917 339.398 73.6258C338.405 73.2985 337.343 73.2392 336.32 73.4539C336.07 73.4758 335.851 73.4977 335.695 73.5039C334.833 73.6782 333.937 73.5125 333.195 73.0414C332.916 72.7793 332.746 72.4227 332.717 72.0414C332.702 71.6392 332.595 71.2456 332.404 70.8914C332.334 70.7558 332.28 70.612 332.245 70.4633C332.245 70.3758 332.22 70.2164 332.207 70.0227C332.107 68.6195 331.995 67.6727 331.348 67.3383C331.228 67.2736 331.122 67.1867 331.035 67.082C330.964 66.9913 330.874 66.9178 330.771 66.8669C330.667 66.8161 330.554 66.7892 330.439 66.7883C329.754 66.7883 329.235 66.7695 329.007 66.7477C328.926 66.7222 328.842 66.7086 328.757 66.707C328.552 66.707 328.355 66.7876 328.209 66.9314C328.063 67.0752 327.979 67.2707 327.976 67.4758C327.951 69.2695 327.795 71.0883 327.645 72.8477C327.479 74.7914 327.304 76.8008 327.304 78.8227V80.1695C327.232 83.9133 327.189 87.4477 331.07 89.9914Z" fill="black"/>
<path d="M347.854 67.0163C347.895 67.1871 347.992 67.3392 348.13 67.4481C348.267 67.5569 348.438 67.6162 348.613 67.6163H348.704C348.806 67.6048 348.905 67.5728 348.995 67.5223C349.084 67.4719 349.163 67.404 349.226 67.3226C351.256 66.9553 353.313 66.765 355.376 66.7538C356.27 66.7538 357.132 66.7538 358.004 66.7788C358.723 66.7788 359.448 66.8038 360.292 66.8038C360.464 66.8405 360.643 66.8175 360.801 66.7385C360.958 66.6596 361.084 66.5294 361.157 66.3694C361.6 65.4304 362.123 64.5312 362.72 63.682C362.8 63.5635 362.847 63.4253 362.854 63.2823C362.862 63.1394 362.83 62.9971 362.762 62.8709C362.695 62.7447 362.594 62.6394 362.471 62.5664C362.347 62.4935 362.207 62.4556 362.063 62.4569L359.229 62.5132C357.132 62.5632 355.038 62.6132 352.935 62.5882C352.16 62.5882 351.373 62.5882 350.604 62.5632C349.835 62.5382 349.042 62.5382 348.251 62.5382C348.135 62.5388 348.021 62.565 347.916 62.6148C347.812 62.6646 347.72 62.7368 347.646 62.8263C347.573 62.9159 347.52 63.0205 347.492 63.1327C347.463 63.2449 347.46 63.362 347.482 63.4757C347.56 63.9553 347.604 64.4399 347.613 64.9257C347.623 65.6289 347.704 66.3293 347.854 67.0163Z" fill="black"/>
<path d="M342.432 69.0039C342.36 73.2186 342.666 77.4312 343.345 81.5914C343.541 83.125 343.587 84.6739 343.482 86.2164C343.448 87.1727 343.417 88.132 343.448 89.0852C343.452 89.2017 343.482 89.3158 343.536 89.419C343.591 89.5223 343.667 89.6122 343.76 89.6821C343.853 89.7519 343.961 89.8004 344.075 89.8242C344.189 89.848 344.306 89.8464 344.42 89.8196C348.436 88.7881 352.651 88.8096 356.657 89.8821C364.059 91.5255 370.79 95.3674 375.97 100.904C376.043 100.994 376.136 101.066 376.24 101.116C376.345 101.166 376.46 101.192 376.576 101.191C376.683 101.192 376.79 101.17 376.888 101.129C377.045 101.062 377.175 100.946 377.259 100.798C377.343 100.65 377.377 100.479 377.354 100.31C376.923 97.0164 376.692 94.4727 376.607 92.0664C376.498 88.6008 376.57 85.0696 376.638 81.6571C376.735 76.8602 376.835 71.9008 376.442 66.9852C376.426 66.7895 376.337 66.607 376.193 66.4738C376.049 66.3406 375.86 66.2666 375.663 66.2664C374.754 66.2664 373.845 66.2664 372.96 66.2664H371.657C370.68 66.3095 369.709 66.0852 368.85 65.6177C367.99 65.1502 367.274 64.4572 366.779 63.6133C366.706 63.5164 366.612 63.4378 366.503 63.3836C366.395 63.3294 366.275 63.301 366.154 63.3008C365.945 63.2196 365.67 63.4195 365.529 63.6133C364.861 64.5686 364.262 65.57 363.735 66.6102C363.46 67.1227 363.185 67.6352 362.885 68.1508C362.695 68.5151 362.377 68.7957 361.992 68.9383C360.334 69.2679 358.636 69.3364 356.957 69.1414C355.688 69.0354 354.412 69.026 353.142 69.1133C350.863 69.5417 348.515 69.4108 346.298 68.732C345.632 68.4383 345.595 67.5008 345.604 66.1039C345.699 65.1596 345.559 64.2065 345.198 63.3289C345.137 63.1439 345.028 62.9787 344.881 62.851C344.734 62.7233 344.555 62.6379 344.363 62.6039C344.148 62.6023 343.935 62.6459 343.738 62.7321C343.541 62.8182 343.365 62.9449 343.22 63.1039C342.355 64.7319 342.076 66.6073 342.429 68.4164C342.432 68.6727 342.432 68.8789 342.432 69.0039Z" fill="black"/>
<path d="M334.129 68.3008C334.219 69.131 334.43 69.9437 334.754 70.7133V70.7351L334.835 70.932C334.898 71.0666 334.998 71.1804 335.123 71.2601C335.248 71.3398 335.393 71.3821 335.542 71.382C335.91 71.382 336.292 71.3601 336.654 71.3383C336.967 71.3195 337.238 71.3008 337.492 71.3008H337.848C338.313 71.3008 338.785 71.3008 339.21 71.3351C339.325 71.3491 339.441 71.3361 339.55 71.297C339.658 71.2579 339.756 71.1939 339.835 71.1101C339.918 71.0299 339.982 70.932 340.022 70.8239C340.062 70.7157 340.077 70.6 340.067 70.4851C340.001 69.5851 339.97 68.6883 339.97 67.7883C339.969 67.6087 339.906 67.4348 339.793 67.296C339.679 67.1571 339.521 67.0617 339.345 67.0258C337.825 66.855 336.296 66.783 334.767 66.8101C334.645 66.8235 334.528 66.8635 334.424 66.9272C334.32 66.9909 334.231 67.0769 334.163 67.1789C334.092 67.2885 334.044 67.4118 334.023 67.541C334.002 67.6702 334.008 67.8023 334.042 67.9289C334.082 68.0498 334.112 68.1743 334.129 68.3008Z" fill="black"/>
<path d="M221.267 71.357C221.647 71.4152 222.032 71.4434 222.417 71.4414C223.517 71.4069 224.612 71.2825 225.692 71.0695C226.647 70.8777 227.617 70.7637 228.592 70.7289H233.651C234.251 70.7289 234.86 70.7289 235.467 70.707C236.957 70.6537 238.448 70.6818 239.935 70.7914C240.083 70.8039 240.232 70.7746 240.364 70.7066C240.496 70.6386 240.606 70.5348 240.682 70.407C240.757 70.2788 240.794 70.132 240.788 69.9837C240.783 69.8354 240.735 69.6917 240.651 69.5695C240.073 68.6856 239.315 67.9338 238.426 67.3632C238.256 67.2615 238.116 67.1171 238.02 66.9445C237.957 66.8111 237.854 66.7008 237.725 66.6291C237.596 66.5573 237.448 66.5277 237.301 66.5445C236.568 66.578 235.838 66.652 235.114 66.7664C233.123 66.9897 231.115 67.0158 229.12 66.8445C226.551 66.5804 223.957 66.7004 221.423 67.2007C221.288 67.2005 221.156 67.2352 221.039 67.3015C220.921 67.3678 220.823 67.4634 220.754 67.5789C220.521 68.0773 220.389 68.617 220.365 69.1667C220.342 69.7164 220.427 70.2654 220.617 70.782C220.655 70.9318 220.738 71.0665 220.854 71.169C220.969 71.2715 221.113 71.3369 221.267 71.357Z" fill="black"/>
<path d="M191.198 102.082C194.97 103.116 198.842 104.085 202.592 105.016C206.617 106.023 210.779 107.06 214.835 108.191C223.823 110.554 233.098 111.644 242.388 111.429H242.792C250.398 111.429 258.232 111.116 264.979 110.823C265.186 110.837 265.391 110.768 265.547 110.631C265.703 110.495 265.799 110.302 265.813 110.094C265.827 109.887 265.759 109.683 265.622 109.526C265.486 109.37 265.292 109.274 265.085 109.26L261.832 108.654C255.648 107.507 249.332 106.644 243.207 105.813C240.276 105.416 237.345 105.016 234.417 104.588C232.854 104.36 231.317 104.148 229.779 103.929C223.295 103.023 217.17 102.166 210.879 100.669C209.263 100.291 207.563 100.044 205.92 99.8226C203.62 99.5748 201.347 99.1145 199.132 98.4476L198.626 98.2695C196.376 97.4601 191.701 95.7695 190.054 99.2289C189.847 99.564 189.726 99.9454 189.703 100.339C189.68 100.732 189.756 101.125 189.923 101.482C190.067 101.682 190.259 101.843 190.482 101.948C190.705 102.053 190.952 102.099 191.198 102.082Z" fill="black"/>
<path d="M298.092 114.923L299.951 115.279C300.942 115.298 301.942 115.335 302.942 115.37L304.548 115.426H304.57C304.759 115.426 304.941 115.358 305.084 115.234C305.226 115.11 305.319 114.938 305.345 114.751C305.458 113.911 305.754 113.107 306.214 112.395C306.283 112.321 306.342 112.238 306.389 112.148C306.446 112.029 306.471 111.897 306.464 111.766C306.456 111.634 306.416 111.506 306.345 111.394C306.275 111.283 306.178 111.191 306.062 111.127C305.947 111.063 305.817 111.029 305.685 111.029C304.651 111.029 303.598 111.029 302.56 111.048C300.599 111.097 298.644 111.277 296.707 111.588L295.698 111.726C295.432 111.76 295.01 111.773 294.585 111.785C293.145 111.829 292.351 111.851 292.251 112.666C292.151 113.482 293.054 113.741 293.845 113.97C295.243 114.359 296.661 114.677 298.092 114.923Z" fill="black"/>
<path d="M289.71 112.76C289.693 112.565 289.603 112.383 289.459 112.25C289.314 112.118 289.125 112.044 288.929 112.044H288.91C286.432 112.11 283.96 112.191 281.488 112.269C274.473 112.498 267.232 112.723 260.042 112.666C255.795 112.644 251.388 112.963 247.163 113.291C241.112 113.933 235.016 114.05 228.945 113.641C222.773 112.852 216.677 111.553 210.72 109.757C207.157 108.791 203.476 107.791 199.86 107.035C199.048 106.866 198.179 106.723 197.295 106.569C194.196 106.375 191.212 105.329 188.67 103.548C188.544 103.427 188.381 103.353 188.208 103.336C188.035 103.318 187.861 103.36 187.713 103.453C187.566 103.546 187.454 103.685 187.395 103.849C187.337 104.013 187.334 104.192 187.388 104.357C188.622 107.983 190.115 111.515 191.857 114.926C192.757 116.751 198.045 117.923 204.86 119.263C206.77 119.638 208.417 119.963 209.054 120.201C216.92 123.203 225.172 125.075 233.563 125.76C253.192 123.91 273.301 123.154 292.742 122.423L297.985 122.226C298.089 122.221 298.19 122.196 298.284 122.152C298.378 122.108 298.462 122.046 298.532 121.969C298.603 121.893 298.658 121.803 298.693 121.704C298.728 121.606 298.742 121.502 298.735 121.398L298.682 120.351C298.648 119.501 298.61 118.644 298.495 117.788C298.47 117.622 298.394 117.468 298.277 117.349C298.159 117.229 298.007 117.15 297.842 117.123L297.185 117.019C294.624 116.972 292.162 116.018 290.238 114.326C289.92 113.863 289.737 113.321 289.71 112.76Z" fill="black"/>
<path d="M107.798 93.2633C107.931 93.3604 108.092 93.4129 108.257 93.4133C108.338 93.4133 108.418 93.4007 108.495 93.3758C111.034 92.5118 113.65 91.8924 116.307 91.5258H116.517C116.724 91.5382 116.927 91.4678 117.083 91.3301C117.238 91.1924 117.332 90.9986 117.345 90.7914C117.357 90.5842 117.287 90.3805 117.149 90.2252C117.011 90.0699 116.818 89.9757 116.61 89.9633C113.57 89.7388 110.529 90.4044 107.86 91.8789C107.733 91.9445 107.626 92.044 107.552 92.1664C107.477 92.2888 107.438 92.4294 107.438 92.5727C107.444 92.7231 107.486 92.8699 107.56 93.0008C107.619 93.1049 107.7 93.1945 107.798 93.2633Z" fill="black"/>
<path d="M194.735 95.0382C194.91 95.0538 195.085 95.0819 195.235 95.1069L198.642 95.7913C202.004 96.4632 205.482 97.1569 208.92 97.9788C210.838 98.3869 212.776 98.6925 214.726 98.8944C217.378 99.1071 219.999 99.6144 222.539 100.407C228.617 102.353 234.945 103.406 241.326 103.532C246.192 103.726 251.033 104.336 255.795 105.357C264.343 107.49 273.054 108.9 281.838 109.573H281.892C282.064 109.572 282.231 109.515 282.368 109.41C282.504 109.305 282.602 109.158 282.646 108.992C282.69 108.825 282.678 108.649 282.612 108.49C282.546 108.331 282.429 108.199 282.279 108.113C281.932 107.916 281.624 107.658 281.37 107.351C281.255 107.208 281.093 107.111 280.914 107.076C277.798 106.403 274.722 105.557 271.701 104.541C267.576 103.082 263.31 102.055 258.973 101.479C251.765 100.56 244.637 99.0968 237.651 97.1007C233.369 96.1394 228.989 95.6894 224.601 95.7601C221.203 95.7685 217.809 95.522 214.448 95.0226L214.135 94.9663C207.759 93.61 201.231 93.1098 194.723 93.4788C194.516 93.4825 194.318 93.5684 194.175 93.7176C194.031 93.8667 193.952 94.0669 193.956 94.2741C193.959 94.4813 194.045 94.6786 194.194 94.8224C194.344 94.9663 194.544 95.045 194.751 95.0413L194.735 95.0382Z" fill="black"/>
<path d="M217.826 86.4164C222.651 86.7633 227.826 87.3539 234.098 88.2914H234.21C234.387 88.2908 234.559 88.2314 234.698 88.1226C234.782 88.0555 234.851 87.9717 234.901 87.8765C234.951 87.7813 234.981 87.6768 234.989 87.5695C235.02 87.1851 235.048 86.8039 235.107 86.4508C235.342 85.1508 237.445 85.0726 239.842 85.1195C240.405 85.142 240.97 85.1326 241.532 85.0914C241.792 85.057 242.085 85.007 242.407 84.9539C243.004 84.8539 243.698 84.7383 244.389 84.6883C244.51 84.6618 244.624 84.6089 244.722 84.5332C244.82 84.4576 244.901 84.3611 244.957 84.2508C245.019 84.133 245.054 84.0036 245.062 83.8711C245.069 83.7386 245.049 83.6059 245.001 83.482C244.735 82.5445 244.482 81.382 244.204 80.1101C243.77 77.9426 243.223 75.7991 242.567 73.6883C242.502 73.4956 242.366 73.3354 242.186 73.241C242.006 73.1467 241.796 73.1255 241.601 73.182C241.435 73.2339 241.257 73.2339 241.092 73.182C238.432 72.7396 235.727 72.6346 233.042 72.8695C230.56 72.9789 228.22 73.0008 225.957 73.2758C224.736 73.4477 223.506 73.5469 222.273 73.5726C222.207 73.5819 222.139 73.5819 222.073 73.5726C221.96 73.5722 221.849 73.5962 221.747 73.6429C221.645 73.6896 221.554 73.7579 221.48 73.8432C221.407 73.9284 221.353 74.0286 221.322 74.1367C221.291 74.2448 221.284 74.3584 221.301 74.4695C221.457 75.5226 221.57 76.282 222.26 76.3695C223.261 76.532 224.274 76.6094 225.289 76.6008C226.813 76.4959 228.339 76.7921 229.714 77.4601C229.843 77.523 229.957 77.6149 230.045 77.7288C230.133 77.8426 230.194 77.9752 230.223 78.1164C230.246 78.2938 230.229 78.4741 230.176 78.6446C230.122 78.8151 230.031 78.9719 229.91 79.1039C229.788 79.2452 229.72 79.4261 229.72 79.6133V81.5445C229.755 81.7793 229.704 82.0188 229.576 82.2191C229.449 82.4194 229.253 82.5671 229.026 82.6351C227.43 83.1162 225.753 83.2641 224.098 83.0695C222.376 82.9007 220.638 83.0244 218.957 83.4351C218.783 83.4862 218.633 83.5968 218.532 83.7476L218.364 84.0101C218.272 84.1641 218.173 84.3132 218.067 84.457C217.86 84.6414 217.614 84.8414 217.382 85.0289C217.26 85.1275 217.17 85.2607 217.125 85.4111C217.08 85.5615 217.08 85.7221 217.128 85.8719C217.175 86.0217 217.266 86.1538 217.39 86.2509C217.513 86.3481 217.663 86.4057 217.82 86.4164H217.826Z" fill="black"/>
<path d="M23.1917 124.054C23.9885 124.129 24.7854 124.213 25.5854 124.298C27.226 124.473 28.8667 124.644 30.4917 124.741H30.5573C30.677 124.742 30.7952 124.714 30.9026 124.661C31.0101 124.609 31.104 124.532 31.1771 124.437C31.2502 124.342 31.3005 124.232 31.3242 124.114C31.3478 123.997 31.3442 123.876 31.3135 123.76L31.1448 123.198C31.1448 123.166 31.126 123.063 31.1135 123.032C31.0783 122.863 30.9885 122.71 30.8581 122.598C30.7277 122.485 30.5638 122.418 30.3916 122.407C29.0823 122.323 27.7698 122.241 26.4448 122.241C26.1323 122.241 24.6354 122.341 23.1917 122.507C22.9844 122.507 22.7857 122.589 22.6392 122.736C22.4927 122.882 22.4104 123.081 22.4104 123.288C22.4104 123.495 22.4927 123.694 22.6392 123.841C22.7857 123.987 22.9844 124.069 23.1917 124.069V124.054Z" fill="black"/>
<path d="M195.376 91.3477C197.493 91.3358 199.61 91.4338 201.717 91.6414C202.476 91.7008 203.21 91.7602 203.904 91.8039C207.276 92.032 210.642 92.3133 214.007 92.5914C219.082 93.0164 224.32 93.4508 229.52 93.6883C231.167 93.7664 232.957 93.9133 235.007 94.1445H235.095C235.22 94.1445 235.344 94.1142 235.455 94.0563C235.566 93.9985 235.662 93.9146 235.734 93.8119C235.806 93.7093 235.852 93.5907 235.869 93.4664C235.885 93.3421 235.872 93.2156 235.829 93.0977C235.607 92.4705 235.431 91.8282 235.301 91.1758C235.271 91.0172 235.192 90.872 235.075 90.76C234.959 90.6481 234.811 90.575 234.651 90.5508C228.264 89.6133 221.257 88.8852 213.226 88.3633C211.376 88.2477 209.476 88.232 207.673 88.2195C205.367 88.2008 202.985 88.182 200.689 87.9539L199.651 87.8508C196.985 87.5664 196.07 87.5977 194.67 90.1789C194.604 90.2994 194.572 90.435 194.575 90.572C194.578 90.7091 194.617 90.8429 194.689 90.9602C194.766 91.0724 194.869 91.1656 194.988 91.2327C195.107 91.2998 195.24 91.3391 195.376 91.3477Z" fill="black"/>
<path d="M275.489 99.6195C273.551 99.3976 271.617 99.1757 269.529 98.8945C263.517 98.0945 254.429 96.8788 250.189 92.4038C250.065 92.2745 249.902 92.1913 249.724 92.168C249.547 92.1448 249.368 92.1829 249.215 92.2761C249.063 92.3693 248.947 92.5119 248.887 92.6801C248.827 92.8484 248.826 93.0321 248.885 93.2007C249.24 94.4029 249.85 95.5146 250.673 96.4601C250.777 96.5702 250.861 96.697 250.923 96.8351C250.974 96.9345 251.045 97.022 251.132 97.0915C251.22 97.1611 251.321 97.2111 251.429 97.2382C252.864 97.5945 254.279 97.9538 255.629 98.3445C257.36 98.8382 259.114 99.357 260.885 99.8788C267.862 102.14 275.002 103.864 282.242 105.035H282.345C282.442 105.035 282.538 105.017 282.629 104.982C285.037 104.022 287.6 103.513 290.192 103.479C290.382 103.478 290.566 103.406 290.708 103.279C290.85 103.152 290.94 102.977 290.962 102.787C290.984 102.598 290.936 102.407 290.827 102.251C290.718 102.094 290.555 101.983 290.37 101.938C285.46 100.869 280.491 100.095 275.489 99.6195Z" fill="black"/>
<path d="M355.635 114.276C355.978 114.812 356.238 115.397 356.407 116.01C356.452 116.176 356.55 116.322 356.686 116.427C356.822 116.531 356.989 116.588 357.16 116.588H359.898L359.982 116.616C360.093 116.673 360.214 116.703 360.338 116.704C360.495 116.704 360.647 116.658 360.776 116.569C360.891 116.492 360.983 116.385 361.043 116.26C361.103 116.134 361.129 115.995 361.117 115.857C360.904 113.585 359.986 111.437 358.492 109.713C358.403 109.611 358.29 109.533 358.163 109.487C358.035 109.442 357.898 109.43 357.765 109.453C357.632 109.477 357.507 109.534 357.402 109.62C357.298 109.706 357.218 109.818 357.17 109.944C356.997 110.401 356.795 110.847 356.567 111.279C356.51 111.382 356.438 111.491 356.363 111.607C356.07 111.982 355.879 112.426 355.81 112.898C355.796 113.098 355.731 113.291 355.623 113.46C355.549 113.584 355.511 113.726 355.513 113.87C355.515 114.014 355.558 114.154 355.635 114.276Z" fill="black"/>
<path d="M359.898 118.301H357.085C356.93 118.301 356.779 118.348 356.65 118.435C356.522 118.521 356.422 118.644 356.363 118.787C356.304 118.931 356.289 119.089 356.32 119.241C356.35 119.393 356.425 119.532 356.535 119.641L357.113 120.179C357.257 120.338 357.395 120.507 357.532 120.673C357.793 121.017 358.09 121.331 358.42 121.61C358.494 121.718 358.594 121.807 358.71 121.869C358.825 121.93 358.954 121.964 359.085 121.966C359.216 121.966 359.345 121.934 359.459 121.871C359.574 121.808 359.671 121.717 359.742 121.607C360.206 120.88 360.564 120.089 360.804 119.26C360.824 119.14 360.816 119.018 360.782 118.901C360.747 118.785 360.686 118.678 360.604 118.588C360.514 118.492 360.404 118.417 360.282 118.368C360.16 118.318 360.029 118.295 359.898 118.301Z" fill="black"/>
<path d="M352.282 111.069C352.337 111.216 352.42 111.35 352.527 111.463C352.635 111.576 352.764 111.667 352.907 111.729C353.029 111.8 353.167 111.838 353.307 111.838C353.458 111.837 353.606 111.794 353.733 111.712C353.86 111.63 353.96 111.513 354.023 111.376C354.135 111.107 354.268 110.847 354.423 110.601C354.802 110.003 355.09 109.352 355.279 108.669C355.313 108.528 355.375 108.394 355.46 108.276C355.527 108.184 355.574 108.079 355.596 107.967C355.618 107.856 355.616 107.741 355.589 107.631C355.562 107.52 355.511 107.417 355.441 107.328C355.37 107.24 355.281 107.167 355.179 107.116C354.339 106.691 353.437 106.4 352.507 106.254C352.396 106.24 352.283 106.25 352.175 106.282C352.067 106.314 351.968 106.368 351.882 106.441C351.796 106.517 351.728 106.61 351.682 106.715C351.636 106.82 351.614 106.933 351.617 107.048C351.599 108.404 351.822 109.753 352.276 111.032L352.282 111.069Z" fill="black"/>
<path d="M331.035 118.71C330.879 107.316 337.726 96.807 347.31 93.7101C347.497 93.6501 347.654 93.5226 347.751 93.3526C347.848 93.1826 347.878 92.9824 347.835 92.7913C347.789 92.6016 347.675 92.4355 347.514 92.3248C347.353 92.2141 347.157 92.1666 346.963 92.1913C341.171 92.8906 335.749 95.4068 331.476 99.3788C324.145 106.566 323.957 117.701 326.226 125.701C326.929 127.653 328.043 129.431 329.493 130.915C330.944 132.399 332.696 133.554 334.632 134.301C334.738 134.35 334.853 134.375 334.97 134.376C335.135 134.376 335.296 134.323 335.429 134.226L335.676 134.038C335.774 133.956 335.878 133.883 335.988 133.819C336.091 133.765 336.179 133.688 336.247 133.594C336.315 133.501 336.361 133.393 336.382 133.279C336.403 133.165 336.398 133.048 336.369 132.936C336.339 132.824 336.285 132.72 336.21 132.632C332.917 128.735 331.087 123.812 331.035 118.71Z" fill="black"/>
<path d="M325.47 102.388C325.598 102.388 325.723 102.357 325.836 102.297C325.949 102.237 326.045 102.15 326.117 102.044C326.711 101.141 327.399 100.303 328.17 99.5445C328.501 99.232 328.829 98.9195 329.173 98.607C329.283 98.5075 329.363 98.3784 329.403 98.235C329.442 98.0917 329.44 97.94 329.396 97.7979C329.352 97.6558 329.268 97.5294 329.154 97.4335C329.04 97.3377 328.902 97.2764 328.754 97.257C322.53 96.3145 316.393 94.8659 310.404 92.9257C310.279 92.8871 310.147 92.8803 310.019 92.9061C309.891 92.9319 309.771 92.9894 309.671 93.0734C309.571 93.1573 309.494 93.265 309.446 93.3866C309.398 93.5082 309.382 93.6398 309.398 93.7695L309.473 94.3257C309.676 95.4893 309.725 96.6743 309.62 97.8507C309.481 98.7582 309.265 99.6521 308.973 100.523C308.938 100.641 308.931 100.766 308.952 100.887C308.974 101.009 309.024 101.124 309.098 101.223C309.17 101.32 309.265 101.399 309.373 101.453C309.482 101.508 309.602 101.536 309.723 101.535C314.648 101.413 319.575 101.681 324.457 102.338L325.395 102.388H325.47Z" fill="black"/>
<path d="M323.001 124.001C320.323 124.001 317.688 123.919 315.107 123.851C311.148 123.748 307.41 123.651 303.545 123.738C303.368 123.742 303.198 123.807 303.062 123.92C302.926 124.034 302.833 124.19 302.798 124.363C302.764 125.102 302.787 125.843 302.867 126.579L302.995 127.973C303.016 128.164 303.107 128.341 303.25 128.47C303.394 128.599 303.58 128.67 303.773 128.669C309.245 128.563 316.438 128.357 323.554 127.832C323.668 127.824 323.778 127.791 323.877 127.736C323.977 127.681 324.063 127.604 324.13 127.513C324.197 127.421 324.243 127.315 324.265 127.203C324.287 127.092 324.284 126.977 324.257 126.866C324.076 126.138 323.901 125.391 323.738 124.616C323.701 124.446 323.609 124.294 323.475 124.182C323.342 124.071 323.175 124.007 323.001 124.001Z" fill="black"/>
<path d="M315.682 115.726C317.76 115.726 319.901 115.679 322.026 115.557C322.225 115.544 322.412 115.457 322.549 115.312C322.686 115.167 322.762 114.975 322.763 114.776C322.763 113.882 322.813 112.901 322.923 111.773C322.934 111.662 322.921 111.551 322.886 111.445C322.851 111.34 322.793 111.244 322.717 111.163C322.641 111.082 322.549 111.018 322.447 110.975C322.344 110.933 322.234 110.913 322.123 110.916C318.251 111.035 314.31 111.032 310.929 111.013C310.754 111.013 310.583 111.072 310.445 111.18C310.306 111.288 310.209 111.44 310.167 111.61C310.149 111.776 310.07 111.929 309.945 112.038C309.643 112.287 309.316 112.503 308.97 112.685C308.766 112.785 308.589 112.931 308.454 113.113L308.329 113.26C307.994 113.641 307.748 114.091 307.607 114.579C307.575 114.693 307.569 114.813 307.59 114.929C307.611 115.046 307.658 115.156 307.728 115.252C307.798 115.348 307.888 115.427 307.993 115.482C308.098 115.538 308.214 115.569 308.332 115.573C310.598 115.663 313.095 115.726 315.682 115.726Z" fill="black"/>
<path d="M323.623 104.513C320.917 104.388 318.21 104.332 315.498 104.279C311.848 104.204 308.076 104.129 304.329 103.873L303.114 103.891C302.279 103.891 301.445 103.92 300.614 103.92C296.205 104.082 291.824 104.682 287.535 105.713C287.358 105.757 287.201 105.862 287.093 106.009C286.984 106.156 286.931 106.337 286.942 106.52C286.953 106.702 287.028 106.875 287.154 107.008C287.279 107.141 287.448 107.226 287.629 107.248C292.426 107.838 300.148 108.154 302.257 108.154H302.526C308.401 108.057 314.289 107.882 320.167 107.713L323.092 107.629C323.258 107.623 323.419 107.565 323.55 107.462C323.682 107.359 323.777 107.218 323.823 107.057C323.96 106.56 324.12 106.057 324.307 105.573C324.351 105.457 324.366 105.333 324.353 105.21C324.339 105.087 324.297 104.97 324.229 104.866C324.164 104.764 324.074 104.678 323.969 104.616C323.863 104.555 323.745 104.52 323.623 104.513Z" fill="black"/>
<path d="M343.651 117.932H343.751C343.954 117.907 344.151 117.869 344.348 117.835C344.618 117.777 344.891 117.74 345.167 117.723C345.277 117.72 345.386 117.693 345.485 117.645C345.584 117.596 345.672 117.527 345.742 117.441C345.813 117.355 345.865 117.255 345.895 117.147C345.924 117.04 345.931 116.927 345.913 116.816C345.858 116.468 345.858 116.112 345.913 115.763C345.967 115.432 345.492 114.976 345.182 114.826C345.082 114.76 344.967 114.717 344.848 114.701C344.585 114.666 344.307 114.632 344.026 114.613C343.838 114.602 343.653 114.659 343.504 114.774C343.355 114.889 343.253 115.054 343.217 115.238C343.082 115.863 342.976 116.46 342.904 117.073C342.89 117.183 342.899 117.295 342.932 117.401C342.964 117.508 343.019 117.606 343.092 117.69C343.165 117.773 343.256 117.84 343.357 117.886C343.458 117.932 343.568 117.957 343.679 117.957L343.651 117.932Z" fill="black"/>
<path d="M354.367 117.044C354.418 116.619 354.355 116.188 354.186 115.795C354.016 115.402 353.745 115.061 353.401 114.807C353.103 114.453 352.726 114.174 352.3 113.992C351.875 113.811 351.413 113.731 350.951 113.76C350.489 113.789 350.041 113.925 349.641 114.159C349.242 114.392 348.903 114.716 348.651 115.104C348.398 115.361 348.229 115.69 348.167 116.045C348.105 116.401 348.153 116.767 348.304 117.094C348.521 117.574 348.864 117.986 349.296 118.287C349.729 118.587 350.235 118.765 350.76 118.801C351.001 118.799 351.233 118.894 351.404 119.063C351.548 119.189 351.732 119.259 351.923 119.26C352.025 119.259 352.125 119.239 352.22 119.201C352.73 119.05 353.194 118.774 353.569 118.397C353.944 118.02 354.218 117.555 354.367 117.044Z" fill="black"/>
<path d="M356.148 94.9757C355.835 94.9757 355.523 94.9757 355.21 94.9944C349.501 95.165 344.075 97.523 340.055 101.581C336.035 105.639 333.728 111.087 333.611 116.798C333.494 122.509 335.576 128.047 339.427 132.266C343.278 136.485 348.603 139.063 354.301 139.466C358.126 139.278 361.867 138.281 365.278 136.541C368.689 134.801 371.693 132.358 374.091 129.373C375.898 127.081 377.166 124.412 377.804 121.565C378.441 118.717 378.43 115.763 377.773 112.919C376.8 107.889 374.113 103.351 370.17 100.079C366.227 96.8076 361.271 95.0039 356.148 94.9757ZM365.21 127.769C365.143 127.813 365.079 127.862 365.02 127.916C364.965 127.963 364.908 128.006 364.848 128.044C361.766 130.057 355.96 133.173 351.541 131.366C348.751 130.392 346.166 128.908 343.916 126.991C343.793 126.917 343.694 126.809 343.632 126.679C343.603 126.613 343.564 126.552 343.516 126.498C343.075 126.007 342.706 125.457 342.42 124.863C339.445 118.373 340.163 109.323 346.51 105.413C349.551 103.663 353.002 102.754 356.51 102.779C358.644 102.636 360.779 103.026 362.724 103.914C364.669 104.802 366.362 106.16 367.651 107.866C369.858 110.869 370.836 114.601 370.384 118.3C369.932 121.999 368.085 125.387 365.22 127.769H365.21Z" fill="black"/>
<path d="M366.398 109.904C364.694 107.619 362.229 106.018 359.448 105.391C359.276 105.343 359.093 105.355 358.93 105.427C358.766 105.498 358.632 105.623 358.551 105.782C358.468 105.94 358.442 106.122 358.476 106.297C358.511 106.472 358.605 106.63 358.741 106.745C360.855 108.566 362.329 111.017 362.948 113.738C363.567 116.459 363.297 119.307 362.179 121.863C360.684 124.562 358.241 126.609 355.323 127.61C355.155 127.678 355.015 127.802 354.928 127.96C354.841 128.119 354.812 128.304 354.846 128.482C354.88 128.66 354.975 128.82 355.114 128.936C355.254 129.052 355.429 129.116 355.61 129.116H355.663C358.56 128.837 361.335 127.813 363.72 126.145C366.088 124.243 367.672 121.534 368.166 118.537C368.66 115.539 368.031 112.465 366.398 109.904Z" fill="black"/>
<path d="M383.935 94.5039C383.24 90.6043 383.077 86.6285 383.451 82.6851C383.532 80.9726 383.613 79.2726 383.613 77.6007V68.5883C383.613 67.5383 383.545 66.3789 382.698 65.8539C381.851 65.3289 380.823 65.7257 379.791 66.2289C379.691 66.2289 379.588 66.2289 379.479 66.2289C379.359 66.2212 379.238 66.2396 379.125 66.2827C379.012 66.3259 378.91 66.3928 378.826 66.4789C378.752 66.5587 378.696 66.653 378.661 66.7558C378.626 66.8586 378.613 66.9676 378.623 67.0757C379.002 72.8061 379.092 78.552 378.891 84.2914C378.841 86.8914 378.791 89.4914 378.798 92.0851C378.911 96.3256 379.347 100.551 380.101 104.726C380.413 106.694 380.726 108.663 380.951 110.663C380.969 110.827 381.04 110.981 381.153 111.102C381.265 111.223 381.413 111.305 381.576 111.335C381.623 111.345 381.671 111.35 381.72 111.351C381.861 111.351 381.999 111.313 382.121 111.24C382.242 111.167 382.341 111.063 382.407 110.938C384.829 105.809 385.37 99.9916 383.935 94.5039Z" fill="black"/>
<path d="M105.067 98.4195C105.46 98.6414 105.82 98.8851 106.235 99.1601C106.371 99.251 106.532 99.2969 106.695 99.2913C106.858 99.2857 107.016 99.2288 107.145 99.1289C108.297 98.0322 109.753 97.3071 111.323 97.0476C111.988 97.1715 112.611 97.463 113.132 97.8945C113.335 98.0351 113.535 98.1726 113.717 98.2851C114.007 98.4726 114.313 98.632 114.617 98.7914C114.925 98.9444 115.225 99.1155 115.513 99.3039C115.732 99.421 115.924 99.5805 116.08 99.7732C116.236 99.9659 116.351 100.188 116.42 100.426C116.43 100.682 116.39 100.937 116.301 101.178C116.212 101.418 116.076 101.638 115.901 101.826C115.814 101.942 115.761 102.08 115.748 102.224C115.735 102.369 115.762 102.514 115.827 102.644C115.892 102.774 115.992 102.883 116.115 102.959C116.239 103.035 116.381 103.076 116.526 103.076C116.597 103.075 116.667 103.066 116.735 103.048C123.7 101.2 130.891 100.344 138.095 100.504C141.345 100.504 144.582 100.438 147.823 100.373C151.063 100.307 154.285 100.241 157.51 100.241C158.582 100.241 159.782 100.313 161.032 100.388C164.254 100.777 167.519 100.61 170.685 99.8945C170.845 99.844 170.985 99.743 171.083 99.6067C171.181 99.4704 171.232 99.3061 171.229 99.1382C171.192 98.5856 171.273 98.0313 171.465 97.512C171.658 96.9928 171.959 96.5203 172.348 96.1258C174.657 93.8351 179.998 93.9757 183.545 94.0726L184.907 94.1007C185.083 94.0969 185.256 94.139 185.41 94.2226C185.552 94.2964 185.714 94.3254 185.873 94.3059C186.032 94.2863 186.181 94.2192 186.301 94.1132C186.892 93.5758 187.557 93.1254 188.276 92.7757C188.433 92.6999 188.56 92.5735 188.638 92.4168C188.715 92.2601 188.737 92.0821 188.701 91.9112C188.665 91.7403 188.573 91.5865 188.439 91.4741C188.305 91.3618 188.138 91.2974 187.963 91.2914L185.523 91.2195C179.93 90.9367 174.324 90.9952 168.738 91.3945C168.522 91.428 168.301 91.3849 168.113 91.2726C167.988 91.1836 167.839 91.1336 167.685 91.1289C167.073 91.1152 166.462 91.0515 165.86 90.9382C165.736 90.9044 165.62 90.8461 165.518 90.7667C165.417 90.6873 165.332 90.5883 165.27 90.4757C165.187 90.3427 165.132 90.1945 165.108 90.04C165.084 89.8854 165.091 89.7276 165.129 89.5758C165.171 89.4336 165.241 89.3012 165.335 89.1863C165.429 89.0714 165.544 88.9763 165.675 88.9065C165.806 88.8367 165.95 88.7936 166.097 88.7797C166.245 88.7659 166.394 88.7815 166.535 88.8257C166.962 88.9059 167.395 88.9498 167.829 88.957H167.854C168.074 88.941 168.28 88.8444 168.433 88.6858C168.585 88.5272 168.674 88.3177 168.682 88.0976C168.694 87.9687 168.694 87.839 168.682 87.7101L168.567 87.0539C168.544 86.8621 168.448 86.6865 168.299 86.5637C168.15 86.4409 167.959 86.3803 167.767 86.3945L167.042 86.4258C164.973 86.5101 162.929 86.4789 160.426 86.7382C160.226 86.7588 160.043 86.8553 159.912 87.0077C159.782 87.1601 159.715 87.3568 159.726 87.557C159.734 87.7235 159.796 87.8829 159.904 88.0101C159.904 88.0789 159.926 88.1601 159.938 88.2476C159.968 88.6588 160.094 89.0573 160.307 89.4101C160.637 89.807 161.024 90.1534 161.454 90.4382C161.541 90.5032 161.641 90.548 161.748 90.5695C161.854 90.5945 161.942 90.6914 162.095 91.007C162.162 91.0912 162.206 91.1912 162.223 91.2974C162.24 91.4036 162.229 91.5124 162.192 91.6133C162.169 91.6777 162.155 91.745 162.151 91.8132C162.113 92.3351 161.929 92.7507 161.735 92.7507C160.503 92.8059 159.269 92.7284 158.054 92.5195C157.58 92.4448 157.099 92.4207 156.62 92.4476C156.215 92.466 155.809 92.4462 155.407 92.3882C155.042 92.2547 154.706 92.0496 154.421 91.7851C154.136 91.5206 153.906 91.2019 153.745 90.8476C153.675 90.7275 153.575 90.628 153.454 90.5593C153.333 90.4907 153.196 90.4554 153.057 90.457H146.717C146.595 90.457 146.213 90.3976 145.779 90.3382C143.448 90.0257 143.254 90.0007 142.945 90.6507C142.835 90.9338 142.699 91.2059 142.538 91.4633C142.42 91.6664 142.298 91.8757 142.173 92.132C142.108 92.2508 142.035 92.3646 141.954 92.4726C141.868 92.6382 141.74 92.778 141.582 92.8779C141.425 92.9778 141.244 93.0342 141.057 93.0414C137.631 93.2585 134.197 93.2992 130.767 93.1632C126.733 92.9778 122.692 93.0749 118.673 93.4539C114.34 94.0726 110.083 95.1387 105.97 96.6351L105.079 96.9257C104.939 96.9711 104.814 97.0552 104.72 97.1684C104.625 97.2815 104.565 97.4191 104.545 97.5651C104.526 97.7112 104.548 97.8598 104.609 97.9939C104.67 98.1279 104.768 98.2419 104.892 98.3226L105.067 98.4195Z" fill="black"/>
<path d="M322.335 121.748H322.36C322.472 121.747 322.583 121.722 322.684 121.675C322.786 121.629 322.876 121.561 322.949 121.476C323.022 121.391 323.076 121.292 323.108 121.185C323.14 121.077 323.148 120.965 323.132 120.854C323.026 120.113 322.964 119.357 322.892 118.463C322.888 118.361 322.863 118.26 322.819 118.167C322.774 118.075 322.711 117.992 322.634 117.925C322.556 117.858 322.465 117.807 322.367 117.777C322.269 117.746 322.166 117.736 322.064 117.748C316.517 118.098 310.739 117.876 305.148 117.663L301.567 117.538C301.351 117.547 301.144 117.629 300.982 117.773C300.906 117.85 300.847 117.943 300.809 118.044C300.77 118.146 300.754 118.255 300.76 118.363L300.801 119.141C300.832 119.723 300.864 120.307 300.91 120.888C300.927 121.084 301.016 121.266 301.16 121.399C301.304 121.532 301.492 121.606 301.689 121.607H301.72C306.182 121.426 313.514 121.482 322.335 121.748Z" fill="black"/>
<path d="M346.413 113.001L346.632 113.129C346.743 113.187 346.866 113.217 346.991 113.216C347.18 113.216 347.362 113.147 347.504 113.023C348.088 112.522 348.754 112.126 349.473 111.851C349.656 111.779 349.806 111.641 349.892 111.463C349.977 111.286 349.993 111.083 349.935 110.895C349.613 109.753 349.442 108.574 349.426 107.388C349.42 107.248 349.377 107.112 349.3 106.994C349.223 106.876 349.116 106.781 348.99 106.719C348.864 106.657 348.724 106.63 348.584 106.641C348.444 106.652 348.309 106.701 348.195 106.782C347.6 107.182 347.059 107.654 346.582 108.188C345.766 109.174 345.078 110.26 344.535 111.42C344.484 111.524 344.457 111.638 344.456 111.754C344.455 111.87 344.48 111.985 344.529 112.09C344.579 112.196 344.651 112.288 344.74 112.362C344.83 112.436 344.935 112.489 345.048 112.516C345.517 112.635 345.974 112.797 346.413 113.001Z" fill="black"/>
<path d="M351.039 124.469L350.979 124.157C350.917 123.807 350.851 123.454 350.817 123.094V123.063C350.817 123.063 350.785 122.816 350.779 122.751C350.783 122.668 350.769 122.584 350.739 122.507C350.702 122.367 350.633 122.238 350.539 122.129C350.46 122.047 350.365 121.982 350.26 121.938C350.156 121.894 350.043 121.872 349.929 121.873C349.761 121.894 349.602 121.96 349.467 122.063C349.333 122.167 349.228 122.303 349.164 122.46C348.976 122.719 348.77 122.969 348.567 123.219L348.235 123.626C348.045 123.869 347.832 124.104 347.626 124.335L347.276 124.729C347.188 124.83 347.128 124.952 347.101 125.084C347.073 125.215 347.081 125.351 347.122 125.479C347.162 125.607 347.235 125.722 347.334 125.813C347.432 125.905 347.552 125.969 347.682 126.001C348.627 126.229 349.595 126.345 350.567 126.348C350.695 126.348 350.822 126.316 350.935 126.256C351.048 126.195 351.145 126.108 351.217 126.001C351.287 125.894 351.331 125.772 351.344 125.644C351.357 125.517 351.339 125.388 351.292 125.269C351.173 125.015 351.088 124.746 351.039 124.469Z" fill="black"/>
<path d="M347.217 120.857C347.191 120.765 347.179 120.669 347.182 120.573C347.182 120.451 347.154 120.332 347.099 120.223C347.045 120.115 346.966 120.021 346.87 119.948C346.771 119.874 346.657 119.824 346.536 119.803C346.414 119.783 346.29 119.791 346.173 119.829C346.071 119.862 345.966 119.885 345.86 119.898H345.698C345.504 119.887 345.309 119.897 345.117 119.926C344.661 120.03 344.198 120.101 343.732 120.138C343.623 120.149 343.517 120.183 343.422 120.237C343.327 120.291 343.244 120.365 343.179 120.454C343.114 120.542 343.069 120.643 343.046 120.75C343.023 120.858 343.022 120.968 343.045 121.076C343.226 121.968 343.557 122.824 344.023 123.607C344.09 123.714 344.181 123.804 344.29 123.869C344.399 123.934 344.521 123.971 344.648 123.979H344.707C344.821 123.979 344.934 123.954 345.038 123.906C345.142 123.858 345.234 123.788 345.307 123.701L345.848 123.076C346.117 122.763 346.388 122.451 346.657 122.138C346.807 121.951 346.97 121.763 347.117 121.56C347.187 121.459 347.233 121.343 347.251 121.221C347.268 121.098 347.256 120.974 347.217 120.857Z" fill="black"/>
<path d="M356.807 124.482C356.908 124.414 356.992 124.324 357.052 124.219C357.112 124.113 357.147 123.995 357.153 123.873C357.16 123.752 357.138 123.631 357.089 123.52C357.04 123.408 356.966 123.31 356.873 123.232C356.471 122.874 356.098 122.484 355.757 122.066C355.463 121.708 355.15 121.364 354.82 121.038C354.707 120.931 354.564 120.86 354.411 120.833C354.257 120.807 354.099 120.827 353.957 120.891L353.298 121.179C353.128 121.253 352.989 121.385 352.908 121.552C352.827 121.718 352.807 121.909 352.854 122.088C352.935 122.418 352.992 122.753 353.023 123.091C353.028 123.177 353.042 123.262 353.063 123.344C353.085 123.488 353.11 123.657 353.151 123.823C353.17 123.929 353.198 124.033 353.232 124.135C353.283 124.291 353.381 124.426 353.513 124.523C353.687 124.628 353.816 124.794 353.876 124.988C353.907 125.093 353.959 125.19 354.029 125.272C354.1 125.355 354.187 125.423 354.285 125.469C354.391 125.523 354.508 125.551 354.626 125.551C354.724 125.551 354.822 125.531 354.913 125.495C355.58 125.228 356.215 124.888 356.807 124.482Z" fill="black"/>
<path d="M131.198 114.607C131.128 114.513 131.037 114.436 130.932 114.381C130.828 114.327 130.712 114.298 130.595 114.294L127.392 114.229C126.254 114.204 125.117 114.179 123.976 114.163C123.78 114.145 123.583 114.2 123.426 114.319C123.354 114.379 123.296 114.454 123.256 114.539C123.217 114.624 123.197 114.716 123.198 114.81L123.179 114.907C123.115 115.137 123.03 115.361 122.926 115.576C122.854 115.727 122.771 115.872 122.676 116.01C122.573 116.182 122.467 116.351 122.382 116.526C121.992 117.413 121.407 118.202 120.67 118.832C119.127 119.937 117.319 120.614 115.429 120.794C115.239 120.795 115.055 120.864 114.912 120.99C114.77 121.116 114.678 121.29 114.654 121.479C114.468 122.876 114.13 124.248 113.648 125.573C113.607 125.685 113.593 125.805 113.606 125.924C113.619 126.042 113.66 126.157 113.724 126.257C113.788 126.358 113.875 126.442 113.977 126.504C114.079 126.566 114.195 126.603 114.314 126.613C115.435 126.716 116.523 126.794 117.582 126.794C119.911 126.882 122.214 126.282 124.204 125.069C125.99 123.994 127.542 122.571 128.768 120.885C129.994 119.199 130.869 117.284 131.342 115.254C131.367 115.142 131.367 115.026 131.342 114.914C131.317 114.802 131.268 114.698 131.198 114.607Z" fill="black"/>
<path d="M159.751 115.504C157.8 115.083 155.81 114.867 153.813 114.86C153.023 114.86 152.229 114.879 151.438 114.894C150.648 114.91 149.876 114.926 149.098 114.926C148.935 114.925 148.775 114.976 148.643 115.071C148.51 115.166 148.41 115.3 148.357 115.454C148.305 115.609 148.302 115.776 148.349 115.932C148.396 116.089 148.49 116.226 148.62 116.326C149.624 117.066 150.506 117.961 151.232 118.976C151.964 120.109 152.294 121.455 152.17 122.798C152.157 122.901 152.166 123.006 152.196 123.106C152.225 123.206 152.275 123.299 152.342 123.379C152.408 123.459 152.489 123.525 152.581 123.573C152.672 123.621 152.773 123.651 152.876 123.66C153.967 123.757 155.063 123.866 156.098 123.973C157.585 124.126 158.995 124.269 160.232 124.348H160.282C160.396 124.348 160.508 124.323 160.612 124.276C160.715 124.228 160.806 124.158 160.88 124.071C160.953 123.984 161.006 123.882 161.036 123.772C161.065 123.662 161.071 123.547 161.051 123.435L160.895 122.554C160.419 120.53 160.235 118.449 160.348 116.373C160.375 116.179 160.329 115.983 160.219 115.822C160.108 115.661 159.941 115.547 159.751 115.504Z" fill="black"/>
<path d="M300.651 126.173C300.651 125.879 300.651 125.582 300.626 125.276L299.838 125.129L300.62 125.095C300.617 124.992 300.594 124.891 300.551 124.797C300.509 124.704 300.448 124.62 300.373 124.55C300.297 124.481 300.208 124.427 300.112 124.392C300.015 124.357 299.913 124.342 299.81 124.348C295.908 124.489 291.999 124.624 288.082 124.751C273.004 125.251 257.413 125.77 242.217 127.101C242.096 127.115 241.98 127.157 241.879 127.223C241.777 127.289 241.691 127.378 241.629 127.482C241.567 127.589 241.529 127.708 241.518 127.832C241.508 127.955 241.526 128.079 241.57 128.195L241.651 128.407C241.855 128.872 242.008 129.357 242.107 129.854C242.144 130.03 242.24 130.188 242.379 130.302C242.519 130.416 242.693 130.478 242.873 130.479C249.945 130.479 257.079 130.079 263.982 129.704C269.798 129.391 275.817 129.054 281.751 128.957C285.188 128.901 288.667 128.866 292.138 128.832C294.765 128.807 297.395 128.778 300.026 128.745C300.135 128.744 300.242 128.72 300.341 128.675C300.441 128.63 300.529 128.564 300.601 128.482C300.673 128.4 300.727 128.305 300.761 128.201C300.794 128.097 300.806 127.987 300.795 127.879L300.757 127.52C300.696 127.073 300.66 126.623 300.651 126.173Z" fill="black"/>
<path d="M173.273 126.729L172.614 126.629C172.264 126.576 171.942 126.526 171.645 126.494C171.132 126.448 170.635 126.398 170.148 126.348C167.974 126.026 165.766 126 163.585 126.27C163.535 126.273 163.485 126.273 163.435 126.27C163.286 126.266 163.137 126.296 163.001 126.357C162.798 126.474 162.563 126.524 162.329 126.501C162.259 126.493 162.187 126.493 162.117 126.501L161.904 126.551C161.839 126.569 161.772 126.582 161.704 126.588C160.245 126.588 158.267 126.382 156.392 126.182C156.271 126.169 156.15 126.184 156.036 126.227C155.923 126.269 155.821 126.337 155.739 126.426C155.656 126.514 155.596 126.621 155.562 126.737C155.528 126.853 155.521 126.975 155.542 127.095C155.729 128.244 155.796 129.409 155.742 130.573C155.74 130.677 155.759 130.78 155.797 130.877C155.836 130.974 155.893 131.062 155.965 131.136C156.038 131.211 156.125 131.271 156.22 131.312C156.316 131.353 156.419 131.375 156.523 131.376C159.867 131.357 163.22 131.466 166.482 131.563C168.595 131.626 170.682 131.688 172.732 131.719C172.835 131.72 172.937 131.7 173.032 131.661C173.127 131.622 173.213 131.564 173.286 131.492C173.358 131.419 173.416 131.333 173.455 131.238C173.494 131.143 173.514 131.041 173.514 130.938C173.512 130.446 173.544 129.954 173.607 129.466C173.666 128.864 173.771 128.266 173.92 127.679C173.945 127.573 173.949 127.463 173.931 127.355C173.913 127.248 173.873 127.145 173.814 127.054C173.751 126.965 173.671 126.89 173.578 126.834C173.485 126.778 173.381 126.742 173.273 126.729Z" fill="black"/>
<path d="M130.976 112.073C133.554 112.16 136.12 112.248 138.657 112.248C139.83 112.285 140.989 112.503 142.095 112.895C142.174 112.922 142.258 112.936 142.342 112.935C142.485 112.936 142.625 112.897 142.748 112.823C144.377 111.817 146.091 110.955 147.87 110.245C148.04 110.178 148.181 110.055 148.27 109.895C148.358 109.735 148.388 109.55 148.354 109.37C148.32 109.191 148.224 109.029 148.083 108.913C147.942 108.797 147.765 108.734 147.582 108.735L145.845 108.72C143.448 108.72 141.026 108.673 138.601 108.626C130.545 108.186 122.465 108.596 114.495 109.848C114.296 109.886 114.119 110 114.003 110.165C113.886 110.331 113.839 110.535 113.87 110.735L114.035 111.673C114.068 111.872 114.175 112.051 114.336 112.173C114.496 112.295 114.697 112.351 114.898 112.329C120.243 111.845 125.618 111.76 130.976 112.073Z" fill="black"/>
<path d="M163.317 123.301C163.332 123.403 163.368 123.501 163.422 123.59C163.475 123.678 163.546 123.755 163.629 123.816C163.71 123.88 163.803 123.926 163.903 123.951C164.002 123.977 164.106 123.982 164.207 123.966C165.631 123.72 167.082 123.67 168.52 123.819C169.014 123.891 169.501 123.966 169.985 124.048C170.976 124.207 171.967 124.36 172.96 124.463H173.042C173.156 124.463 173.269 124.438 173.372 124.39C173.476 124.341 173.567 124.271 173.641 124.183C173.714 124.096 173.767 123.993 173.796 123.883C173.826 123.772 173.83 123.657 173.81 123.544L173.682 122.851C173.514 121.891 173.339 120.904 173.082 119.994C172.983 119.55 172.843 119.116 172.664 118.698C172.627 118.602 172.571 118.515 172.501 118.441C172.482 118.423 172.429 118.376 172.389 118.344C172.297 118.244 172.182 118.169 172.054 118.126C171.842 118.06 171.625 118.013 171.404 117.985C170.779 117.804 170.154 117.638 169.529 117.469L168.507 117.198C166.873 116.69 165.18 116.4 163.47 116.335C163.259 116.354 163.063 116.452 162.921 116.609C162.779 116.766 162.702 116.97 162.704 117.182C162.704 117.763 162.754 118.326 162.801 118.854C162.854 120.019 163.023 121.16 163.182 122.26L163.317 123.301Z" fill="black"/>
<path d="M115.245 114.473C115.039 114.494 114.851 114.596 114.72 114.755C114.59 114.915 114.528 115.12 114.548 115.326C114.629 116.151 114.695 116.979 114.742 117.826C114.75 117.934 114.779 118.039 114.829 118.135C114.879 118.232 114.948 118.317 115.032 118.385C115.172 118.496 115.345 118.557 115.523 118.557C115.561 118.56 115.6 118.56 115.639 118.557C117.023 118.483 118.343 117.948 119.389 117.038C119.866 116.53 120.246 115.939 120.51 115.294C120.564 115.174 120.587 115.041 120.577 114.909C120.567 114.777 120.523 114.649 120.451 114.538C120.373 114.432 120.272 114.346 120.156 114.285C120.039 114.225 119.91 114.191 119.779 114.188C118.326 114.223 116.807 114.319 115.245 114.473Z" fill="black"/>
<path d="M172.12 106.776C172.247 106.776 172.372 106.746 172.485 106.687C172.598 106.628 172.694 106.543 172.767 106.438C172.837 106.333 172.882 106.212 172.897 106.086C172.911 105.96 172.896 105.832 172.851 105.713C172.456 104.726 172.121 103.716 171.848 102.688C171.793 102.495 171.667 102.329 171.495 102.226C171.406 102.174 171.308 102.14 171.206 102.127C171.104 102.113 171 102.12 170.901 102.148C168.352 102.663 165.74 102.797 163.151 102.548C162.142 102.504 161.16 102.463 160.229 102.463C157.282 102.463 154.332 102.529 151.389 102.594C139.089 102.869 127.014 102.032 114.826 105.973C114.649 106.03 114.497 106.148 114.4 106.307C114.302 106.466 114.264 106.654 114.293 106.838C114.323 107.022 114.416 107.19 114.558 107.311C114.7 107.432 114.88 107.498 115.067 107.498C115.113 107.502 115.161 107.502 115.207 107.498C128.142 105.126 142.114 105.729 155.617 106.301C161.07 106.507 166.726 106.748 172.12 106.776Z" fill="black"/>
<path d="M153.001 127.788C152.827 127.436 152.715 127.057 152.67 126.666C152.67 126.082 152.198 125.785 151.132 125.782C150.583 125.759 150.033 125.774 149.485 125.829C147.527 126.276 145.545 126.607 143.548 126.823C138.732 126.976 134.054 128.47 130.042 131.138C129.918 131.24 129.828 131.378 129.786 131.533C129.743 131.688 129.75 131.853 129.804 132.004C129.885 132.179 130.02 132.323 130.188 132.417C130.357 132.511 130.55 132.549 130.742 132.526C132.587 132.483 134.427 132.32 136.251 132.038C137.632 131.857 138.935 131.685 140.164 131.623C142.976 131.494 145.789 131.479 148.529 131.463C149.923 131.463 151.323 131.463 152.739 131.429C152.93 131.425 153.114 131.352 153.255 131.222C153.396 131.093 153.484 130.916 153.504 130.726C153.585 129.991 153.517 129.247 153.304 128.538C153.217 128.283 153.116 128.032 153.001 127.788Z" fill="black"/>
<path d="M214.476 124.451L214.37 124.413H214.345C211.251 123.513 208.207 122.538 205.267 121.601C203.176 120.929 201.145 120.276 199.192 119.685C197.792 119.26 196.595 118.957 195.545 118.695C191.273 117.623 189.979 117.301 188.204 111.982C187.763 110.657 187.207 109.301 186.61 107.863C184.899 104.523 183.961 100.84 183.867 97.0883C183.876 96.9833 183.863 96.8775 183.83 96.7775C183.797 96.6775 183.743 96.5855 183.673 96.5071C183.603 96.4281 183.517 96.3641 183.422 96.319C183.326 96.2739 183.222 96.2486 183.117 96.2446C179.726 96.1321 176.023 96.2446 174.429 98.2039C174.07 98.6665 173.828 99.209 173.724 99.7851C173.619 100.361 173.655 100.954 173.829 101.513C174.368 103.513 175.118 105.45 176.067 107.291L176.692 108.635C177.554 110.545 178.567 112.441 179.567 114.26C181.148 117.004 182.49 119.878 183.579 122.851C183.602 123.011 183.675 123.16 183.787 123.276C183.899 123.393 184.045 123.471 184.204 123.501C184.679 123.585 185.142 123.695 185.623 123.813C186.248 123.954 186.873 124.095 187.498 124.188C188.657 124.366 189.82 124.56 190.982 124.754C195.293 125.591 199.665 126.073 204.054 126.195C207.442 126.213 210.813 126.26 214.185 126.31C214.4 126.279 214.595 126.168 214.729 125.998C214.777 125.943 214.814 125.879 214.838 125.81C214.89 125.765 214.939 125.716 214.982 125.663C215.047 125.556 215.085 125.435 215.095 125.31C215.104 125.185 215.084 125.06 215.035 124.945C214.985 124.826 214.908 124.72 214.811 124.635C214.715 124.549 214.6 124.486 214.476 124.451Z" fill="black"/>
<path d="M239.357 128.529C239.315 128.395 239.257 128.266 239.185 128.144C239.107 128.021 238.996 127.921 238.865 127.855C238.734 127.79 238.588 127.761 238.442 127.773C236.893 127.916 235.337 127.969 233.782 127.932C233.782 127.932 233.56 127.932 233.52 127.951L233.289 127.969C228.061 128.527 222.808 128.804 217.551 128.801C217.449 128.801 217.347 128.821 217.253 128.86C217.158 128.9 217.072 128.957 217 129.03C216.927 129.102 216.87 129.188 216.831 129.283C216.792 129.378 216.773 129.48 216.773 129.582L216.789 130.023C216.788 130.125 216.807 130.227 216.846 130.323C216.885 130.418 216.943 130.504 217.016 130.577C217.088 130.65 217.175 130.707 217.27 130.746C217.365 130.785 217.467 130.805 217.57 130.804C224.592 130.629 231.867 130.438 238.973 130.476C239.102 130.476 239.229 130.445 239.343 130.384C239.457 130.323 239.554 130.235 239.625 130.128C239.696 130.02 239.74 129.896 239.751 129.768C239.763 129.639 239.742 129.51 239.692 129.391C239.582 129.101 239.457 128.788 239.357 128.529Z" fill="black"/>
<path d="M213.801 128.788C210.513 128.723 207.238 128.591 204.113 128.398C200.804 128.191 197.707 127.773 194.426 127.32C192.632 127.076 190.823 126.829 188.985 126.62C188.632 126.573 188.02 126.429 187.295 126.263C186.773 126.145 186.198 126.013 185.616 125.891C185.489 125.863 185.357 125.866 185.231 125.902C185.105 125.938 184.991 126.004 184.898 126.095C184.804 126.187 184.735 126.3 184.697 126.425C184.659 126.55 184.653 126.682 184.679 126.81C184.807 127.55 184.887 128.297 184.916 129.048C184.945 129.47 184.973 129.888 185.013 130.298C185.054 130.707 185.638 130.995 185.979 131.001C189.073 130.954 192.154 131.001 195.229 131.048C197.438 131.079 199.645 131.11 201.851 131.11C202.579 131.11 203.301 131.11 204.038 131.11C207.298 131.079 210.56 131.013 213.841 130.932C213.949 130.929 214.054 130.905 214.151 130.86C214.248 130.815 214.335 130.75 214.406 130.67C214.478 130.59 214.532 130.497 214.565 130.395C214.599 130.293 214.611 130.186 214.601 130.079C214.601 129.907 214.573 129.751 214.573 129.591C214.575 129.488 214.557 129.385 214.52 129.288C214.482 129.192 214.426 129.104 214.354 129.029C214.282 128.954 214.197 128.895 214.102 128.853C214.007 128.812 213.904 128.79 213.801 128.788Z" fill="black"/>
<path d="M182.529 127.851C182.52 127.73 182.504 127.61 182.482 127.491L181.698 127.557L182.47 127.435C182.456 127.333 182.423 127.235 182.37 127.146C182.318 127.058 182.248 126.981 182.165 126.92C182.082 126.859 181.988 126.816 181.888 126.793C181.787 126.77 181.683 126.767 181.582 126.785C181.332 126.823 181.076 126.829 180.823 126.841C180.509 126.85 180.196 126.875 179.885 126.916C179.651 126.957 179.404 127.01 179.151 127.066C178.629 127.193 178.097 127.266 177.56 127.285L176.935 127.266C176.769 127.266 176.607 127.318 176.473 127.416C176.339 127.514 176.239 127.652 176.188 127.81C176.141 127.888 176.107 127.974 176.088 128.063C175.907 128.959 175.809 129.869 175.795 130.782C175.795 131.035 175.795 131.182 175.795 131.291C175.795 131.494 175.873 131.689 176.013 131.835C176.064 131.89 176.123 131.936 176.188 131.973C176.26 132.046 176.345 132.105 176.44 132.145C176.534 132.184 176.636 132.204 176.738 132.204H176.82C178.001 132.082 179.198 131.891 180.407 131.67C180.985 131.573 181.563 131.473 182.148 131.382C182.346 131.351 182.525 131.245 182.647 131.087C182.77 130.928 182.827 130.728 182.807 130.529C182.763 130.148 182.732 129.766 182.698 129.385C182.635 128.832 182.588 128.288 182.529 127.851Z" fill="black"/>
<path d="M176.092 123.038L176.132 123.288L176.932 123.326L176.157 123.416C176.169 123.52 176.201 123.62 176.252 123.711C176.303 123.801 176.372 123.881 176.454 123.944C176.591 124.05 176.759 124.107 176.932 124.107H177.045L178.295 123.904C178.785 123.842 179.272 123.75 179.751 123.629C179.851 123.601 179.945 123.554 180.026 123.49C180.108 123.425 180.176 123.345 180.226 123.255C180.276 123.164 180.308 123.064 180.319 122.961C180.33 122.858 180.321 122.753 180.292 122.654C180.149 122.225 179.975 121.807 179.77 121.404C179.648 121.148 179.532 120.91 179.473 120.798C179.481 120.7 179.469 120.603 179.437 120.51C179.406 120.418 179.355 120.333 179.289 120.262C179.223 120.19 179.143 120.133 179.053 120.094C178.964 120.055 178.867 120.035 178.77 120.035C178.517 119.957 178.27 119.894 178.029 119.832L177.66 119.726C177.313 119.629 176.963 119.519 176.613 119.413C176.483 119.372 176.345 119.365 176.211 119.393C176.078 119.422 175.954 119.485 175.853 119.577C175.751 119.668 175.675 119.784 175.633 119.914C175.59 120.044 175.583 120.183 175.61 120.316C175.76 121.029 175.873 121.732 175.973 122.344L176.092 123.038Z" fill="black"/>
<path d="M177.489 117.291C177.604 117.291 177.718 117.265 177.823 117.216C177.928 117.167 178.021 117.096 178.095 117.007C178.193 116.887 178.253 116.741 178.268 116.587C178.283 116.433 178.252 116.278 178.179 116.141C177.742 115.329 177.297 114.517 176.845 113.707C176.085 112.335 175.326 110.957 174.614 109.56C174.55 109.431 174.451 109.323 174.329 109.247C174.207 109.17 174.067 109.13 173.923 109.129C166.392 108.75 158.847 109.487 151.532 111.316C151.354 111.371 151.201 111.488 151.101 111.646C151.001 111.804 150.961 111.992 150.989 112.177C151.016 112.362 151.108 112.531 151.249 112.653C151.39 112.776 151.571 112.844 151.757 112.845H152.507C155.795 112.563 159.106 112.953 162.239 113.991C162.363 114.047 162.5 114.066 162.635 114.048C164.796 113.979 166.95 114.322 168.982 115.057L169.776 115.282C170.204 115.41 170.692 115.507 171.192 115.595C172.111 115.715 173.001 115.999 173.82 116.435C173.926 116.503 174.047 116.544 174.173 116.557C175.219 116.687 176.25 116.918 177.251 117.248C177.327 117.275 177.408 117.29 177.489 117.291Z" fill="black"/>
</svg>
